<?xml version="1.0" encoding="utf-8"?>
<!-- Generator: Adobe Illustrator 27.5.0, SVG Export Plug-In . SVG Version: 6.00 Build 0)  -->
<svg version="1.1" xmlns="http://www.w3.org/2000/svg" xmlns:xlink="http://www.w3.org/1999/xlink" x="0px" y="0px"
	 viewBox="0 0 500 500" style="enable-background:new 0 0 500 500;" xml:space="preserve">
<g id="Background_Simple">
	<g>
		<path style="fill:#92E3A9;" d="M430.734,186.503c-2.681-8.535-6.009-16.868-10.323-24.883
			c-21.763-40.442-59.924-70.944-101.665-88.968c-33.133-14.307-74.121-21.789-109.28-8.9c-17.777,6.516-34.512,19.028-44.046,35.65
			c-12.45,21.706-11.248,48.641-21.113,71.453c-7.994,18.487-27.88,29.597-43.462,40.95c-24.309,17.712-48.251,38.669-56.681,68.64
			c-11.248,39.992-7.919,87.551,14.869,123.089c16.995,26.503,46.099,34.466,76.128,35.013c28.341,0.516,62.974-6.645,89.447,6.284
			c45.062,22.006,104.523,46.704,154.938,29.288c51.961-17.95,77.469-52.905,85.027-98.253
			c7.558-45.348-13.226-83.137-19.841-119.043C440.557,234.152,437.833,209.101,430.734,186.503z"/>
		<path style="opacity:0.8;fill:#FFFFFF;" d="M430.734,186.503c-2.681-8.535-6.009-16.868-10.323-24.883
			c-21.763-40.442-59.924-70.944-101.665-88.968c-33.133-14.307-74.121-21.789-109.28-8.9c-17.777,6.516-34.512,19.028-44.046,35.65
			c-12.45,21.706-11.248,48.641-21.113,71.453c-7.994,18.487-27.88,29.597-43.462,40.95c-24.309,17.712-48.251,38.669-56.681,68.64
			c-11.248,39.992-7.919,87.551,14.869,123.089c16.995,26.503,46.099,34.466,76.128,35.013c28.341,0.516,62.974-6.645,89.447,6.284
			c45.062,22.006,104.523,46.704,154.938,29.288c51.961-17.95,77.469-52.905,85.027-98.253
			c7.558-45.348-13.226-83.137-19.841-119.043C440.557,234.152,437.833,209.101,430.734,186.503z"/>
	</g>
</g>
<g id="Plants">
	<g>
		<path style="fill:#BABABA;" d="M51.61,322.656c-0.258-2.891-0.316-5.551-0.348-7.907c-0.008-1.34,0.012-2.551,0.042-3.684
			c1.035-0.844,5.165-4.295,6.319-6.627c1.127-2.276,1.924-5.499,0.707-7.935c-1.192-2.385-4.122-3.54-6.449-2.092
			c-3.23,2.009-3.5,8.911-2.633,12.236c0.075,0.287,1.761,4.654,1.816,4.611c0,0,0.051-0.041,0.063-0.051
			c-0.051,1.089-0.093,2.258-0.113,3.535c-0.019,2.361-0.019,5.029,0.177,7.936c0.032,0.485,0.071,0.987,0.109,1.486
			c0.359,0.549,0.565,0.89,0.565,0.89C51.78,324.253,51.676,323.427,51.61,322.656z"/>
		<path style="fill:#BABABA;" d="M41.22,315.327c-4.341,0.713-4.898,4.784-0.852,7.38c3.431,2.201,9.29,2.357,11,2.354
			c-0.026-0.303-0.046-0.597-0.069-0.896C49.66,321.659,44.781,314.742,41.22,315.327z"/>
		<path style="fill:#BABABA;" d="M127.567,296.23c-3.831-0.125-7.865,5.421-8.968,8.643c-0.095,0.279-1.082,4.813-1.012,4.807
			c0,0,0.065-0.006,0.081-0.007c-0.644,0.871-1.324,1.811-2.046,2.855c-1.318,1.938-2.789,4.139-4.227,6.646
			c-0.163,0.283-0.328,0.581-0.492,0.87c-0.072,0.695-0.131,1.115-0.131,1.115s-0.132-0.102-0.345-0.274
			c-1.132,2.036-2.264,4.228-3.285,6.602c-1.32,3.058-2.551,6.345-3.379,9.903c-0.009,0.04-0.014,0.083-0.023,0.124
			c-0.082-1.121-0.417-4.25-0.47-4.488c-0.746-3.352-4.149-9.422-7.965-9.836c-2.749-0.297-4.845,1.995-4.821,4.645
			c0.025,2.706,2.216,5.251,4.269,6.808c2.314,1.755,8.425,3.164,8.912,3.275c-0.757,3.396-1.258,6.947-1.566,10.572
			c-0.178,2.072-0.294,4.166-0.382,6.267c-0.102-0.967-0.201-1.832-0.228-1.952c-0.746-3.352-4.15-9.422-7.965-9.836
			c-2.749-0.298-4.845,1.995-4.821,4.645c0.024,2.706,2.216,5.251,4.269,6.808c2.083,1.579,7.269,2.885,8.646,3.212
			c-0.025,0.807-0.06,1.611-0.083,2.418c-0.109,3.87-0.2,7.733-0.407,11.517c-0.072,1.334-0.192,2.644-0.307,3.955
			c-0.092-0.859-0.176-1.582-0.2-1.691c-0.746-3.352-4.149-9.422-7.965-9.835c-2.749-0.298-4.845,1.995-4.821,4.645
			c0.024,2.705,2.216,5.251,4.269,6.807c1.987,1.507,6.765,2.755,8.4,3.152c-0.109,0.921-0.225,1.837-0.351,2.742
			c0.581,0.166,1.172,0.311,1.773,0.432c0.223-1.746,0.4-3.514,0.53-5.302c1.425,0.399,6.504,1.746,9.038,1.375
			c2.522-0.369,5.622-1.542,6.886-3.913c1.238-2.322,0.445-5.365-2.114-6.444c-3.551-1.498-9.337,2.188-11.533,4.777
			c-0.137,0.161-1.501,2.199-2.229,3.334c0.085-1.307,0.177-2.61,0.22-3.935c0.125-3.825,0.132-7.703,0.157-11.57
			c0.007-1.185,0.028-2.365,0.045-3.547c0.505,0.148,6.51,1.878,9.348,1.463c2.522-0.369,5.622-1.542,6.886-3.913
			c1.238-2.322,0.444-5.365-2.114-6.444c-3.55-1.498-9.337,2.188-11.532,4.776c-0.165,0.195-2.124,3.131-2.585,3.902
			c0.038-2.602,0.099-5.195,0.264-7.746c0.222-3.521,0.635-6.961,1.281-10.259c0.235,0.069,6.495,1.904,9.401,1.478
			c2.522-0.369,5.622-1.542,6.886-3.913c1.238-2.322,0.444-5.365-2.114-6.444c-3.551-1.498-9.337,2.188-11.533,4.776
			c-0.173,0.204-2.278,3.363-2.619,3.963c0.039-0.196,0.058-0.404,0.099-0.599c0.736-3.512,1.89-6.815,3.123-9.851
			c0.713-1.766,1.494-3.413,2.291-4.997c1.132,0.461,6.331,2.509,8.994,2.416c2.552-0.089,5.767-0.912,7.286-3.126
			c1.488-2.168,1.031-5.274-1.397-6.626c-3.371-1.876-9.537,1.145-12.007,3.472c-0.134,0.126-1.355,1.567-2.23,2.628
			c0.37-0.709,0.74-1.448,1.108-2.121c1.377-2.527,2.795-4.755,4.068-6.717c0.733-1.11,1.417-2.098,2.067-3.016
			c1.338-0.124,6.722-0.693,8.982-1.98c2.205-1.256,4.655-3.475,4.972-6.157C132.16,298.89,130.327,296.32,127.567,296.23z"/>
		<path style="fill:#BABABA;" d="M74.978,378.786c0.257,0.515,0.513,1.03,0.766,1.545c0.578-0.195,1.148-0.384,1.707-0.564
			c-0.65-1.288-1.324-2.572-2.035-3.851c1.396-0.45,6.33-2.118,8.216-3.829c1.878-1.703,3.788-4.403,3.524-7.1
			c-0.259-2.641-2.592-4.768-5.298-4.265c-3.756,0.697-6.498,6.997-6.882,10.392c-0.024,0.212-0.026,2.683,0,4.041
			c-0.65-1.148-1.294-2.297-1.989-3.438c-2.007-3.293-4.139-6.566-6.252-9.84c-0.648-1.003-1.281-2.009-1.919-3.014
			c0.499-0.154,6.408-2.01,8.52-3.927c1.878-1.703,3.788-4.403,3.524-7.099c-0.259-2.64-2.592-4.768-5.298-4.265
			c-3.756,0.697-6.498,6.998-6.882,10.392c-0.029,0.256-0.026,3.811,0.019,4.716c-1.404-2.214-2.783-4.434-4.055-6.676
			c-1.759-3.091-3.315-6.218-4.601-9.356c0.232-0.071,6.409-1.98,8.573-3.943c1.878-1.703,3.789-4.403,3.524-7.099
			c-0.259-2.641-2.592-4.768-5.298-4.266c-3.756,0.697-6.497,6.997-6.882,10.391c-0.03,0.267-0.025,4.092,0.025,4.786
			c-0.076-0.187-0.175-0.372-0.249-0.559c-1.33-3.367-2.199-6.787-2.856-10.028c-0.385-1.882-0.649-3.702-0.866-5.477
			c1.189-0.237,6.608-1.379,8.754-2.928c2.057-1.484,4.256-3.952,4.288-6.657c0.032-2.648-2.058-5.016-4.807-4.814
			c-3.816,0.279-7.238,6.229-7.993,9.554c-0.041,0.181-0.255,2.069-0.391,3.446c0,0-0.189,0.005-0.496,0.006
			c0.188,2.221,0.457,4.557,0.897,6.973c0.598,3.306,1.395,6.757,2.674,10.213c0.015,0.039,0.035,0.078,0.049,0.117
			c-0.686-0.899-2.688-3.352-2.862-3.523c-2.464-2.414-8.621-5.652-11.997-3.895c-2.432,1.267-2.898,4.356-1.417,6.577
			c1.513,2.267,4.725,3.204,7.277,3.383c2.878,0.202,8.697-1.983,9.16-2.158c1.248,3.281,2.794,6.551,4.539,9.776
			c0.995,1.845,2.055,3.674,3.141,5.494c-0.618-0.759-1.176-1.433-1.264-1.52c-2.464-2.414-8.621-5.652-11.997-3.895
			c-2.433,1.266-2.898,4.356-1.416,6.576c1.512,2.268,4.725,3.204,7.277,3.383c2.589,0.181,7.589-1.581,8.906-2.065
			c0.424,0.694,0.839,1.392,1.265,2.084c2.045,3.323,4.1,6.63,6.017,9.933c0.676,1.164,1.299,2.334,1.928,3.503
			c-0.55-0.674-1.018-1.237-1.099-1.315c-2.464-2.414-8.62-5.652-11.997-3.895c-2.432,1.266-2.898,4.356-1.417,6.576
			c1.513,2.267,4.725,3.204,7.277,3.382C68.78,380.938,73.41,379.354,74.978,378.786z"/>
		<path style="fill:#BABABA;" d="M108.662,306.893c-3.816-2.188-6.82,0.616-5.321,5.185c1.284,3.914,5.812,7.778,7.086,8.807
			c0.159-0.286,0.317-0.561,0.476-0.841C111.216,317.004,111.768,308.674,108.662,306.893z"/>
	</g>
	<g>
		<path style="fill:#BABABA;" d="M339.308,465.561c-4.219,0.106-8.308,6.501-9.318,10.137c-0.054,0.194-0.377,2.185-0.6,3.689
			c1.992,0.18,3.982,0.327,5.968,0.428c1.516-0.42,2.972-0.937,3.905-1.546c2.345-1.531,4.9-4.143,5.081-7.131
			C344.522,468.211,342.348,465.485,339.308,465.561z"/>
		<path style="fill:#BABABA;" d="M302.891,408.958c-4.859,0.021-6.178,4.365-2.215,7.903c3.359,2.999,9.724,4.191,11.589,4.485
			c0.025-0.335,0.053-0.659,0.081-0.989C310.994,417.337,306.877,408.941,302.891,408.958z"/>
		<path style="fill:#BABABA;" d="M381.154,464.838c1.755-2.317,1.42-5.775-1.183-7.397c-3.612-2.253-10.566,0.759-13.413,3.2
			c-0.215,0.184-2.863,3.045-3.5,3.806c0.495-2.832,1.014-5.65,1.638-8.404c0.856-3.803,1.906-7.483,3.186-10.968
			c0.245,0.117,6.753,3.208,9.998,3.251c2.816,0.037,6.402-0.702,8.194-3.069c1.755-2.317,1.42-5.775-1.183-7.398
			c-3.612-2.253-10.566,0.759-13.413,3.2c-0.224,0.192-3.071,3.271-3.548,3.867c0.077-0.207,0.134-0.43,0.212-0.636
			c1.415-3.703,3.25-7.104,5.124-10.202c1.086-1.802,2.225-3.462,3.37-5.052c1.155,0.7,6.469,3.84,9.39,4.203
			c2.8,0.348,6.45,0.01,8.493-2.14c2-2.105,2.044-5.574-0.37-7.472c-3.35-2.634-10.603-0.413-13.704,1.694
			c-0.168,0.115-1.752,1.473-2.891,2.478c0.528-0.709,1.059-1.451,1.578-2.12c1.943-2.517,3.878-4.7,5.608-6.618
			c0.993-1.083,1.912-2.042,2.781-2.93c1.481,0.098,7.454,0.415,10.143-0.595c2.624-0.986,5.684-2.98,6.497-5.85
			c0.796-2.811-0.755-5.933-3.75-6.512c-4.157-0.804-9.525,4.543-11.289,7.866c-0.152,0.287-2.02,5.061-1.942,5.067
			c0,0,0.072,0.005,0.09,0.006c-0.854,0.837-1.76,1.745-2.729,2.757c-1.775,1.884-3.764,4.029-5.77,6.513
			c-0.227,0.28-0.459,0.576-0.689,0.863c-0.199,0.746-0.337,1.193-0.337,1.193s-0.126-0.134-0.329-0.359
			c-1.59,2.023-3.207,4.217-4.734,6.629c-1.973,3.106-3.889,6.477-5.412,10.214c-0.017,0.042-0.03,0.089-0.047,0.131
			c0.106-1.237,0.286-4.709,0.27-4.977c-0.229-3.786-2.884-11.001-6.974-12.118c-2.947-0.804-5.633,1.332-6.069,4.227
			c-0.444,2.956,1.502,6.115,3.47,8.17c2.219,2.317,8.639,4.92,9.151,5.126c-1.418,3.573-2.583,7.359-3.551,11.26
			c-0.556,2.229-1.046,4.493-1.509,6.77c0.057-1.073,0.1-2.033,0.092-2.169c-0.23-3.786-2.885-11.001-6.974-12.117
			c-2.947-0.804-5.633,1.332-6.069,4.226c-0.445,2.956,1.502,6.115,3.47,8.17c1.997,2.085,7.427,4.414,8.872,5.011
			c-0.169,0.875-0.347,1.747-0.512,2.623c-0.679,3.595-1.355,7.174-2.087,10.698c0.599-0.079,1.199-0.16,1.796-0.248
			c0.615-3.369,1.184-6.767,1.75-10.166c0.214-1.292,0.443-2.575,0.667-3.861c0.526,0.249,6.774,3.183,9.943,3.225
			C375.776,467.944,379.362,467.204,381.154,464.838z"/>
		<path style="fill:#BABABA;" d="M377.932,411.513c-3.781-3.052-7.546-0.517-6.708,4.728c0.718,4.494,4.985,9.498,6.195,10.842
			c0.223-0.284,0.444-0.557,0.666-0.835C378.955,422.988,381.009,413.997,377.932,411.513z"/>
		<path style="fill:#BABABA;" d="M312.947,418.765c0.223-3.198,0.623-6.11,0.998-8.686c0.225-1.463,0.458-2.78,0.688-4.011
			c1.276-0.74,6.382-3.785,8.048-6.128c1.626-2.286,3.058-5.663,2.155-8.532c-0.885-2.809-3.879-4.58-6.67-3.406
			c-3.874,1.629-5.371,9.111-5.005,12.889c0.032,0.327,1.11,5.384,1.177,5.346c0,0,0.062-0.036,0.077-0.045
			c-0.246,1.179-0.495,2.447-0.74,3.837c-0.432,2.572-0.897,5.482-1.19,8.688c-0.05,0.535-0.095,1.09-0.14,1.64
			c0.296,0.662,0.462,1.069,0.462,1.069C312.854,420.536,312.886,419.616,312.947,418.765z"/>
		<path style="fill:#BABABA;" d="M314.197,472.831c-1.825,0.608-2.905,2.157-3.142,3.892c5.163,1.016,10.335,1.823,15.497,2.381
			C324.247,476.042,318.158,471.512,314.197,472.831z"/>
		<path style="fill:#BABABA;" d="M350.518,471.016c-2.947-0.804-5.633,1.332-6.069,4.227c-0.239,1.586,0.222,3.226,0.994,4.727
			c3.776-0.081,7.531-0.332,11.259-0.754C355.601,475.681,353.425,471.809,350.518,471.016z"/>
		<path style="fill:#BABABA;" d="M327.715,476.008c-1.615-3.942-3.37-7.884-5.105-11.824c-0.532-1.207-1.047-2.415-1.568-3.623
			c0.571-0.082,7.341-1.076,9.979-2.798c2.346-1.531,4.9-4.143,5.082-7.13c0.177-2.925-1.997-5.653-5.036-5.576
			c-4.219,0.106-8.308,6.501-9.319,10.137c-0.076,0.274-0.693,4.153-0.801,5.148c-1.146-2.66-2.263-5.322-3.26-7.989
			c-1.38-3.678-2.533-7.361-3.388-11.008c0.266-0.037,7.336-1.043,10.039-2.807c2.346-1.53,4.9-4.142,5.082-7.13
			c0.178-2.926-1.997-5.653-5.036-5.577c-4.219,0.106-8.307,6.501-9.318,10.136c-0.08,0.286-0.741,4.46-0.807,5.226
			c-0.05-0.217-0.126-0.437-0.174-0.654c-0.864-3.904-1.216-7.788-1.367-11.437c-0.092-2.121-0.063-4.151,0.01-6.125
			c1.338-0.051,7.449-0.353,10.06-1.668c2.502-1.26,5.331-3.569,5.838-6.514c0.496-2.883-1.371-5.83-4.405-6.09
			c-4.212-0.361-8.981,5.533-10.385,9.029c-0.076,0.19-0.638,2.212-1.027,3.691c0,0-0.207-0.027-0.542-0.08
			c-0.182,2.455-0.296,5.05-0.237,7.763c0.076,3.711,0.343,7.614,1.136,11.607c0.009,0.045,0.024,0.091,0.033,0.136
			c-0.592-1.101-2.348-4.125-2.508-4.342c-2.267-3.063-8.419-7.668-12.408-6.34c-2.874,0.958-3.92,4.247-2.692,6.927
			c1.255,2.737,4.596,4.318,7.349,4.958c3.104,0.722,9.833-0.647,10.368-0.758c0.79,3.797,1.906,7.633,3.247,11.456
			c0.764,2.186,1.602,4.366,2.468,6.541c-0.542-0.936-1.033-1.769-1.114-1.878c-2.268-3.063-8.419-7.668-12.408-6.34
			c-2.874,0.957-3.92,4.247-2.691,6.927c1.254,2.737,4.596,4.319,7.348,4.958c2.793,0.649,8.555-0.401,10.076-0.7
			c0.341,0.831,0.672,1.664,1.017,2.494c1.652,3.981,3.317,7.947,4.832,11.885c0.323,0.839,0.623,1.676,0.918,2.513
			c0.668,0.07,1.336,0.136,2.004,0.198C328.588,478.236,328.171,477.122,327.715,476.008z"/>
	</g>
</g>
<g id="Gears">
	<g>
		<path id="XMLID_11_" style="fill:none;stroke:#000000;stroke-miterlimit:10;" d="M325.145,161.624l0.657,3.951l4.395,0.385
			l1.326-3.741c1.47-0.132,2.887-0.444,4.23-0.916l2.773,2.818l3.821-2.206l-1.049-3.8c1.105-0.94,2.092-2.015,2.935-3.199
			l3.882,0.716l1.865-3.999l-3.045-2.515c0.352-1.373,0.54-2.811,0.547-4.292l3.619-1.649l-0.766-4.345l-3.992-0.31
			c-0.512-1.349-1.186-2.617-1.998-3.783l2.058-3.476l-3.12-3.12l-3.504,2.08c-1.978-1.343-4.247-2.287-6.69-2.73l-1.013-4.002
			h-4.412l-1.016,4.028c-1.387,0.263-2.716,0.691-3.967,1.26l-3.154-2.73l-3.614,2.531l1.49,3.903
			c-0.968,0.989-1.82,2.092-2.534,3.288l-4.154-0.428l-1.509,4.146l3.439,2.333c-0.16,0.953-0.248,1.93-0.248,2.929
			c0,0.417,0.02,0.83,0.048,1.24l-3.618,2.02l1.142,4.262l4.096-0.053c0.606,1.286,1.363,2.486,2.249,3.577l-1.768,3.673l3.38,2.836
			l3.275-2.346 M339.537,139.338c0.903,1.598,1.418,3.444,1.418,5.411c0,6.084-4.932,11.016-11.016,11.016
			c-6.084,0-11.016-4.932-11.016-11.016c0-6.084,4.932-11.016,11.016-11.016c0.538,0,1.066,0.038,1.583,0.113 M335.246,135.093
			c0.851,0.469,1.633,1.046,2.328,1.715"/>
		<path id="XMLID_4_" style="fill:none;stroke:#000000;stroke-miterlimit:10;" d="M335.565,386.864l0.657,3.951l4.395,0.385
			l1.326-3.741c1.47-0.132,2.887-0.444,4.23-0.916l2.773,2.818l3.821-2.206l-1.049-3.8c1.105-0.94,2.091-2.015,2.935-3.199
			l3.882,0.716l1.865-3.999l-3.045-2.514c0.352-1.373,0.54-2.811,0.547-4.293l3.619-1.649l-0.766-4.345l-3.992-0.31
			c-0.512-1.349-1.186-2.617-1.998-3.783l2.058-3.476l-3.12-3.12l-3.504,2.08c-1.978-1.343-4.247-2.287-6.69-2.73l-1.013-4.002
			h-4.412l-1.016,4.028c-1.388,0.264-2.716,0.691-3.967,1.26l-3.154-2.73l-3.614,2.531l1.49,3.903
			c-0.968,0.989-1.82,2.092-2.534,3.288l-4.154-0.428l-1.509,4.146l3.439,2.333c-0.16,0.953-0.248,1.93-0.248,2.929
			c0,0.417,0.02,0.83,0.048,1.24l-3.618,2.02l1.142,4.262l4.096-0.053c0.606,1.286,1.363,2.486,2.249,3.577l-1.768,3.673l3.38,2.836
			l3.275-2.346 M349.957,364.578c0.903,1.598,1.418,3.444,1.418,5.41c0,6.084-4.932,11.016-11.016,11.016
			c-6.084,0-11.016-4.932-11.016-11.016c0-6.084,4.932-11.016,11.016-11.016c0.538,0,1.066,0.039,1.583,0.113 M345.667,360.333
			c0.851,0.469,1.633,1.046,2.328,1.714"/>
		<path id="XMLID_8_" style="fill:none;stroke:#000000;stroke-miterlimit:10;" d="M356.972,114.243l0.577,1.513
			c-0.29,0.296-0.569,0.602-0.837,0.917 M355.242,118.675c-0.077,0.122-0.152,0.245-0.226,0.368l-4.154-0.428l-1.509,4.146
			l3.439,2.333c-0.16,0.953-0.248,1.93-0.248,2.929c0,0.417,0.02,0.83,0.048,1.24l-3.618,2.02l1.142,4.262l4.096-0.053
			c0.606,1.286,1.363,2.486,2.249,3.577l-1.768,3.674l3.38,2.836l3.275-2.346c1.229,0.708,2.552,1.271,3.945,1.666l0.657,3.951
			l4.395,0.385l1.326-3.741c1.47-0.132,2.887-0.444,4.23-0.916l2.773,2.818l3.821-2.206l-1.049-3.8
			c1.105-0.94,2.092-2.015,2.935-3.2l3.882,0.716l1.865-3.999l-3.045-2.514c0.352-1.373,0.541-2.811,0.547-4.292l3.619-1.649
			l-0.766-4.345l-3.992-0.31c-0.512-1.349-1.186-2.617-1.998-3.783l2.058-3.476l-3.12-3.12l-3.504,2.08
			c-1.978-1.343-4.247-2.287-6.69-2.73l-1.013-4.002h-4.412l-1.016,4.028c-1.388,0.264-2.716,0.691-3.967,1.26l-3.154-2.73
			l-3.614,2.531l0.456,1.194 M380.869,130.294c-0.154,0.733-0.38,1.439-0.671,2.111 M379.374,133.951
			c-1.957,3.059-5.385,5.088-9.286,5.088c-6.084,0-11.016-4.932-11.016-11.016c0-6.084,4.932-11.016,11.016-11.016
			s11.016,4.932,11.016,11.016c0,0.27-0.01,0.537-0.029,0.802"/>
		<path id="XMLID_1_" style="fill:none;stroke:#000000;stroke-miterlimit:10;" d="M93.227,250.291l-3.304,6.866l6.317,5.3
			l6.121-4.384c2.298,1.323,4.769,2.375,7.374,3.113l1.227,7.384l8.214,0.719l2.477-6.992c2.747-0.246,5.396-0.83,7.906-1.712
			l5.183,5.267l7.141-4.123l-1.961-7.102c2.066-1.758,3.909-3.766,5.486-5.98l7.255,1.338l3.485-7.473l-5.691-4.699
			c0.658-2.566,1.01-5.254,1.022-8.023l6.764-3.082l-1.432-8.121l-7.462-0.579c-0.958-2.521-2.217-4.891-3.734-7.071l3.847-6.497
			l-5.831-5.831l-6.549,3.888c-3.697-2.509-7.937-4.275-12.503-5.102l-1.893-7.48h-8.246l-1.898,7.527
			c-2.593,0.493-5.077,1.291-7.415,2.355l-5.895-5.102l-6.755,4.73l2.784,7.295c-1.81,1.849-3.403,3.91-4.737,6.145l-7.763-0.8
			l-2.82,7.748l6.427,4.36c-0.299,1.781-0.464,3.608-0.464,5.474c0,0.78,0.037,1.551,0.09,2.317l-6.762,3.775l2.134,7.965
			l7.655-0.099c0.855,1.815,1.872,3.539,3.033,5.154 M111.803,210.24c0.888-0.315,1.804-0.572,2.743-0.764 M119.632,209.079
			c10.936,0.489,19.652,9.51,19.652,20.567c0,11.371-9.218,20.588-20.588,20.588c-11.371,0-20.588-9.218-20.588-20.588
			c0-8.39,5.019-15.608,12.218-18.816"/>
	</g>
</g>
<g id="Light_Bulb">
	<g>
		<g>
			
				<line style="fill:none;stroke:#263238;stroke-width:3;stroke-linecap:round;stroke-linejoin:round;stroke-miterlimit:10;" x1="198.875" y1="228.09" x2="190.704" y2="222.807"/>
			
				<line style="fill:none;stroke:#263238;stroke-width:3;stroke-linecap:round;stroke-linejoin:round;stroke-miterlimit:10;" x1="213.09" y1="212.208" x2="210.969" y2="210.443"/>
			
				<line style="fill:none;stroke:#263238;stroke-width:3;stroke-linecap:round;stroke-linejoin:round;stroke-miterlimit:10;" x1="189.206" y1="258.767" x2="172.276" y2="254.534"/>
			<g>
				<g>
					<path style="fill:#92E3A9;" d="M280.71,362.825c-0.125,0-0.25-0.016-0.374-0.047c-0.39-0.101-0.724-0.354-0.925-0.703
						c-0.525-0.909-0.805-1.393,3.419-6.232c-9.101,5.569-10.074,5.336-10.603,5.207c-0.4-0.096-0.825-0.405-1.03-0.762
						c-0.838-1.451-1.004-1.736,15.841-15.521c-2.698,1.757-5.509,3.632-8.007,5.298c-14.825,9.89-19.432,12.696-21.474,12.222
						c-0.512-0.119-0.933-0.427-1.185-0.864c-0.901-1.559-0.901-1.559,18.963-15.938c1.275-0.924,2.6-1.884,3.932-2.849
						c-2.292,1.537-4.583,3.096-6.682,4.523c-15.661,10.653-22.798,15.254-25.466,14.648c-0.573-0.131-1.043-0.47-1.322-0.954
						c-0.976-1.691-1.192-2.069,27.746-21.734l-38.057,21.972c-0.718,0.416-1.634,0.169-2.049-0.549
						c-0.669-1.159-0.145-2.578,2.607-5.012c-4.383,2.518-6.925,3.534-8.176,3.236c-0.544-0.128-0.99-0.451-1.256-0.911
						c-0.829-1.435-0.51-2.77,10.084-9.89c-10.925,6.83-14.952,8.847-16.523,8.474c-0.485-0.117-0.885-0.411-1.125-0.827
						c-0.727-1.256-0.051-1.701,2.461-3.357c1.297-0.855,3.185-2.086,5.535-3.61c2.386-1.549,5.249-3.401,8.455-5.473
						c-9.322,4.842-10.715,4.506-11.493,4.318c-0.554-0.134-1.006-0.461-1.271-0.921c-0.411-0.712-0.173-1.621,0.534-2.04
						c29.349-17.395,74.661-45.307,85.586-54.542c-10.897,4.95-43.45,25.177-62.038,36.726
						c-23.889,14.843-23.995,14.814-25.016,14.557c-0.394-0.099-0.749-0.365-0.952-0.717c-0.812-1.406-0.771-2.304,8.79-8.226
						c-4.395,2.07-7.298,3.014-8.579,2.698c-0.585-0.144-1.061-0.489-1.34-0.972c-0.401-0.695-0.184-1.584,0.494-2.016
						c29.623-18.867,71.289-45.585,88.285-56.878c-4.725,2.41-11.077,6.032-18.137,10.227c-5.714,3.671-12.481,7.945-20.486,12.927
						c-10.586,6.588-21.281,13.12-30.191,18.52c-21.524,13.573-21.779,13.513-22.829,13.256c-0.397-0.098-0.766-0.373-0.97-0.727
						c-0.411-0.711-0.173-1.62,0.532-2.039c6.48-3.853,13.637-8.147,21.059-12.643c1.279-0.807,2.583-1.63,3.898-2.46
						c-15.54,8.889-24.13,12.776-26.664,12.159c-0.794-0.192-1.206-0.659-1.413-1.017c-0.927-1.605,0.399-3.64,11.355-10.806
						c-7.069,4.314-9.87,5.596-11.061,5.303c-0.47-0.112-0.857-0.398-1.091-0.803c-0.629-1.089-1.143-1.978,6.184-7.31
						c-3.942,1.98-6.434,2.813-7.626,2.524c-0.566-0.138-1.028-0.474-1.301-0.946c-0.2-0.346-0.253-0.758-0.149-1.143
						c0.105-0.386,0.359-0.714,0.706-0.911c32.445-18.452,81.582-47.668,96.549-59.46c-16.413,9.057-61.649,35.622-93.218,54.34
						c-0.345,0.204-0.758,0.261-1.145,0.161c-0.388-0.102-0.719-0.354-0.919-0.701c-0.213-0.369-0.419-0.984-0.193-1.818
						c0.221-0.809,1.077-1.92,2.467-3.281c-2.331,0.951-3.891,1.296-4.783,1.077c-0.576-0.142-1.044-0.483-1.32-0.961
						c-0.896-1.552,0.821-2.746,3.421-4.555c1.949-1.356,4.824-3.222,8.788-5.702c7.386-4.622,17.53-10.739,28.27-17.216
						c12.066-7.275,26.413-15.927,37.795-23.089c-24.364,14.038-62.747,36.423-81.18,47.202c-0.345,0.201-0.757,0.255-1.142,0.155
						c-0.386-0.103-0.715-0.355-0.915-0.7c-0.773-1.339-1.005-1.737,12.251-10.072c-5.193,2.855-8.469,4.075-10.135,3.688
						c-0.851-0.197-1.296-0.7-1.52-1.088c-0.991-1.716-0.991-1.716,23.056-15.688c11.129-6.466,24.413-14.185,36.631-21.605
						c10.259-6.817,18.288-12.011,24.381-15.601c5.009-3.497,7.666-5.693,9.067-7.059c-12.485,5.61-61.811,35.432-93.04,54.831
						c-0.7,0.434-1.623,0.222-2.062-0.477c-0.439-0.698-0.231-1.621,0.465-2.063c3.106-1.975,6.347-4.037,9.676-6.156
						c-8.037,4.107-10.972,4.798-12.232,4.484c-0.582-0.142-1.056-0.484-1.332-0.964c-0.401-0.694-0.185-1.581,0.49-2.014
						c5.518-3.532,12.984-8.317,21.31-13.661c-17.416,9.838-18.824,9.489-19.689,9.273c-0.473-0.118-0.861-0.405-1.094-0.81
						c-0.406-0.702-0.18-1.6,0.51-2.025c22.462-13.89,54.369-34.036,73.034-46.604c-15.048,8.666-36.98,21.549-52.436,30.627
						c-6.852,4.024-12.846,7.545-17.142,10.056c-3.816,2.23-5.666,3.311-6.656,3.811c-0.162,0.101-0.251,0.155-0.264,0.164
						l-0.016-0.027c-0.692,0.324-0.859,0.279-1.153,0.202c-0.58-0.152-1.014-0.636-1.103-1.229
						c-0.089-0.593,0.184-1.183,0.694-1.498c23.82-14.723,59-36.932,74.761-47.846c-8.388,4.855-20.92,12.847-31.034,19.297
						c-28.26,18.022-36.849,23.178-39.335,22.56c-0.493-0.12-0.898-0.419-1.142-0.84c-0.626-1.085-1.074-1.859,8.322-8.626
						c-2.564,1.128-4.294,1.557-5.303,1.315c-0.603-0.145-1.093-0.5-1.382-1c-0.403-0.698-0.183-1.59,0.5-2.02
						c18.452-11.608,46.487-29.813,56.128-37.338c-8.438,4.127-26.853,15.968-37.697,22.941
						c-17.637,11.341-18.322,11.62-19.429,11.351c-0.398-0.096-0.779-0.378-0.984-0.733c-0.793-1.373-1.494-2.591,15.839-14.513
						c-2.137,1.364-4.328,2.771-6.562,4.214c-0.302,0.195-0.714,0.463-1.343,0.31c-0.398-0.097-0.739-0.352-0.944-0.708
						c-1.069-1.852,0.473-3.442,12.641-12.771c-0.456-0.104-0.833-0.38-1.063-0.779c-0.415-0.717-0.169-1.635,0.549-2.049
						c0.29-0.167,0.613-0.228,0.92-0.191c0.866-0.413,3.078-1.966,4.587-3.026c4.874-3.422,6.257-4.249,7.454-3.983
						c0.477,0.105,0.872,0.392,1.111,0.807c0.863,1.496,0.197,2.401-8.011,8.744c2.274-1.419,4.626-2.874,6.975-4.311
						c23.122-14.146,24.907-13.725,25.974-13.466c0.497,0.12,0.904,0.418,1.147,0.84c0.404,0.7,0.182,1.594-0.504,2.022
						c-11.275,7.04-23.013,14.586-32.823,21.131c22.817-14.574,33.788-20.962,36.871-20.225c0.561,0.136,1.02,0.47,1.291,0.939
						c0.956,1.655,1.646,2.852-29.925,23.635c-1.514,0.997-3.032,1.992-4.538,2.975c6.352-4.008,12.8-8.193,18.034-11.59
						c20.257-13.147,23.529-15.072,25.063-14.711c0.443,0.107,0.811,0.378,1.033,0.765c0.401,0.695,0.185,1.583-0.493,2.015
						c-19.577,12.475-48.182,31.104-62.316,41.119c7.593-4.485,18.367-11.356,27.742-17.335
						c29.736-18.963,39.432-24.749,42.172-24.085c0.512,0.125,0.932,0.433,1.182,0.867c0.735,1.274,1.256,2.173-16.133,13.781
						c24.374-14.144,24.839-14.026,25.617-13.821c0.387,0.102,0.731,0.364,0.932,0.71c0.998,1.728,1.719,2.978-44.267,32.381
						c-3.338,2.134-6.689,4.266-9.971,6.346c18.205-10.763,39.888-24.02,56.327-34.256c0.346-0.215,0.765-0.28,1.156-0.182
						c0.395,0.098,0.732,0.353,0.936,0.705c0.717,1.24-0.333,1.974-1.444,2.751c-0.68,0.475-1.686,1.157-2.971,2.015
						c-2.42,1.615-5.992,3.961-10.616,6.975c-7.782,5.072-18.655,12.105-32.317,20.903c-13.156,8.472-26.42,16.985-35.504,22.811
						c11.943-6.316,35.287-20.069,80.345-48.787c6.483-4.131,6.485-4.132,7.145-3.973c0.398,0.097,0.739,0.353,0.944,0.708
						c0.371,0.642,0.581,1.006-0.617,2.07l0.005,0.01c-0.013,0.007-0.029,0.017-0.05,0.029c-1.597,1.4-5.579,3.994-14.654,9.905
						c12.862-7.057,14.063-6.759,14.84-6.566c0.47,0.118,0.856,0.405,1.089,0.807c0.539,0.934,0.673,2.067-1.328,4.305
						c1.02-0.259,1.825-0.317,2.436-0.174c0.88,0.204,1.339,0.723,1.569,1.122c0.995,1.723,1.504,2.607-28.205,21.339
						c31.456-18.212,31.765-18.133,32.522-17.938c0.386,0.102,0.72,0.357,0.919,0.702c0.956,1.656-0.802,3.333-5.102,6.469
						c-2.768,2.017-6.68,4.642-11.925,7.998c17.477-10.902,21.852-13.166,23.419-12.782c0.456,0.112,0.832,0.391,1.06,0.786
						c0.2,0.347,0.254,0.758,0.149,1.144c-0.106,0.386-0.36,0.714-0.708,0.911c-10.203,5.78-20.573,11.767-30.595,17.664
						c-3.453,2.177-6.963,4.398-10.383,6.563c-20.403,12.914-35.298,22.209-45.747,28.29c-3.311,2.263-6.144,4.285-8.408,6.018
						c9.296-5.496,25.141-14.847,40.946-24.097c50.004-29.263,50.758-29.058,51.715-28.808c0.388,0.102,0.74,0.369,0.94,0.716
						c0.201,0.348,0.396,0.926,0.185,1.703c-0.12,0.442-0.296,1.09-1.628,2.482c3.435-1.71,5.581-2.412,6.637-2.154
						c0.542,0.132,0.984,0.455,1.247,0.91c0.797,1.381-0.327,2.128-2.792,3.765c-1.491,0.99-3.696,2.394-6.74,4.29
						c-0.196,0.122-0.395,0.245-0.595,0.37c4.666-2.232,7.934-3.275,9.572-2.883c0.912,0.219,1.385,0.751,1.62,1.159
						c1.38,2.391-0.027,3.902-48.793,32.762c-20.432,12.092-47.507,28.115-54.884,34.069c4.07-1.428,14.209-6.329,39.405-21.574
						c20.538-12.427,43.164-26.936,54.038-33.909c7.531-4.829,7.527-4.822,8.198-4.659c0.397,0.098,0.739,0.354,0.943,0.708
						c0.61,1.056,1.23,2.131-6.953,8.255c1.736-0.606,2.968-0.818,3.703-0.64c0.588,0.146,1.065,0.492,1.346,0.977
						c0.878,1.524,0.878,1.524-15.3,12.125c-7.963,5.218-19.102,12.43-33.105,21.434c-13.494,8.678-27.108,17.385-36.426,23.335
						c18.874-10.119,54.256-32.56,69.986-42.537c13.958-8.853,13.962-8.854,14.759-8.655c0.398,0.098,0.741,0.356,0.945,0.71
						c1.069,1.852-0.632,4.491-7.216,9.384c0.229-0.012,0.424,0.002,0.584,0.042c0.513,0.129,0.933,0.438,1.182,0.87
						c1.051,1.819,2.239,3.878-42.142,31.673c12.765-7.859,25.981-16.228,36.693-23.152c0.347-0.223,0.771-0.294,1.167-0.198
						c0.399,0.097,0.742,0.353,0.947,0.709c0.734,1.275-0.281,1.998-1.965,3.196c-1.004,0.714-2.515,1.749-4.489,3.076
						c-1.992,1.338-4.445,2.967-7.411,4.92c4.143-2.108,6.696-2.95,7.979-2.638c0.589,0.142,1.068,0.489,1.35,0.978
						c0.841,1.455,0.654,2.049-9.475,8.541c2.134-0.901,3.645-1.236,4.612-1.013c0.635,0.149,1.152,0.522,1.456,1.048
						c1.18,2.042,0.288,2.935-26.815,19.349c-7.759,4.699-17.525,10.613-25.436,15.714l53.206-30.718
						c0.345-0.199,0.753-0.255,1.139-0.15c0.384,0.103,0.712,0.355,0.91,0.699c0.739,1.281-0.311,2.054-2.049,3.333
						c-1.049,0.772-2.589,1.86-4.706,3.325c-3.952,2.733-9.439,6.449-15.249,10.383c-6.776,4.589-15.298,10.358-22.274,15.207
						c3.209-2.123,6.548-4.395,9.518-6.414c15.468-10.521,22.029-14.733,24.549-14.167c0.559,0.128,1.017,0.459,1.289,0.932
						c0.874,1.512,0.915,1.585-16.83,14.436c12.878-8.556,17.081-10.998,19.004-10.568c0.513,0.12,0.935,0.428,1.188,0.866
						c0.707,1.226,0.707,1.226-8.247,8.533c-2.698,2.202-6.448,5.262-9.834,8.088c2.744-1.689,5.766-3.604,8.634-5.47
						c0.347-0.226,0.77-0.297,1.168-0.202c0.4,0.097,0.744,0.352,0.95,0.71c0.564,0.979,0.351,1.209-1.696,3.407
						c-1.668,1.791-3.105,3.357-4.311,4.697c9.081-5.407,9.407-5.321,10.047-5.156c0.39,0.101,0.733,0.36,0.935,0.709
						c0.414,0.718,0.169,1.635-0.549,2.049c-0.152,0.088-0.313,0.147-0.477,0.177c-1.326,0.597-8.72,4.955-15.229,8.891
						C281.25,362.752,280.981,362.825,280.71,362.825z M295.145,352.996c0.176,0.303,0.42,0.498,0.676,0.612
						C295.546,353.483,295.308,353.275,295.145,352.996z M258.222,337.73c-8.637,5.386-17.139,10.792-22.683,14.636
						C241.571,348.782,250.327,342.984,258.222,337.73z M295.411,311.104c-9.81,5.439-25.678,15.66-37.744,23.45
						c4.446-2.772,9.503-5.901,15.254-9.443C280.839,320.235,289.366,314.983,295.411,311.104z M294.773,318.08
						c-5.338,2.845-13.421,7.982-21.313,13.153c0.273-0.166,0.548-0.332,0.825-0.5C281.659,326.268,289.663,321.421,294.773,318.08z
						 M245.597,295.645c-6.56,4.125-12.64,8.017-17.616,11.319C233.179,303.692,239.325,299.718,245.597,295.645z M316.791,256.306
						c-2.898,0.971-9.05,3.807-22.059,11.617c-12.896,7.743-28.775,18.065-42.784,27.173c-6.106,3.969-11.251,7.302-15.591,10.087
						c8.424-5.179,19.738-11.95,34.841-20.888C289.644,273.379,310.195,261.216,316.791,256.306z M307.395,285.654
						c-0.69,0.439-1.395,0.886-2.111,1.34c-7.004,4.442-13.643,8.634-19.891,12.55C293.74,294.526,301.625,289.62,307.395,285.654z
						 M241.079,278.976c-9.173,5.545-18.082,10.972-23.944,14.736c2.954-1.531,6.603-3.582,10.689-5.97
						C231.784,285.013,236.272,282.054,241.079,278.976z M264.564,252.561c-3.84,2.554-7.629,5.095-11.168,7.47
						c-7.033,4.718-13.212,8.841-18.605,12.374c1.744-1.075,3.577-2.206,5.51-3.397c20.246-12.482,49.493-30.513,58.085-37.059
						c-2.203,0.896-5.405,2.625-9.227,4.885c-3.419,2.388-7.768,5.259-13.277,8.734
						C272.286,247.837,268.479,250.185,264.564,252.561z M219.051,216.529C219.051,216.529,219.051,216.529,219.051,216.529
						C219.051,216.529,219.051,216.529,219.051,216.529z"/>
				</g>
			</g>
			<g style="opacity:0.4;">
				<g>
					<path style="fill:#FFFFFF;" d="M280.71,362.825c-0.125,0-0.25-0.016-0.374-0.047c-0.39-0.101-0.724-0.354-0.925-0.703
						c-0.525-0.909-0.805-1.393,3.419-6.232c-9.101,5.569-10.074,5.336-10.603,5.207c-0.4-0.096-0.825-0.405-1.03-0.762
						c-0.838-1.451-1.004-1.736,15.841-15.521c-2.698,1.757-5.509,3.632-8.007,5.298c-14.825,9.89-19.432,12.696-21.474,12.222
						c-0.512-0.119-0.933-0.427-1.185-0.864c-0.901-1.559-0.901-1.559,18.963-15.938c1.275-0.924,2.6-1.884,3.932-2.849
						c-2.292,1.537-4.583,3.096-6.682,4.523c-15.661,10.653-22.798,15.254-25.466,14.648c-0.573-0.131-1.043-0.47-1.322-0.954
						c-0.976-1.691-1.192-2.069,27.746-21.734l-38.057,21.972c-0.718,0.416-1.634,0.169-2.049-0.549
						c-0.669-1.159-0.145-2.578,2.607-5.012c-4.383,2.518-6.925,3.534-8.176,3.236c-0.544-0.128-0.99-0.451-1.256-0.911
						c-0.829-1.435-0.51-2.77,10.084-9.89c-10.925,6.83-14.952,8.847-16.523,8.474c-0.485-0.117-0.885-0.411-1.125-0.827
						c-0.727-1.256-0.051-1.701,2.461-3.357c1.297-0.855,3.185-2.086,5.535-3.61c2.386-1.549,5.249-3.401,8.455-5.473
						c-9.322,4.842-10.715,4.506-11.493,4.318c-0.554-0.134-1.006-0.461-1.271-0.921c-0.411-0.712-0.173-1.621,0.534-2.04
						c29.349-17.395,74.661-45.307,85.586-54.542c-10.897,4.95-43.45,25.177-62.038,36.726
						c-23.889,14.843-23.995,14.814-25.016,14.557c-0.394-0.099-0.749-0.365-0.952-0.717c-0.812-1.406-0.771-2.304,8.79-8.226
						c-4.395,2.07-7.298,3.014-8.579,2.698c-0.585-0.144-1.061-0.489-1.34-0.972c-0.401-0.695-0.184-1.584,0.494-2.016
						c29.623-18.867,71.289-45.585,88.285-56.878c-4.725,2.41-11.077,6.032-18.137,10.227c-5.714,3.671-12.481,7.945-20.486,12.927
						c-10.586,6.588-21.281,13.12-30.191,18.52c-21.524,13.573-21.779,13.513-22.829,13.256c-0.397-0.098-0.766-0.373-0.97-0.727
						c-0.411-0.711-0.173-1.62,0.532-2.039c6.48-3.853,13.637-8.147,21.059-12.643c1.279-0.807,2.583-1.63,3.898-2.46
						c-15.54,8.889-24.13,12.776-26.664,12.159c-0.794-0.192-1.206-0.659-1.413-1.017c-0.927-1.605,0.399-3.64,11.355-10.806
						c-7.069,4.314-9.87,5.596-11.061,5.303c-0.47-0.112-0.857-0.398-1.091-0.803c-0.629-1.089-1.143-1.978,6.184-7.31
						c-3.942,1.98-6.434,2.813-7.626,2.524c-0.566-0.138-1.028-0.474-1.301-0.946c-0.2-0.346-0.253-0.758-0.149-1.143
						c0.105-0.386,0.359-0.714,0.706-0.911c32.445-18.452,81.582-47.668,96.549-59.46c-16.413,9.057-61.649,35.622-93.218,54.34
						c-0.345,0.204-0.758,0.261-1.145,0.161c-0.388-0.102-0.719-0.354-0.919-0.701c-0.213-0.369-0.419-0.984-0.193-1.818
						c0.221-0.809,1.077-1.92,2.467-3.281c-2.331,0.951-3.891,1.296-4.783,1.077c-0.576-0.142-1.044-0.483-1.32-0.961
						c-0.896-1.552,0.821-2.746,3.421-4.555c1.949-1.356,4.824-3.222,8.788-5.702c7.386-4.622,17.53-10.739,28.27-17.216
						c12.066-7.275,26.413-15.927,37.795-23.089c-24.364,14.038-62.747,36.423-81.18,47.202c-0.345,0.201-0.757,0.255-1.142,0.155
						c-0.386-0.103-0.715-0.355-0.915-0.7c-0.773-1.339-1.005-1.737,12.251-10.072c-5.193,2.855-8.469,4.075-10.135,3.688
						c-0.851-0.197-1.296-0.7-1.52-1.088c-0.991-1.716-0.991-1.716,23.056-15.688c11.129-6.466,24.413-14.185,36.631-21.605
						c10.259-6.817,18.288-12.011,24.381-15.601c5.009-3.497,7.666-5.693,9.067-7.059c-12.485,5.61-61.811,35.432-93.04,54.831
						c-0.7,0.434-1.623,0.222-2.062-0.477c-0.439-0.698-0.231-1.621,0.465-2.063c3.106-1.975,6.347-4.037,9.676-6.156
						c-8.037,4.107-10.972,4.798-12.232,4.484c-0.582-0.142-1.056-0.484-1.332-0.964c-0.401-0.694-0.185-1.581,0.49-2.014
						c5.518-3.532,12.984-8.317,21.31-13.661c-17.416,9.838-18.824,9.489-19.689,9.273c-0.473-0.118-0.861-0.405-1.094-0.81
						c-0.406-0.702-0.18-1.6,0.51-2.025c22.462-13.89,54.369-34.036,73.034-46.604c-15.048,8.666-36.98,21.549-52.436,30.627
						c-6.852,4.024-12.846,7.545-17.142,10.056c-3.816,2.23-5.666,3.311-6.656,3.811c-0.162,0.101-0.251,0.155-0.264,0.164
						l-0.016-0.027c-0.692,0.324-0.859,0.279-1.153,0.202c-0.58-0.152-1.014-0.636-1.103-1.229
						c-0.089-0.593,0.184-1.183,0.694-1.498c23.82-14.723,59-36.932,74.761-47.846c-8.388,4.855-20.92,12.847-31.034,19.297
						c-28.26,18.022-36.849,23.178-39.335,22.56c-0.493-0.12-0.898-0.419-1.142-0.84c-0.626-1.085-1.074-1.859,8.322-8.626
						c-2.564,1.128-4.294,1.557-5.303,1.315c-0.603-0.145-1.093-0.5-1.382-1c-0.403-0.698-0.183-1.59,0.5-2.02
						c18.452-11.608,46.487-29.813,56.128-37.338c-8.438,4.127-26.853,15.968-37.697,22.941
						c-17.637,11.341-18.322,11.62-19.429,11.351c-0.398-0.096-0.779-0.378-0.984-0.733c-0.793-1.373-1.494-2.591,15.839-14.513
						c-2.137,1.364-4.328,2.771-6.562,4.214c-0.302,0.195-0.714,0.463-1.343,0.31c-0.398-0.097-0.739-0.352-0.944-0.708
						c-1.069-1.852,0.473-3.442,12.641-12.771c-0.456-0.104-0.833-0.38-1.063-0.779c-0.415-0.717-0.169-1.635,0.549-2.049
						c0.29-0.167,0.613-0.228,0.92-0.191c0.866-0.413,3.078-1.966,4.587-3.026c4.874-3.422,6.257-4.249,7.454-3.983
						c0.477,0.105,0.872,0.392,1.111,0.807c0.863,1.496,0.197,2.401-8.011,8.744c2.274-1.419,4.626-2.874,6.975-4.311
						c23.122-14.146,24.907-13.725,25.974-13.466c0.497,0.12,0.904,0.418,1.147,0.84c0.404,0.7,0.182,1.594-0.504,2.022
						c-11.275,7.04-23.013,14.586-32.823,21.131c22.817-14.574,33.788-20.962,36.871-20.225c0.561,0.136,1.02,0.47,1.291,0.939
						c0.956,1.655,1.646,2.852-29.925,23.635c-1.514,0.997-3.032,1.992-4.538,2.975c6.352-4.008,12.8-8.193,18.034-11.59
						c20.257-13.147,23.529-15.072,25.063-14.711c0.443,0.107,0.811,0.378,1.033,0.765c0.401,0.695,0.185,1.583-0.493,2.015
						c-19.577,12.475-48.182,31.104-62.316,41.119c7.593-4.485,18.367-11.356,27.742-17.335
						c29.736-18.963,39.432-24.749,42.172-24.085c0.512,0.125,0.932,0.433,1.182,0.867c0.735,1.274,1.256,2.173-16.133,13.781
						c24.374-14.144,24.839-14.026,25.617-13.821c0.387,0.102,0.731,0.364,0.932,0.71c0.998,1.728,1.719,2.978-44.267,32.381
						c-3.338,2.134-6.689,4.266-9.971,6.346c18.205-10.763,39.888-24.02,56.327-34.256c0.346-0.215,0.765-0.28,1.156-0.182
						c0.395,0.098,0.732,0.353,0.936,0.705c0.717,1.24-0.333,1.974-1.444,2.751c-0.68,0.475-1.686,1.157-2.971,2.015
						c-2.42,1.615-5.992,3.961-10.616,6.975c-7.782,5.072-18.655,12.105-32.317,20.903c-13.156,8.472-26.42,16.985-35.504,22.811
						c11.943-6.316,35.287-20.069,80.345-48.787c6.483-4.131,6.485-4.132,7.145-3.973c0.398,0.097,0.739,0.353,0.944,0.708
						c0.371,0.642,0.581,1.006-0.617,2.07l0.005,0.01c-0.013,0.007-0.029,0.017-0.05,0.029c-1.597,1.4-5.579,3.994-14.654,9.905
						c12.862-7.057,14.063-6.759,14.84-6.566c0.47,0.118,0.856,0.405,1.089,0.807c0.539,0.934,0.673,2.067-1.328,4.305
						c1.02-0.259,1.825-0.317,2.436-0.174c0.88,0.204,1.339,0.723,1.569,1.122c0.995,1.723,1.504,2.607-28.205,21.339
						c31.456-18.212,31.765-18.133,32.522-17.938c0.386,0.102,0.72,0.357,0.919,0.702c0.956,1.656-0.802,3.333-5.102,6.469
						c-2.768,2.017-6.68,4.642-11.925,7.998c17.477-10.902,21.852-13.166,23.419-12.782c0.456,0.112,0.832,0.391,1.06,0.786
						c0.2,0.347,0.254,0.758,0.149,1.144c-0.106,0.386-0.36,0.714-0.708,0.911c-10.203,5.78-20.573,11.767-30.595,17.664
						c-3.453,2.177-6.963,4.398-10.383,6.563c-20.403,12.914-35.298,22.209-45.747,28.29c-3.311,2.263-6.144,4.285-8.408,6.018
						c9.296-5.496,25.141-14.847,40.946-24.097c50.004-29.263,50.758-29.058,51.715-28.808c0.388,0.102,0.74,0.369,0.94,0.716
						c0.201,0.348,0.396,0.926,0.185,1.703c-0.12,0.442-0.296,1.09-1.628,2.482c3.435-1.71,5.581-2.412,6.637-2.154
						c0.542,0.132,0.984,0.455,1.247,0.91c0.797,1.381-0.327,2.128-2.792,3.765c-1.491,0.99-3.696,2.394-6.74,4.29
						c-0.196,0.122-0.395,0.245-0.595,0.37c4.666-2.232,7.934-3.275,9.572-2.883c0.912,0.219,1.385,0.751,1.62,1.159
						c1.38,2.391-0.027,3.902-48.793,32.762c-20.432,12.092-47.507,28.115-54.884,34.069c4.07-1.428,14.209-6.329,39.405-21.574
						c20.538-12.427,43.164-26.936,54.038-33.909c7.531-4.829,7.527-4.822,8.198-4.659c0.397,0.098,0.739,0.354,0.943,0.708
						c0.61,1.056,1.23,2.131-6.953,8.255c1.736-0.606,2.968-0.818,3.703-0.64c0.588,0.146,1.065,0.492,1.346,0.977
						c0.878,1.524,0.878,1.524-15.3,12.125c-7.963,5.218-19.102,12.43-33.105,21.434c-13.494,8.678-27.108,17.385-36.426,23.335
						c18.874-10.119,54.256-32.56,69.986-42.537c13.958-8.853,13.962-8.854,14.759-8.655c0.398,0.098,0.741,0.356,0.945,0.71
						c1.069,1.852-0.632,4.491-7.216,9.384c0.229-0.012,0.424,0.002,0.584,0.042c0.513,0.129,0.933,0.438,1.182,0.87
						c1.051,1.819,2.239,3.878-42.142,31.673c12.765-7.859,25.981-16.228,36.693-23.152c0.347-0.223,0.771-0.294,1.167-0.198
						c0.399,0.097,0.742,0.353,0.947,0.709c0.734,1.275-0.281,1.998-1.965,3.196c-1.004,0.714-2.515,1.749-4.489,3.076
						c-1.992,1.338-4.445,2.967-7.411,4.92c4.143-2.108,6.696-2.95,7.979-2.638c0.589,0.142,1.068,0.489,1.35,0.978
						c0.841,1.455,0.654,2.049-9.475,8.541c2.134-0.901,3.645-1.236,4.612-1.013c0.635,0.149,1.152,0.522,1.456,1.048
						c1.18,2.042,0.288,2.935-26.815,19.349c-7.759,4.699-17.525,10.613-25.436,15.714l53.206-30.718
						c0.345-0.199,0.753-0.255,1.139-0.15c0.384,0.103,0.712,0.355,0.91,0.699c0.739,1.281-0.311,2.054-2.049,3.333
						c-1.049,0.772-2.589,1.86-4.706,3.325c-3.952,2.733-9.439,6.449-15.249,10.383c-6.776,4.589-15.298,10.358-22.274,15.207
						c3.209-2.123,6.548-4.395,9.518-6.414c15.468-10.521,22.029-14.733,24.549-14.167c0.559,0.128,1.017,0.459,1.289,0.932
						c0.874,1.512,0.915,1.585-16.83,14.436c12.878-8.556,17.081-10.998,19.004-10.568c0.513,0.12,0.935,0.428,1.188,0.866
						c0.707,1.226,0.707,1.226-8.247,8.533c-2.698,2.202-6.448,5.262-9.834,8.088c2.744-1.689,5.766-3.604,8.634-5.47
						c0.347-0.226,0.77-0.297,1.168-0.202c0.4,0.097,0.744,0.352,0.95,0.71c0.564,0.979,0.351,1.209-1.696,3.407
						c-1.668,1.791-3.105,3.357-4.311,4.697c9.081-5.407,9.407-5.321,10.047-5.156c0.39,0.101,0.733,0.36,0.935,0.709
						c0.414,0.718,0.169,1.635-0.549,2.049c-0.152,0.088-0.313,0.147-0.477,0.177c-1.326,0.597-8.72,4.955-15.229,8.891
						C281.25,362.752,280.981,362.825,280.71,362.825z M295.145,352.996c0.176,0.303,0.42,0.498,0.676,0.612
						C295.546,353.483,295.308,353.275,295.145,352.996z M258.222,337.73c-8.637,5.386-17.139,10.792-22.683,14.636
						C241.571,348.782,250.327,342.984,258.222,337.73z M295.411,311.104c-9.81,5.439-25.678,15.66-37.744,23.45
						c4.446-2.772,9.503-5.901,15.254-9.443C280.839,320.235,289.366,314.983,295.411,311.104z M294.773,318.08
						c-5.338,2.845-13.421,7.982-21.313,13.153c0.273-0.166,0.548-0.332,0.825-0.5C281.659,326.268,289.663,321.421,294.773,318.08z
						 M245.597,295.645c-6.56,4.125-12.64,8.017-17.616,11.319C233.179,303.692,239.325,299.718,245.597,295.645z M316.791,256.306
						c-2.898,0.971-9.05,3.807-22.059,11.617c-12.896,7.743-28.775,18.065-42.784,27.173c-6.106,3.969-11.251,7.302-15.591,10.087
						c8.424-5.179,19.738-11.95,34.841-20.888C289.644,273.379,310.195,261.216,316.791,256.306z M307.395,285.654
						c-0.69,0.439-1.395,0.886-2.111,1.34c-7.004,4.442-13.643,8.634-19.891,12.55C293.74,294.526,301.625,289.62,307.395,285.654z
						 M241.079,278.976c-9.173,5.545-18.082,10.972-23.944,14.736c2.954-1.531,6.603-3.582,10.689-5.97
						C231.784,285.013,236.272,282.054,241.079,278.976z M264.564,252.561c-3.84,2.554-7.629,5.095-11.168,7.47
						c-7.033,4.718-13.212,8.841-18.605,12.374c1.744-1.075,3.577-2.206,5.51-3.397c20.246-12.482,49.493-30.513,58.085-37.059
						c-2.203,0.896-5.405,2.625-9.227,4.885c-3.419,2.388-7.768,5.259-13.277,8.734
						C272.286,247.837,268.479,250.185,264.564,252.561z M219.051,216.529C219.051,216.529,219.051,216.529,219.051,216.529
						C219.051,216.529,219.051,216.529,219.051,216.529z"/>
				</g>
			</g>
			<path style="fill:none;stroke:#263238;stroke-width:2;stroke-linecap:round;stroke-linejoin:round;stroke-miterlimit:10;" d="
				M259.468,202.549v-0.015c-0.116,0.001-0.23,0.006-0.346,0.007c-0.108-0.002-0.216-0.006-0.325-0.007v0.014
				c-36.254,0.669-63.592,28.409-63.592,62.543c0,10.564,2.622,20.514,7.245,29.241c2.039,4.747,6.835,16.381,11.635,31.419
				c4.43,13.882,6.75,27.844,6.75,29.953c0,0.204-0.004,0.419-0.011,0.643c-0.084,2.645,2.027,4.842,4.674,4.842h0.341h28.005h0.341
				h7.573h0.341h28.005h0.341c2.647,0,4.758-2.196,4.673-4.842c-0.007-0.223-0.011-0.439-0.011-0.643
				c0-2.109,2.32-16.072,6.75-29.953c4.799-15.038,9.596-26.672,11.635-31.419c4.623-8.728,7.245-18.677,7.245-29.241
				C320.737,230.972,293.422,203.241,259.468,202.549z"/>
			<g>
				<path style="fill:none;stroke:#263238;stroke-width:3;stroke-linecap:round;stroke-linejoin:round;stroke-miterlimit:10;" d="
					M281.381,212.594c-1.792-0.804-3.653-1.526-5.566-2.126"/>
				<path style="fill:none;stroke:#263238;stroke-width:3;stroke-linecap:round;stroke-linejoin:round;stroke-miterlimit:10;" d="
					M302.215,228.468c0,0-5.1-8.1-16.307-13.607"/>
			</g>
			<path style="fill:none;stroke:#263238;stroke-width:3;stroke-linecap:round;stroke-linejoin:round;stroke-miterlimit:10;" d="
				M253.843,332.869v-32.115c0,0,2.467-15.641-5.666-15.641c-8.134,0-7.508,8.133,1.877,16.893s23.775,0.626,25.652-6.257
				c1.877-6.882-3.128-10.01-6.257-4.379c-3.128,5.631,0,69.447,0,69.447"/>
		</g>
		<g>
			<g>
				
					<line style="fill:none;stroke:#263238;stroke-width:3;stroke-linecap:round;stroke-linejoin:round;stroke-miterlimit:10;" x1="236.449" y1="186.301" x2="239.913" y2="197.188"/>
			</g>
			<g>
				
					<line style="fill:none;stroke:#263238;stroke-width:3;stroke-linecap:round;stroke-linejoin:round;stroke-miterlimit:10;" x1="321.226" y1="210.054" x2="309.844" y2="218.961"/>
				
					<line style="fill:none;stroke:#263238;stroke-width:3;stroke-linecap:round;stroke-linejoin:round;stroke-miterlimit:10;" x1="278.998" y1="178.347" x2="274.71" y2="197.188"/>
			</g>
			<g>
				<path style="fill:#263238;stroke:#263238;stroke-linecap:round;stroke-linejoin:round;stroke-miterlimit:10;" d="
					M292.274,369.875h-68.588c-0.879,0-1.592-0.713-1.592-1.592v-0.782c0-0.879,0.713-1.592,1.592-1.592h68.588
					c0.879,0,1.591,0.713,1.591,1.592v0.782C293.866,369.163,293.153,369.875,292.274,369.875z"/>
				<path style="fill:#263238;stroke:#263238;stroke-linecap:round;stroke-linejoin:round;stroke-miterlimit:10;" d="
					M292.274,378.813h-68.588c-0.879,0-1.592-0.713-1.592-1.592v-0.782c0-0.879,0.713-1.592,1.592-1.592h68.588
					c0.879,0,1.592,0.713,1.592,1.592v0.782C293.866,378.101,293.153,378.813,292.274,378.813z"/>
				<path style="fill:#263238;stroke:#263238;stroke-linecap:round;stroke-linejoin:round;stroke-miterlimit:10;" d="
					M292.274,387.751h-68.588c-0.879,0-1.592-0.713-1.592-1.592v-0.782c0-0.879,0.713-1.592,1.592-1.592h68.588
					c0.879,0,1.592,0.713,1.592,1.592v0.782C293.866,387.039,293.153,387.751,292.274,387.751z"/>
				<path style="fill:#263238;stroke:#263238;stroke-linecap:round;stroke-linejoin:round;stroke-miterlimit:10;" d="
					M260.081,392.518h-3.855h-31.364l10.133,13.956c1.767,2.434,4.592,3.874,7.6,3.874h13.631h3.855h13.494
					c3.016,0,5.848-1.448,7.614-3.893l10.064-13.936H260.081z"/>
			</g>
		</g>
	</g>
</g>
<g id="Hand_3">
	<g>
		<g>
			<path style="fill:#FFFFFF;stroke:#263238;stroke-linecap:round;stroke-miterlimit:10;" d="M335.691,242.981
				c0,0-6.404,6.986-11.643,10.479c-5.24,3.493-8.892,8.112-4.075,10.479c2.89,1.42,6.986-0.582,6.986-0.582
				s-6.404,1.747-7.568,7.568c-1.164,5.822,11.643,3.493,11.643,3.493s-9.315,6.404-6.404,8.732
				c2.911,2.329,8.732,0.582,11.643,0.582c2.911,0,17.465-9.315,20.958-9.315c3.493,0,10.479,7.568,10.479,13.39
				c0,5.822,9.315,5.239,10.479-12.808c1.164-18.047-3.493-33.183-11.061-37.841C359.56,232.502,335.691,242.981,335.691,242.981z"
				/>
			<path style="fill:none;stroke:#263238;stroke-linecap:round;stroke-miterlimit:10;" d="M332.198,262.775l23.235-8.682
				c0,0,10.197-2.217,17.516,9.846"/>
			<path style="fill:none;stroke:#263238;stroke-linecap:round;stroke-miterlimit:10;" d="M336.273,269.761l20.958-3.493
				c0,0,9.315-0.582,15.136,10.479"/>
		</g>
		<path style="fill:#FFFFFF;stroke:#263238;stroke-linecap:round;stroke-miterlimit:10;" d="M361.888,283.733l-15.718,3.493
			l9.315,37.259c0,0,8.15,16.301,10.479,23.287c2.329,6.986,26.197,30.273,26.197,30.273l27.944-26.78
			c0,0-12.808-15.136-13.39-18.629c-0.582-3.493-2.911-44.245-2.911-50.066c0-5.822-11.643-19.794-11.643-19.794
			s-4.779-6.852-7.107-18.495c-2.329-11.643-13.022-16.428-18.844-15.846c-5.822,0.582-21.786,2.322-28.19,6.979
			c-6.404,4.657-12.226,10.479-6.401,12.226c9.668,2.896,25.491-9.99,33.125-1.084c3.493,4.075,7.623,22.041,8.205,24.369
			C372.95,270.925,370.039,281.986,361.888,283.733C353.738,285.479,361.888,283.733,361.888,283.733"/>
		<g>
			<g>
				<path style="fill:#263238;stroke:#263238;stroke-linecap:round;stroke-miterlimit:10;" d="M303.266,229.623
					c0.36-0.385,0.958-0.457,1.403-0.147l2.385,1.658c0.489,0.34,0.61,1.013,0.27,1.502c-0.339,0.49-1.013,0.61-1.502,0.27
					l-2.385-1.658c-0.489-0.34-0.61-1.013-0.27-1.502C303.197,229.702,303.23,229.661,303.266,229.623z"/>
			</g>
			<g>
				<path style="fill:#92E3A9;stroke:#263238;stroke-linecap:round;stroke-miterlimit:10;" d="M306.006,231.543
					c0.823-0.879,2.189-1.045,3.207-0.337l7.456,3.848l73.236,48.177c2.626,1.825,3.275,5.434,1.449,8.059
					c-1.825,2.63-5.435,3.274-8.059,1.449l-71.081-52.437l-5.818-5.046c-1.119-0.778-1.395-2.315-0.617-3.434
					C305.849,231.723,305.925,231.63,306.006,231.543z"/>
			</g>
			<path style="fill:#263238;stroke:#263238;stroke-linecap:round;stroke-miterlimit:10;" d="M389.906,283.231l-21.134-13.902
				c-3.362,1.095-5.773,4.029-5.773,7.486c0,0.343,0.031,0.678,0.078,1.009l20.219,14.916c2.625,1.826,6.235,1.181,8.059-1.449
				C393.18,288.664,392.531,285.056,389.906,283.231z"/>
		</g>
		<g>
			<path style="fill:#FFFFFF;stroke:#263238;stroke-linecap:round;stroke-miterlimit:10;" d="M365.964,347.771
				c-6.404-9.315-14.554-33.183-18.047-37.841c-3.493-4.657-12.858-14.957-16.351-25.436c-3.493-10.479-5.771-18.809-5.771-27.541
				c0-8.733,7.503-10.243,13.324-0.928c5.822,9.315,12.873,23.632,12.873,23.632s4.657,5.822,13.972,4.075"/>
			<path style="fill:#FFFFFF;stroke:#263238;stroke-linecap:round;stroke-miterlimit:10;" d="M333.093,253.305l1.946,3.891
				c0,0-0.443,0-3.547,1.773c-3.104,1.773-4.533,4.387-4.533,4.387s-3.004-8.377-0.344-11.037c0.798-0.798,1.636-1.157,2.418-1.269
				C330.712,250.811,332.334,251.788,333.093,253.305z"/>
		</g>
		<path style="fill:#FFFFFF;stroke:#263238;stroke-linecap:round;stroke-miterlimit:10;" d="M414.033,339.356
			c0,0-15.418,4.568-23.412,12.563c-7.994,7.994-14.847,17.131-14.847,17.131l14.276,16.56c0,0,11.992-13.705,19.986-19.986
			c7.994-6.281,17.131-11.421,17.131-11.421L414.033,339.356z"/>
		<path style="fill:#263238;stroke:#263238;stroke-linecap:round;stroke-miterlimit:10;" d="M428.309,459.842l-45.111-72.52
			c0,0,11.421-17.131,21.128-25.696s22.27-10.85,22.27-10.85L483,404.907"/>
		<g>
			<path style="fill:none;stroke:#263238;stroke-linecap:round;stroke-miterlimit:10;" d="M341.404,274.495
				c0.304-0.04,0.619-0.077,0.945-0.11"/>
			<path style="fill:none;stroke:#263238;stroke-linecap:round;stroke-miterlimit:10;" d="M332.689,279.327
				c0,0,0.531-3.187,6.938-4.531"/>
			<path style="fill:none;stroke:#263238;stroke-linecap:round;stroke-miterlimit:10;" d="M339.653,277.081
				c0,0-0.449,1.348-4.942,3.145"/>
			<path style="fill:none;stroke:#263238;stroke-linecap:round;stroke-miterlimit:10;" d="M339.465,272.809
				c0,0-3.896,0.584-6.233,2.532"/>
		</g>
	</g>
</g>
<g id="Hand_2">
	<g>
		<g>
			<path style="fill:#FFFFFF;stroke:#263238;stroke-linecap:round;stroke-miterlimit:10;" d="M198.758,173.348
				c0,0,9.446,0.767,15.42,2.759c5.974,1.992,11.862,2.04,10.774-3.216c-0.653-3.153-4.748-5.157-4.748-5.157
				s5.31,3.983,10.62,1.329c5.31-2.655-4.39-11.336-4.39-11.336s10.773,3.422,10.825-0.305c0.051-3.727-4.901-7.251-6.688-9.549
				c-1.787-2.298-18.074-8.069-20.218-10.827c-2.144-2.757-0.458-12.918,4.137-16.492c4.596-3.574-1.582-10.569-16.543-0.41
				c-14.961,10.159-24.051,23.127-23.082,31.961C175.834,160.939,198.758,173.348,198.758,173.348z"/>
			<path style="fill:none;stroke:#263238;stroke-linecap:round;stroke-miterlimit:10;" d="M216.528,163.955l-21.117-13.013
				c0,0-8.01-6.689-2.98-19.872"/>
			<path style="fill:none;stroke:#263238;stroke-linecap:round;stroke-miterlimit:10;" d="M219.541,156.45l-15.623-14.4
				c0,0-6.177-6.996-1.019-18.382"/>
		</g>
		<path style="fill:#FFFFFF;stroke:#263238;stroke-linecap:round;stroke-miterlimit:10;" d="M214.847,127.652l12.406,10.264
			l23.694-30.225c0,0,15.302-6.875,19.332-13.038c4.031-6.163,7.465-39.332,7.465-39.332l-38.342-5.278
			c0,0-3.913,19.438-6.29,22.063c-2.377,2.625-40.32,19.598-44.915,23.172c-4.596,3.574-8.478,21.342-8.478,21.342
			s-2.759,10.322-8.018,20.967c-8.754,17.719-7.194,16.361-3.16,20.6c4.033,4.238,13.841,12.867,21.449,15.063
			c7.608,2.196,17.069,10.059,14.946,0.454c-2.178-9.855-23.534-13.991-21.189-25.484c1.073-5.259,12.719-19.548,14.2-21.437
			C197.946,126.782,208.465,122.29,214.847,127.652C221.228,133.014,214.847,127.652,214.847,127.652"/>
		<g>
			<g>
				<path style="fill:#263238;stroke:#263238;stroke-linecap:round;stroke-miterlimit:10;" d="M208.118,207.146
					c-0.525-0.048-0.949-0.475-0.978-1.017l-0.155-2.9c-0.032-0.595,0.425-1.104,1.02-1.135c0.595-0.034,1.103,0.425,1.135,1.02
					l0.155,2.9c0.032,0.595-0.425,1.104-1.02,1.135C208.222,207.152,208.169,207.151,208.118,207.146z"/>
			</g>
			<g>
				<path style="fill:#92E3A9;stroke:#263238;stroke-linecap:round;stroke-miterlimit:10;" d="M207.951,203.804
					c-1.199-0.11-2.169-1.087-2.235-2.325l-1.539-8.249l-6.926-87.387c-0.171-3.193,2.279-5.92,5.473-6.091
					c3.197-0.174,5.921,2.28,6.091,5.473l2.24,88.301l-0.412,7.69c0.073,1.361-0.971,2.522-2.332,2.595
					C208.19,203.817,208.069,203.814,207.951,203.804z"/>
			</g>
			<path style="fill:#263238;stroke:#263238;stroke-linecap:round;stroke-miterlimit:10;" d="M197.251,105.843l1.999,25.217
				c2.928,1.982,6.724,2.084,9.453-0.038c0.271-0.211,0.516-0.441,0.749-0.681l-0.637-25.117c-0.17-3.193-2.895-5.647-6.091-5.473
				C199.531,99.923,197.081,102.65,197.251,105.843z"/>
		</g>
		<g>
			<path style="fill:#FFFFFF;stroke:#263238;stroke-linecap:round;stroke-miterlimit:10;" d="M270.279,94.653
				c-3.326,10.803-17.761,25.67-20.31,30.904c-7.876,16.175-13.434,25.001-19.562,34.191c-2.485,3.727-5.181,4.26-6.817,5.599
				c-2.398,1.963-3.629,4.05-7.727,7.236c-6.894,5.361-12.691,0.365-8.912-9.949s10.753-24.669,10.753-24.669
				s1.737-7.25-5.36-13.531"/>
			<path style="fill:#FFFFFF;stroke:#263238;stroke-linecap:round;stroke-miterlimit:10;" d="M208.503,169.062l1.878-3.925
				c0,0,0.272,0.35,3.577,1.711c3.305,1.361,6.246,0.886,6.246,0.886s-4.769,7.514-8.502,7.047c-1.12-0.14-1.918-0.581-2.486-1.13
				C207.996,172.473,207.771,170.592,208.503,169.062z"/>
		</g>
		<g>
			<path style="fill:#263238;stroke:#263238;stroke-linecap:round;stroke-miterlimit:10;" d="M236.157,18.67l-7.948,51.626
				c0,0,9.59,8.43,22.332,10.721c12.742,2.292,35.975,5.71,35.975,5.71l20.362-68.057"/>
			<path style="fill:#FFFFFF;stroke:#263238;stroke-width:2;stroke-linecap:round;stroke-linejoin:round;stroke-miterlimit:10;" d="
				M282.439,75.172c0,2.169-1.759,3.928-3.928,3.928s-3.928-1.759-3.928-3.928c0-2.169,1.758-3.928,3.928-3.928
				S282.439,73.003,282.439,75.172z"/>
		</g>
		<g>
			<path style="fill:none;stroke:#263238;stroke-linecap:round;stroke-miterlimit:10;" d="M217.207,156.31
				c-0.219-0.215-0.441-0.441-0.667-0.679"/>
			<path style="fill:none;stroke:#263238;stroke-linecap:round;stroke-miterlimit:10;" d="M226.372,160.223
				c0,0-2.842,1.537-7.836-2.696"/>
			<path style="fill:none;stroke:#263238;stroke-linecap:round;stroke-miterlimit:10;" d="M220.324,156.105
				c0,0,1.34-0.473,5.517,1.971"/>
			<path style="fill:none;stroke:#263238;stroke-linecap:round;stroke-miterlimit:10;" d="M217.067,158.876
				c0,0,2.853,2.717,5.826,3.366"/>
		</g>
	</g>
</g>
<g id="Hand_1">
	<g>
		<g>
			<path style="fill:#FFFFFF;stroke:#263238;stroke-linecap:round;stroke-miterlimit:10;" d="M219.94,327.169
				c0,0,0.907,9.433,2.987,15.377c2.08,5.943,2.216,11.831-3.056,10.82c-3.162-0.606-5.227-4.671-5.227-4.671
				s4.062,5.25,1.486,10.599c-2.575,5.349-11.399-4.221-11.399-4.221s3.581,10.721-0.145,10.828
				c-3.726,0.107-7.323-4.793-9.647-6.545c-2.324-1.753-8.337-17.952-11.125-20.056s-12.923-0.267-16.428,4.382
				c-3.505,4.648-10.592-1.425-0.656-16.535c9.936-15.11,22.768-24.392,31.615-23.554
				C207.191,304.431,219.94,327.169,219.94,327.169z"/>
			<path style="fill:none;stroke:#263238;stroke-linecap:round;stroke-miterlimit:10;" d="M210.811,345.076l-13.325-20.921
				c0,0-6.807-7.91-19.914-2.685"/>
			<path style="fill:none;stroke:#263238;stroke-linecap:round;stroke-miterlimit:10;" d="M203.352,348.2l-14.631-15.407
				c0,0-7.087-6.073-18.395-0.746"/>
		</g>
		<path style="fill:#FFFFFF;stroke:#263238;stroke-linecap:round;stroke-miterlimit:10;" d="M174.487,343.933l10.447,12.253
			l-29.87,24.14c0,0-16.322,8.108-22.387,12.284c-6.065,4.176-39.144,8.398-39.144,8.398l-6.188-38.206
			c0,0,19.339-4.374,21.907-6.813c2.568-2.438,28.963-33.574,32.468-38.222c3.505-4.648,21.214-8.794,21.214-8.794
			s7.941-2.593,16.81-10.488c8.869-7.894,20.288-5.276,24.586-1.306c4.298,3.97,15.997,14.971,18.306,22.545
			c2.309,7.574,3.452,15.728-2.251,13.616c-9.463-3.508-14.339-23.324-25.796-20.809c-5.243,1.151-19.357,13.008-21.224,14.517
			C173.367,327.047,169.031,337.632,174.487,343.933C179.943,350.235,174.487,343.933,174.487,343.933"/>
		<g>
			<g>
				<path style="fill:#263238;stroke:#263238;stroke-linecap:round;stroke-miterlimit:10;" d="M253.873,336.026
					c-0.056-0.524-0.489-0.941-1.032-0.962l-2.902-0.112c-0.596-0.023-1.097,0.441-1.12,1.037c-0.025,0.595,0.441,1.097,1.037,1.12
					l2.902,0.112c0.596,0.023,1.097-0.441,1.12-1.037C253.88,336.13,253.878,336.077,253.873,336.026z"/>
			</g>
			<g>
				<path style="fill:#92E3A9;stroke:#263238;stroke-linecap:round;stroke-miterlimit:10;" d="M250.528,335.909
					c-0.128-1.198-1.118-2.152-2.358-2.2l-8.27-1.417l-87.48-5.628c-3.196-0.123-5.886,2.367-6.009,5.563
					c-0.127,3.199,2.368,5.887,5.563,6.009l88.324,0.929l7.683-0.526c1.361,0.053,2.508-1.008,2.56-2.37
					C250.545,336.147,250.541,336.027,250.528,335.909z"/>
			</g>
			<path style="fill:#263238;stroke:#263238;stroke-linecap:round;stroke-miterlimit:10;" d="M152.42,326.664l25.244,1.624
				c2.025,2.898,2.184,6.692,0.102,9.453c-0.206,0.274-0.433,0.523-0.67,0.759l-25.124-0.264c-3.195-0.123-5.689-2.811-5.563-6.009
				C146.534,329.031,149.224,326.54,152.42,326.664z"/>
		</g>
		<g>
			<path style="fill:#FFFFFF;stroke:#263238;stroke-linecap:round;stroke-miterlimit:10;" d="M132.677,392.61
				c10.721-3.582,31.6-17.732,37.193-19.348c5.593-1.615,19.271-4.201,28.37-10.464c9.098-6.264,15.932-11.543,21.19-18.515
				c5.258-6.972,0.177-12.695-10.08-8.763c-10.256,3.932-24.507,11.118-24.507,11.118s-7.224,1.844-13.609-5.159"/>
			<path style="fill:#FFFFFF;stroke:#263238;stroke-linecap:round;stroke-miterlimit:10;" d="M215.798,336.976l-3.896,1.936
				c0,0,0.354,0.267,1.764,3.552c1.41,3.285,0.978,6.232,0.978,6.232s7.442-4.88,6.92-8.606c-0.157-1.118-0.61-1.909-1.167-2.469
				C219.201,336.418,217.318,336.221,215.798,336.976z"/>
		</g>
		<path style="fill:#FFFFFF;stroke:#263238;stroke-linecap:round;stroke-miterlimit:10;" d="M107.177,354.57
			c0,0,9.56,12.93,11.129,24.126c1.57,11.196,1.54,22.617,1.54,22.617l-29.182,7.006c0,0-1.323-18.162-3.924-27.991
			c-2.601-9.828-6.802-19.433-6.802-19.433L107.177,354.57z"/>
		<g>
			<path style="fill:#263238;stroke:#263238;stroke-linecap:round;stroke-miterlimit:10;" d="M108.507,377.13
				c-2.594-12.684-11.249-22.071-11.249-22.071L28.187,366.05v78.033l81.718-33.715C109.905,410.368,111.101,389.814,108.507,377.13
				z"/>
			<path style="fill:#FFFFFF;" d="M90.012,411.028c0,1.69-1.37,3.061-3.061,3.061c-1.69,0-3.061-1.37-3.061-3.061
				c0-1.69,1.37-3.061,3.061-3.061C88.642,407.967,90.012,409.338,90.012,411.028z"/>
			<path style="fill:#FFFFFF;" d="M98.582,407.355c0,1.69-1.37,3.061-3.061,3.061c-1.69,0-3.061-1.37-3.061-3.061
				c0-1.69,1.37-3.061,3.061-3.061C97.212,404.295,98.582,405.665,98.582,407.355z"/>
		</g>
		<g>
			<path style="fill:none;stroke:#263238;stroke-linecap:round;stroke-miterlimit:10;" d="M196.405,348.891
				c-0.219-0.215-0.448-0.434-0.688-0.656"/>
			<path style="fill:none;stroke:#263238;stroke-linecap:round;stroke-miterlimit:10;" d="M200.454,357.996
				c0,0,1.495-2.865-2.811-7.795"/>
			<path style="fill:none;stroke:#263238;stroke-linecap:round;stroke-miterlimit:10;" d="M196.246,352.01
				c0,0-0.453,1.347,2.053,5.487"/>
			<path style="fill:none;stroke:#263238;stroke-linecap:round;stroke-miterlimit:10;" d="M198.968,348.712
				c0,0,2.759,2.812,3.452,5.775"/>
		</g>
	</g>
</g>
</svg>
