<?xml version="1.0" encoding="utf-8"?>
<!-- Generator: Adobe Illustrator 27.5.0, SVG Export Plug-In . SVG Version: 6.00 Build 0)  -->
<svg version="1.1" xmlns="http://www.w3.org/2000/svg" xmlns:xlink="http://www.w3.org/1999/xlink" x="0px" y="0px"
	 viewBox="0 0 750 500" style="enable-background:new 0 0 750 500;" xml:space="preserve">
<g id="BACKGROUND">
	<rect style="fill:#95D750;" width="750" height="500"/>
</g>
<g id="OBJECTS">
	<g>
		<defs>
			<rect id="SVGID_1_" width="750" height="500"/>
		</defs>
		<clipPath id="SVGID_00000078013368757924266480000010237977700191909046_">
			<use xlink:href="#SVGID_1_"  style="overflow:visible;"/>
		</clipPath>
		<g style="clip-path:url(#SVGID_00000078013368757924266480000010237977700191909046_);">
			<path style="fill:#71C75A;" d="M-158.638,367.384c-1.59-52.181,23.731-103.744,63.794-137.216
				c40.063-33.472,93.657-49.171,145.783-46.298c30.223,1.666,59.842,9.213,90.001,11.792c30.159,2.58,62.327-0.405,87.216-17.631
				c24.889-17.226,39.443-51.84,26.376-79.143c-8.383-17.516-29.741-26.68-48.763-30.584c-19.021-3.904-38.646-3.282-58.049-2.524
				C71.068,68.774-7.534,74.097-77.353,105.872s-129.936,95.719-135.759,172.208c-1.723,22.637,1.514,46.151,12.73,65.889
				C-189.165,363.706-181.206,364.918-158.638,367.384z"/>
			<path style="fill:#BCDF45;" d="M497.685,500c0,0,1.717-74.785-43.28-74.692c-44.998,0.093-35.998,76.59-95.995,72.09
				c-59.997-4.5-30.022-81.991-121.496-79.363c-53.203,1.528-108.768,39.16-156.396-5.57C57.823,391.15,38.363,317.668,0,334.035
				C0,401.597,0,500,0,500H497.685z"/>
			<path style="fill:#71C75A;" d="M392.67,0h289.17C722.43,0,750,0,750,0v280c0,0-110,12.32-109-112.34
				c1-124.66-74-27.88-140-56.771c-44.85-19.63-21.36-63.02-52.61-89.3C433.65,9.2,390.78,22.94,392.67,0z"/>
			<g>
				<g>
					<path style="fill:none;stroke:#E2E43C;stroke-miterlimit:10;" d="M92.969,122.348c-3.908-12.134-2.219-22.488-3.462-30.503
						c-0.853-7.949-4.309-13.398-9.748-14.338c-5.399-0.926-8.246,3.377-6.932,11.322c0.931,7.861,6.584,19.522,9.453,31.401
						c3.616,12.04,3.156,21.68,6.035,29.082c2.413,7.303,15.766,14.197,15.792,14.22c0.065,0.012,8.623-2.109,4.4-9.905
						C104.759,145.944,96.07,134.328,92.969,122.348z"/>
					<path style="fill:none;stroke:#E2E43C;stroke-miterlimit:10;" d="M92.969,122.348c-3.908-12.134-2.219-22.488-3.462-30.503
						c-0.853-7.949-4.309-13.398-9.748-14.338c-5.399-0.926-8.246,3.377-6.932,11.322c0.931,7.861,6.584,19.522,9.453,31.401
						c3.616,12.04,3.156,21.68,6.035,29.082c2.413,7.303,15.766,14.197,15.792,14.22c0.065,0.012,8.623-2.109,4.4-9.905
						C104.759,145.944,96.07,134.328,92.969,122.348z"/>
					<path style="fill:none;stroke:#E2E43C;stroke-miterlimit:10;" d="M104.107,163.533c-1.879-3.495-9.105-15.289-16.093-40.156
						c-7.467-24.66-11.273-58.969-7.035-92.397c3.786-33.482,15.612-66.089,28.969-88.607c12.929-22.835,27.386-35.58,26.498-36.627
						"/>
				</g>
				<g>
					<g>
						<path style="fill:none;stroke:#E2E43C;stroke-miterlimit:10;" d="M48.873,78.752c4.021-8.237,5.124-18.352,7.917-24.053
							c2.54-5.93,6.228-7.523,9.856-4.031c3.645,3.5,4.279,8.994,1.556,14.397c-2.437,5.63-8.536,11.124-11.765,19.831
							c-3.81,8.264-3.445,18.13-5.197,23.494c-1.447,5.597-10.842,3.004-10.843,3.014c-0.079-0.015-6.708-8.817-3.831-13.752
							C39.056,92.481,45.364,87.43,48.873,78.752z"/>
						<path style="fill:none;stroke:#E2E43C;stroke-miterlimit:10;" d="M48.873,78.752c4.021-8.237,5.124-18.352,7.917-24.053
							c2.54-5.93,6.228-7.523,9.856-4.031c3.645,3.5,4.279,8.994,1.556,14.397c-2.437,5.63-8.536,11.124-11.765,19.831
							c-3.81,8.264-3.445,18.13-5.197,23.494c-1.447,5.597-10.842,3.004-10.843,3.014c-0.079-0.015-6.708-8.817-3.831-13.752
							C39.056,92.481,45.364,87.43,48.873,78.752z"/>
						<path style="fill:none;stroke:#E2E43C;stroke-miterlimit:10;" d="M40.397,111.404c0.442-1.039,8.028-20.893,18.553-43.966
							c10.149-22.823,22.799-47.509,23.434-48.411"/>
					</g>
					<g>
						<path style="fill:none;stroke:#E2E43C;stroke-miterlimit:10;" d="M54.072,29.443c5.347-8.466,8.605-18.469,12.342-24.157
							c3.568-5.905,7.088-7.621,9.381-4.432c2.307,3.2,1.635,8.508-1.903,13.969c-3.338,5.667-9.833,11.425-14.564,20.351
							c-5.145,8.504-6.956,18.566-9.657,24.219c-2.48,5.871-10.292,3.781-10.293,3.788c-0.079-0.016-4.021-8.726-0.357-13.93
							C42.39,43.822,49.074,38.317,54.072,29.443z"/>
						<path style="fill:none;stroke:#E2E43C;stroke-miterlimit:10;" d="M54.072,29.443c5.347-8.466,8.605-18.469,12.342-24.157
							c3.568-5.905,7.088-7.621,9.381-4.432c2.307,3.2,1.635,8.508-1.903,13.969c-3.338,5.667-9.833,11.425-14.564,20.351
							c-5.145,8.504-6.956,18.566-9.657,24.219c-2.48,5.871-10.292,3.781-10.293,3.788c-0.079-0.016-4.021-8.726-0.357-13.93
							C42.39,43.822,49.074,38.317,54.072,29.443z"/>
						<path style="fill:none;stroke:#E2E43C;stroke-miterlimit:10;" d="M39.378,63.18c-0.021,0.335,11.696-22.291,25.991-45.505
							c13.914-23.167,30.412-46.92,31.215-47.761"/>
					</g>
					<g>
						<path style="fill:none;stroke:#E2E43C;stroke-miterlimit:10;" d="M76.57-31.71c7.022-8.208,12.974-17.491,17.893-22.802
							c4.858-5.496,8.175-7.2,8.813-4.503c0.652,2.717-1.641,7.507-6.201,12.681c-4.466,5.352-11.481,11.01-18.1,19.645
							c-6.825,8.263-11.357,18.003-15.257,23.66c-3.789,5.855-9.665,4.351-9.666,4.35c-0.076-0.018-0.685-8.222,3.978-13.42
							C62.513-17.497,69.692-23.15,76.57-31.71z"/>
						<path style="fill:none;stroke:#E2E43C;stroke-miterlimit:10;" d="M54.053,1.321C54.001,1.68,70.4-21.308,89.431-43.207
							c18.651-22.113,39.931-43.137,40.947-43.829"/>
					</g>
				</g>
				<g>
					<g>
						<path style="fill:none;stroke:#E2E43C;stroke-miterlimit:10;" d="M111.967,89.946c-6.192-10.381-8.084-21.299-10.783-28.067
							c-2.464-6.922-5.859-9.643-9.701-7.281c-3.805,2.372-4.574,7.658-1.413,14.12c2.916,6.597,9.793,14.437,15.554,25.045
							c6.201,10.339,10.197,21.27,15.118,28.16c4.711,7.034,13.825,8.097,13.786,8.095c0.031,0.023,2.22-7.511-3.043-14.324
							C126.47,108.772,117.681,100.605,111.967,89.946z"/>
						<path style="fill:none;stroke:#E2E43C;stroke-miterlimit:10;" d="M111.967,89.946c-6.192-10.381-8.084-21.299-10.783-28.067
							c-2.464-6.922-5.859-9.643-9.701-7.281c-3.805,2.372-4.574,7.658-1.413,14.12c2.916,6.597,9.793,14.437,15.554,25.045
							c6.201,10.339,10.197,21.27,15.118,28.16c4.711,7.034,13.825,8.097,13.786,8.095c0.031,0.023,2.22-7.511-3.043-14.324
							C126.47,108.772,117.681,100.605,111.967,89.946z"/>
						<path style="fill:none;stroke:#E2E43C;stroke-miterlimit:10;" d="M134.527,130.018c-0.765-0.938-22.477-28.186-34.663-55.624
							C86.006,46.739,82.556,20.107,82.384,19.027"/>
					</g>
					<g>
						<path style="fill:none;stroke:#E2E43C;stroke-miterlimit:10;" d="M106.672,37.101c-3.407-10.058-2.857-20.703-3.783-27.156
							c-0.694-6.62-2.984-9.059-6.763-6.575c-3.746,2.499-5.556,7.679-4.175,13.868c1.141,6.337,5.5,13.713,8.484,24.054
							c3.418,10.039,4.921,20.994,8.004,27.823c2.875,6.986,10.748,7.54,10.708,7.534c0.028,0.02,3.257-7.944-0.158-14.598
							C115.82,55.259,109.611,47.459,106.672,37.101z"/>
						<path style="fill:none;stroke:#E2E43C;stroke-miterlimit:10;" d="M119.148,76.649c-1.661-3.201-15.004-28-19.897-54.323
							c-6.516-26.688-2.835-51.421-2.661-52.411"/>
					</g>
					<g>
						<path style="fill:none;stroke:#E2E43C;stroke-miterlimit:10;" d="M116.325-27.791c0.03-9.181,3.601-18.91,4.87-24.651
							c1.5-5.904,0.576-7.92-3.13-5.499c-3.682,2.446-6.788,7.187-7.61,12.737c-1.058,5.708,0.19,12.206-0.255,21.716
							c-0.018,9.189-1.607,19.599-0.79,26.029c0.608,6.603,6.973,6.64,6.934,6.63c0.028,0.011,4.557-7.976,3.421-14.13
							C118.863-11.266,115.832-18.307,116.325-27.791z"/>
						<path style="fill:none;stroke:#E2E43C;stroke-miterlimit:10;" d="M116.344,9.171c0.052,0.276-5.792-26.492-1.662-50.138
							c2.562-24.185,15.096-45.248,15.699-46.069"/>
					</g>
				</g>
			</g>
			<path style="fill:#E2E43C;" d="M582.048,130.854c-3.693,0.47-7.029,2.814-9.018,5.961c-1.121,1.774-1.853,3.857-1.708,5.95
				c0.124,1.789,0.883,3.493,1.938,4.943c4.481,6.156,15.834,6.796,19.685-0.519C596.891,139.696,590.538,129.773,582.048,130.854z"
				/>
			<path style="fill:#71C75A;" d="M238.128,441.523c-6.502,0.828-12.377,4.955-15.878,10.496c-1.973,3.124-3.263,6.791-3.007,10.477
				c0.219,3.15,1.555,6.151,3.413,8.704c7.89,10.839,27.88,11.967,34.661-0.914C264.263,457.092,253.076,439.62,238.128,441.523z"/>
			<path style="fill:#E2E43C;" d="M605.867,427.089c-7.676,4.056-15.49,8.214-21.529,14.451
				c-6.039,6.237-10.115,15.015-8.585,23.561c1.613,9.01,9.252,16.102,17.883,19.15c8.631,3.048,18.11,2.63,27.144,1.153
				c20.014-3.271,39.176-11.631,55.187-24.077c11.614-9.027,21.875-20.723,25.65-34.94c3.775-14.216-0.315-31.152-12.435-39.485
				c-14.32-9.845-29.036-2.589-37.307,9.855C641.592,412.231,622.013,418.559,605.867,427.089z"/>
			<path style="fill:#E2E43C;" d="M683.488,353.804c-0.545,9.498,5.404,19.729,14.723,21.644c8.421,1.73,17.132-3.752,21.282-11.282
				c4.15-7.529,4.51-16.593,3.475-25.127c-1.481-12.203-11.859-18.315-23.393-12.641
				C690.825,330.703,684.017,344.591,683.488,353.804z"/>
			<path style="fill:#E2E43C;" d="M287.384,41.55c8.248-2.708,16.65-5.494,23.651-10.628c7.001-5.134,12.494-13.103,12.421-21.784
				c-0.077-9.153-6.415-17.428-14.411-21.882c-7.997-4.455-17.411-5.635-26.564-5.698c-20.279-0.138-40.573,4.884-58.448,14.462
				c-12.965,6.948-25.046,16.753-31.156,30.134c-6.11,13.38-4.924,30.762,5.624,41.013c12.462,12.111,28.188,7.431,38.432-3.446
				C249.671,50.195,270.034,47.246,287.384,41.55z"/>
			<path style="fill:#E2E43C;" d="M69.34,260.713c1.09-7.889,0.301-16.507-4.58-22.8c-6.116-7.886-17.118-10.231-27.086-9.73
				c-27.025,1.356-52.146,21.168-59.764,47.133c-3.02,10.293-2.841,22.914,5.212,30c11.391,10.024,39.549,5.184,52.478-0.638
				C53.105,296.797,66.693,279.883,69.34,260.713z"/>
			<path style="fill:#E2E43C;" d="M198.553,100.751c2.133-9.271-2.012-20.357-10.877-23.81c-8.011-3.121-17.519,0.821-22.875,7.545
				c-5.356,6.724-7.234,15.599-7.647,24.186c-0.591,12.278,8.613,20.047,20.937,16.392
				C187.439,122.291,196.483,109.744,198.553,100.751z"/>
			<g>
				<g>
					<path style="fill:none;stroke:#E2E43C;stroke-miterlimit:10;" d="M485.104,354.038c9.55,8.444,13.379,18.211,18.535,24.471
						c4.788,6.402,10.539,9.327,15.698,7.361c5.117-1.957,5.37-7.111,0.188-13.274c-4.81-6.286-15.621-13.434-24.147-22.189
						c-9.251-8.512-13.772-17.039-20.024-21.937c-5.801-5.051-20.802-4.171-20.836-4.177c-0.062,0.022-6.342,6.212,1.267,10.764
						C462.928,339.754,476.327,345.314,485.104,354.038z"/>
					<path style="fill:none;stroke:#E2E43C;stroke-miterlimit:10;" d="M485.104,354.038c9.55,8.444,13.379,18.211,18.535,24.471
						c4.788,6.402,10.539,9.327,15.698,7.361c5.117-1.957,5.37-7.111,0.188-13.274c-4.81-6.286-15.621-13.434-24.147-22.189
						c-9.251-8.512-13.772-17.039-20.024-21.937c-5.801-5.051-20.802-4.171-20.836-4.177c-0.062,0.022-6.342,6.212,1.267,10.764
						C462.928,339.754,476.327,345.314,485.104,354.038z"/>
					<path style="fill:none;stroke:#E2E43C;stroke-miterlimit:10;" d="M454.518,324.293c3.398,2.048,15.629,8.508,34.323,26.332
						c19,17.403,39.772,44.973,53.176,75.888c13.82,30.731,20.278,64.81,20.274,90.991c0.525,26.236-5.409,44.572-4.112,45.02"/>
				</g>
				<g>
					<g>
						<path style="fill:none;stroke:#E2E43C;stroke-miterlimit:10;" d="M545.269,369.047c0.743,9.136,4.953,18.399,5.457,24.728
							c0.84,6.397-1.52,9.648-6.422,8.494c-4.921-1.151-8.268-5.553-8.682-11.59c-0.776-6.085,1.669-13.922,0.006-23.058
							c-0.938-9.051-6.283-17.352-7.512-22.859c-1.61-5.552,7.793-8.114,7.79-8.123c0.075-0.027,10.267,4.162,10.309,9.875
							C546.711,352.231,543.861,359.793,545.269,369.047z"/>
						<path style="fill:none;stroke:#E2E43C;stroke-miterlimit:10;" d="M545.269,369.047c0.743,9.136,4.953,18.399,5.457,24.728
							c0.84,6.397-1.52,9.648-6.422,8.494c-4.921-1.151-8.268-5.553-8.682-11.59c-0.776-6.085,1.669-13.922,0.006-23.058
							c-0.938-9.051-6.283-17.352-7.512-22.859c-1.61-5.552,7.793-8.114,7.79-8.123c0.075-0.027,10.267,4.162,10.309,9.875
							C546.711,352.231,543.861,359.793,545.269,369.047z"/>
						<path style="fill:none;stroke:#E2E43C;stroke-miterlimit:10;" d="M535.906,336.638c0.15,1.119,3.75,22.066,6.466,47.28
							c2.911,24.807,4.62,52.493,4.534,53.593"/>
					</g>
					<g>
						<path style="fill:none;stroke:#E2E43C;stroke-miterlimit:10;" d="M565.946,414.112c-0.281,10.009,2.018,20.275,1.705,27.074
							c-0.058,6.899-2.21,10.17-5.808,8.597c-3.616-1.576-5.746-6.484-5.488-12.986c-0.019-6.577,2.631-14.842,2.148-24.933
							c0.088-9.939-3.486-19.517-4.046-25.757c-0.861-6.315,6.924-8.501,6.922-8.508c0.076-0.026,7.91,5.455,7.412,11.8
							C568.661,395.786,565.719,403.93,565.946,414.112z"/>
						<path style="fill:none;stroke:#E2E43C;stroke-miterlimit:10;" d="M565.946,414.112c-0.281,10.009,2.018,20.275,1.705,27.074
							c-0.058,6.899-2.21,10.17-5.808,8.597c-3.616-1.576-5.746-6.484-5.488-12.986c-0.019-6.577,2.631-14.842,2.148-24.933
							c0.088-9.939-3.486-19.517-4.046-25.757c-0.861-6.315,6.924-8.501,6.922-8.508c0.076-0.026,7.91,5.455,7.412,11.8
							C568.661,395.786,565.719,403.93,565.946,414.112z"/>
						<path style="fill:none;stroke:#E2E43C;stroke-miterlimit:10;" d="M561.378,377.599c-0.153-0.298,1.309,25.139,0.852,52.397
							c-0.153,27.024-2.229,55.869-2.49,57.002"/>
					</g>
					<g>
						<path style="fill:none;stroke:#E2E43C;stroke-miterlimit:10;" d="M577.784,478.189c-1.854,10.641-2.239,21.662-3.761,28.739
							c-1.376,7.205-3.36,10.362-5.284,8.368c-1.947-2.004-2.417-7.294-1.133-14.07c1.112-6.882,4.26-15.326,5.549-26.129
							c1.656-10.589,0.587-21.278,1.057-28.133c0.273-6.969,6.094-8.672,6.096-8.672c0.075-0.023,4.783,6.723,3.423,13.573
							C582.626,458.793,579.334,467.317,577.784,478.189z"/>
						<path style="fill:none;stroke:#E2E43C;stroke-miterlimit:10;" d="M580.306,438.292c-0.138-0.336-2.52,27.802-7.72,56.345
							c-4.765,28.533-12.346,57.471-12.867,58.583"/>
					</g>
				</g>
				<g>
					<g>
						<path style="fill:none;stroke:#E2E43C;stroke-miterlimit:10;" d="M485.289,391.598c10.621,5.771,17.816,14.198,23.59,18.642
							c5.65,4.697,9.958,5.306,12.058,1.315c2.063-3.98,0.029-8.92-5.986-12.866c-5.873-4.187-15.786-7.423-26.153-13.61
							c-10.608-5.731-19.62-13.095-27.366-16.512c-7.64-3.647-16.021,0.087-15.987,0.068c-0.038-0.004,1.921,7.593,9.923,10.769
							C463.212,382.802,474.937,385.344,485.289,391.598z"/>
						<path style="fill:none;stroke:#E2E43C;stroke-miterlimit:10;" d="M485.289,391.598c10.621,5.771,17.816,14.198,23.59,18.642
							c5.65,4.697,9.958,5.306,12.058,1.315c2.063-3.98,0.029-8.92-5.986-12.866c-5.873-4.187-15.786-7.423-26.153-13.61
							c-10.608-5.731-19.62-13.095-27.366-16.512c-7.64-3.647-16.021,0.087-15.987,0.068c-0.038-0.004,1.921,7.593,9.923,10.769
							C463.212,382.802,474.937,385.344,485.289,391.598z"/>
						<path style="fill:none;stroke:#E2E43C;stroke-miterlimit:10;" d="M445.446,368.635c1.136,0.417,33.709,12.78,58.185,30.166
							c26.025,16.721,42.576,37.869,43.274,38.71"/>
					</g>
					<g>
						<path style="fill:none;stroke:#E2E43C;stroke-miterlimit:10;" d="M516.795,434.352c8.061,6.914,13.017,16.351,17.104,21.43
							c3.973,5.34,7.187,6.27,9.171,2.206c1.948-4.06,0.863-9.438-3.482-14.058c-4.214-4.869-11.724-8.99-19.566-16.363
							c-8.06-6.892-14.94-15.549-21.075-19.85c-6.036-4.542-13.091-1.004-13.053-1.019c-0.034-0.003,1.25,8.494,7.581,12.476
							C499.666,423.4,508.985,426.942,516.795,434.352z"/>
						<path style="fill:none;stroke:#E2E43C;stroke-miterlimit:10;" d="M485.894,406.698c3.061,1.906,27.187,16.432,44.821,36.579
							c19.217,19.632,28.665,42.784,29.02,43.724"/>
					</g>
					<g>
						<path style="fill:none;stroke:#E2E43C;stroke-miterlimit:10;" d="M541.589,495.093c4.657,7.912,6.547,18.102,8.384,23.688
							c1.721,5.843,3.543,7.106,5.497,3.134c1.919-3.982,2.173-9.644,0.049-14.837c-2.001-5.449-6.389-10.402-10.856-18.809
							c-4.671-7.914-8.614-17.678-12.596-22.792c-3.891-5.369-9.384-2.155-9.345-2.166c-0.029,0.005,0.148,9.185,4.264,13.898
							C530.978,482.173,537.176,486.684,541.589,495.093z"/>
						<path style="fill:none;stroke:#E2E43C;stroke-miterlimit:10;" d="M522.722,463.309c-0.185-0.211,18.494,19.833,27.002,42.279
							c10.131,22.11,10.093,46.62,9.993,47.633"/>
					</g>
				</g>
			</g>
			<g>
				<path style="fill:#95D750;" d="M781.454,104.615c-0.164,0.205-0.339,0.405-0.527,0.6c-4.138,4.306-11.107,2.751-13.912,1.882
					c-17.482-5.416-27.151-22.173-31.358-31.68c-1.751-3.954-3.235-8.038-4.566-12.162c-4.272-0.485-8.581-0.578-12.859-0.252
					c-14.665,1.114-28.642,6.777-42.159,12.253c-6.973,2.825-14.182,5.746-21.432,8.027c-4.483,1.411-9.298,2.657-14.137,2.23l0,0
					c-6.66-0.587-13.142-4.794-18.743-12.166c-9.345-12.296-14.854-31.701-12.544-44.177c1.113-6.003,4.196-11.479,8.515-16.187
					c-5.064-9.762-5.626-21.396-0.55-30.164c4.613-7.969,13.405-13.948,26.87-18.265c7.52-2.412,17.371-4.849,26.881-2.272
					c10.503,2.846,18.375,11.271,24.059,18.292c12.354,15.257,21.748,32.442,27.92,51.076c1.782,5.378,3.306,10.937,4.781,16.313
					c1.303,4.754,2.63,9.593,4.155,14.376c17.275,2.118,33.9,10.53,45.481,23.468C782.298,91.36,785.569,99.468,781.454,104.615z
					 M732.184,63.388c1.285,3.947,2.714,7.848,4.386,11.625c4.139,9.351,13.636,25.831,30.741,31.129
					c2.627,0.814,9.142,2.285,12.895-1.62c4.453-4.635,1.246-12.607-3.624-18.048C765.262,73.827,749.058,65.567,732.184,63.388z
					 M640.59,84.517c4.666,0.411,9.365-0.809,13.75-2.189c7.212-2.269,14.403-5.182,21.357-7.999
					c13.588-5.505,27.639-11.198,42.46-12.324c4.191-0.318,8.413-0.24,12.601,0.208c-1.473-4.659-2.763-9.363-4.031-13.986
					c-1.47-5.364-2.992-10.911-4.765-16.265c-6.135-18.519-15.47-35.597-27.748-50.761c-5.59-6.904-13.318-15.183-23.544-17.955
					c-9.256-2.509-18.925-0.111-26.314,2.258c-13.219,4.239-21.828,10.065-26.31,17.815c-4.854,8.386-4.363,19.497,0.406,28.895
					C630.066,0.163,649.837-6.607,664.895-3.97c8.968,1.57,16.283,5.975,20.071,12.085c4.055,6.543,3.85,16.985-2.912,22.096
					c-3.145,2.378-7.181,3.266-10.713,3.82c-17.2,2.7-33.294-0.743-44.154-9.449c-3.715-2.978-6.733-6.657-8.968-10.69
					c-4.072,4.522-6.958,9.74-8.018,15.46c-2.266,12.232,3.161,31.292,12.356,43.39C627.983,79.883,634.219,83.955,640.59,84.517
					L640.59,84.517z M618.929,13.122c2.19,4.031,5.181,7.712,8.883,10.68c10.641,8.531,26.45,11.899,43.373,9.243
					c3.411-0.536,7.297-1.386,10.266-3.63c6.331-4.786,6.488-14.603,2.665-20.773c-3.637-5.868-10.706-10.106-19.394-11.627
					C649.838-5.592,630.253,1.157,618.929,13.122z"/>
			</g>
			<g>
				<path style="fill:#71C75A;" d="M125.657,504.223c-1.643,1.394-3.326,2.716-5.052,3.963
					c-11.874,8.586-40.551,22.419-56.199,17.107c-11.624-5.192-17.764-14.19-18.301-26.761
					c-1.466-34.264,40.584-86.582,62.678-98.816c15.095-7.707,29.019-6.773,39.226,2.619c12.771,11.752,16.398,34.05,8.631,53.029
					C150.588,475.194,139.696,492.307,125.657,504.223z M98.975,408.251c-22.467,19.069-52.876,61.216-51.635,90.227
					c0.516,12.065,6.41,20.7,17.517,25.665c15.167,5.146,43.328-8.503,55.024-16.959c16.26-11.769,28.904-30.303,35.583-52.209
					l0.019-0.054c7.594-18.523,4.098-40.256-8.312-51.676c-9.798-9.017-23.226-9.883-37.809-2.437
					C106.244,402.536,102.718,405.074,98.975,408.251z"/>
			</g>
			<path style="fill:#E2E43C;" d="M672.395,111.771c11.454-8.727,20.487-21.214,22.975-35.396
				c2.488-14.183-2.368-29.944-13.805-38.693s-29.35-8.76-39.549,1.404c-18.014,17.951-5.252,53.604-24.321,70.43
				c-6.453,5.694-16.567,9.507-17.203,18.091C598.119,159.666,664,118.167,672.395,111.771z"/>
		</g>
	</g>
</g>
</svg>
