<?xml version="1.0" encoding="utf-8"?>
<!-- Generator: Adobe Illustrator 27.5.0, SVG Export Plug-In . SVG Version: 6.00 Build 0)  -->
<svg version="1.1" xmlns="http://www.w3.org/2000/svg" xmlns:xlink="http://www.w3.org/1999/xlink" x="0px" y="0px"
	 viewBox="0 0 750 500" style="enable-background:new 0 0 750 500;" xml:space="preserve">
<g id="BACKGROUND">
	<rect y="0" style="fill:#3EB54A;" width="750" height="500"/>
</g>
<g id="OBJECTS">
	<g>
		<defs>
			<rect id="SVGID_1_" y="0" width="750" height="500"/>
		</defs>
		<clipPath id="SVGID_00000067954370000679406340000017973700166037977533_">
			<use xlink:href="#SVGID_1_"  style="overflow:visible;"/>
		</clipPath>
		<g style="clip-path:url(#SVGID_00000067954370000679406340000017973700166037977533_);">
			<path style="fill:#F15E4F;" d="M179.397,157.37c-19.356,9.678-35.246-2.518-45.457-18.073c-9.458,5.82-19.5,13.721-28.926,19.428
				c11.799,20.533,35.075,33.939,58.756,33.842c23.682-0.097,46.847-13.694,58.477-34.323c11.631-20.629,11.274-47.487-0.901-67.8
				c-8.558,5.895-18.283,11.175-27.741,16.269C203.019,123.986,197.843,148.147,179.397,157.37z"/>
			<path style="fill:#FFCD39;" d="M197.513,110.527c4.087-1.597,9.363-0.47,11.118,3.912c0.718,1.794,0.607,3.889-0.607,5.438
				c-1.179,1.505-3.147,2.392-5.038,1.913c-0.151,0.98-0.302,1.961-0.453,2.941c4.081,0.42,7.185,5.102,5.949,9.02
				c-1.25,3.96-6.549,5.833-10.092,3.854c-1.681-0.939-3.206,1.588-1.536,2.577c3.816,2.261,5.276,7.751,2.855,11.541
				c-2.439,3.818-8.078,4.622-11.7,2.134c-1.429-0.981-2.985,1.128-1.842,2.337c2.489,2.632,2.071,7.554-1.026,9.576
				c-3.174,2.072-8.084,0.202-9.249-3.35c-0.596-1.818-3.489-1.156-2.918,0.7c1.082,3.516-1.375,7.912-5.229,8.211
				c-3.615,0.28-6.792-3.191-6.523-6.703c0.149-1.946-2.791-1.968-3-0.074c-0.373,3.38-4.271,5.99-7.534,4.977
				c-3.29-1.021-4.944-5.386-3.36-8.379c0.897-1.695-1.579-3.208-2.577-1.536c-1.483,2.481-5.292,3.328-7.614,1.48
				c-2.403-1.912-2.19-6.27,0.286-8.033c1.533-1.092,0.222-3.668-1.45-2.627c-2.783,1.734-7.221,0.424-8-2.979
				c-0.7-3.058,1.763-6.102,4.758-6.463c1.916-0.231,1.196-3.147-0.7-2.918c-4.687,0.565-8.226,5.822-6.896,10.387
				c1.458,5.007,7.906,7.33,12.288,4.6c-0.483-0.876-0.966-1.751-1.45-2.627c-4.054,2.887-4.889,9.411-0.921,12.807
				c3.693,3.16,9.81,2.035,12.276-2.091c-0.859-0.512-1.718-1.024-2.577-1.536c-2.487,4.699-0.095,11.199,5.105,12.797
				c5.228,1.608,10.787-2.529,11.366-7.785c-1-0.025-2-0.049-3-0.074c-0.403,5.261,4.473,10.176,9.753,9.753
				c5.571-0.446,9.542-6.603,7.916-11.887c-0.973,0.233-1.945,0.466-2.918,0.7c1.755,5.353,8.651,8.384,13.617,5.277
				c4.796-3,5.564-10.238,1.724-14.298c-0.614,0.779-1.228,1.558-1.842,2.337c4.995,3.431,12.541,1.949,15.814-3.175
				c3.292-5.153,1.282-12.586-3.896-15.654c-0.512,0.859-1.024,1.718-1.536,2.577c5.25,2.932,12.669,0.229,14.511-5.599
				c1.854-5.869-2.817-12.24-8.757-12.852c-1.7-0.175-2.091,2.526-0.453,2.941c6.196,1.568,11.415-4.792,9.495-10.653
				c-2.177-6.645-9.569-8.47-15.586-6.119c-0.761,0.297-0.936,1.392-0.588,2.038C195.901,110.73,196.761,110.821,197.513,110.527
				L197.513,110.527z"/>
		</g>
		<path style="clip-path:url(#SVGID_00000067954370000679406340000017973700166037977533_);fill:#FFCD39;" d="M-3.83,203.403
			c22.695,16.375,54.91,13.018,79.686,0.004c24.776-13.014,44.15-34.063,64.388-53.392c20.238-19.329,42.998-37.89,70.361-43.76
			c29.757-6.383,61.276,3.084,90.935-3.738C347.442,91.96,377.769,37.605,362.646-7H-10"/>
		<g style="clip-path:url(#SVGID_00000067954370000679406340000017973700166037977533_);">
			<defs>
				<path id="SVGID_00000150070997129935221530000002195805515614431923_" d="M-3.83,203.403
					c22.695,16.375,54.91,13.018,79.686,0.004c24.776-13.014,44.15-34.063,64.388-53.392c20.238-19.329,42.998-37.89,70.361-43.76
					c29.757-6.383,61.276,3.084,90.935-3.738C347.442,91.96,377.769,37.605,362.646-7H-10"/>
			</defs>
			<clipPath id="SVGID_00000143598713346499221520000010399233677220734385_">
				<use xlink:href="#SVGID_00000150070997129935221530000002195805515614431923_"  style="overflow:visible;"/>
			</clipPath>
			<g style="clip-path:url(#SVGID_00000143598713346499221520000010399233677220734385_);">
				<path style="fill:#3EB54A;" d="M161.957,94.348c-6.722,16.723-7.891,35.625-3.279,53.049c-3.923,0.235-7.524,2.052-11.447,2.287
					c-7.086-19.809-3.982-41.74,5.529-60.505"/>
				<g>
					<path style="fill:#3EB54A;" d="M125.517,86.958c7.062,3.73,12.552,10.331,14.933,17.955c2.381,7.623,1.624,16.176-2.058,23.262
						C125.502,118.947,117.368,105.498,125.517,86.958z"/>
					<path style="fill:#FFCD39;" d="M137.702,126.752c-6.187-12.058-10.516-25-12.878-38.344c-0.212-1.196,1.664-1.364,1.874-0.179
						c2.333,13.182,6.66,25.965,12.771,37.874C140.022,127.18,138.249,127.818,137.702,126.752L137.702,126.752z"/>
				</g>
				<g>
					<path style="fill:#F15E4F;" d="M143.692,44.216c-8.267,10.64-8.76,26.657-1.164,37.786
						c7.596,11.129,22.691,16.506,35.612,12.684c12.921-3.821,22.664-16.544,22.984-30.014c0.102-4.3-5.056-7.895-9.348-8.165
						c-4.293-0.27-8.433,1.979-11.44,5.055c1.463-4.594-1.147-10.1-5.63-11.876c-4.483-1.776-10.155,0.45-12.235,4.8
						c0.187-4.195-2.316-8.388-6.097-10.214C152.594,42.444,146.268,40.9,143.692,44.216z"/>
					<g>
						<path style="fill:#FBC6BB;" d="M181.365,62.252c-3.567,12.739-11.458,24.015-22.159,31.781
							c-0.982,0.713-1.922-0.92-0.95-1.625c10.294-7.471,17.866-18.415,21.294-30.656C179.876,60.587,181.693,61.082,181.365,62.252
							L181.365,62.252z"/>
						<path style="fill:#FBC6BB;" d="M163.189,54.747c-4.048,12.249-5.255,25.358-3.424,38.135c0.17,1.185-1.644,1.697-1.815,0.5
							c-1.881-13.119-0.737-26.546,3.423-39.136C161.752,53.101,163.571,53.592,163.189,54.747L163.189,54.747z"/>
						<path style="fill:#FBC6BB;" d="M159.821,91.245c8.905-1.065,17.012-6.53,21.44-14.306c0.599-1.053,2.226-0.105,1.625,0.95
							c-4.784,8.399-13.488,14.093-23.066,15.238C158.621,93.271,158.631,91.387,159.821,91.245L159.821,91.245z"/>
						<path style="fill:#FBC6BB;" d="M158.402,91.568c2.839-6.415,5.084-13.079,6.74-19.895c0.286-1.177,2.102-0.678,1.815,0.5
							c-1.696,6.979-4.024,13.778-6.93,20.345C159.538,93.623,157.916,92.666,158.402,91.568L158.402,91.568z"/>
						<path style="fill:#FBC6BB;" d="M158.442,92.551c-8.955-4.989-13.458-15.437-11.014-25.386c0.289-1.176,2.105-0.678,1.815,0.5
							c-2.247,9.147,1.936,18.684,10.149,23.26C160.45,91.516,159.502,93.142,158.442,92.551L158.442,92.551z"/>
					</g>
				</g>
			</g>
			<g style="clip-path:url(#SVGID_00000143598713346499221520000010399233677220734385_);">
				<path style="fill:#20477C;" d="M88.273,220.686c13.939,0.12,26.684-8.108,30.54-21.854c3.65-12.999-2.807-27.383-14.661-33.66
					c-11.625-6.156-32.057-8.397-41.165,3.204c-7.722,7.855-10.794,19.733-7.192,30.455
					C60.528,212.904,73.876,220.554,88.273,220.686z M93.73,198.206c-11.216,9.734-22.095-9.915-9.216-14.722
					C92.586,181.485,101.994,191.026,93.73,198.206z"/>
				<path style="fill:#FFCD39;" d="M101.556,172.313c-6.702-6.817-21.868-10.267-30.262-4.396c-0.035,0.022-0.068,0.047-0.103,0.069
					c-0.056,0.04-0.114,0.076-0.169,0.117c-8.031,5.284-12.097,18.627-9.716,27.091c4.542,16.148,22.705,20.328,36.706,13.809
					C112.265,202.366,111.413,182.34,101.556,172.313z M92.293,205.355c-10.482,3.181-22.608-0.004-25.941-11.553
					c-1.488-5.156-0.596-10.909,2.094-15.518c1.773-3.038,4.044-5.07,6.678-6.62c7.723-3.535,18.667-0.569,23.831,5.757
					C106.688,186.896,104.768,201.569,92.293,205.355z"/>
			</g>
		</g>
		<g style="clip-path:url(#SVGID_00000067954370000679406340000017973700166037977533_);">
			<g>
				<path style="fill:#FFCD39;" d="M274.885,499.988c-11.589-39.943-0.363-84.575,28.494-114.55
					c29.363-30.501,74.337-43.939,115.859-37.44c43.125,6.75,85.189,33.854,129.948,22.85c18.815-4.626,35.96-15.909,47.784-31.234
					c13.466-17.453,17.659-39.375,27.402-58.75c10.614-21.104,29.87-36.963,52.869-42.738c24.871-6.244,51.901,0.621,71.339,17.157
					c1.957,1.665,4.81-1.166,2.837-2.837c-32.65-27.663-81.311-26.82-112.634,2.477c-16.734,15.651-22.988,36.801-31.306,57.414
					c-8.672,21.492-22.7,39.196-43.977,49.259c-46.407,21.947-94.099-8.68-139.834-16.708c-40.9-7.179-84.974,3.732-116.205,31.568
					c-33.791,30.117-49.416,80.724-34.404,124.037C273.454,501.63,275.228,501.171,274.885,499.988L274.885,499.988z"/>
			</g>
		</g>
		<g style="clip-path:url(#SVGID_00000067954370000679406340000017973700166037977533_);">
			<path style="fill:#F15E4F;" d="M549.526,241.141c-11.108,5.104-12.69,42.823-12.821,60.256
				c-0.609-5.44-2.028-14.195-5.088-28.262c-4.006-18.417-16.258-59.046-33.1-45.286c-16.842,13.76,7.655,65.993,7.655,65.993
				s-6.856-9.467-16.532-18.709c-9.676-9.243-49.805-31.162-61.743-10.939c-11.938,20.223,40.293,77.854,75.647,100.314
				c35.354,22.46,88.127,43.802,84.291-21.96C584,276.787,564.039,234.473,549.526,241.141z"/>
			<g>
				<path style="fill:#FFCD39;" d="M562.205,292.072c-0.666-1.308-1.431-2.879-2.707-3.7c-2.282-1.47-4.076,0.909-4.933,2.822
					c-1.66,3.708-1.883,8.103-1.694,12.105c0.371,7.842,2.362,16.007,4.816,23.454c1.278,3.877,2.732,7.712,4.393,11.442
					c0.814,1.829,4.252,8.373,4.417,5.907c0.368-5.518-0.12-11.037-0.284-16.562c-0.149-5.017-0.009-10.031-0.096-15.048
					c-0.081-4.649-0.383-9.33-1.507-13.857C564.048,296.37,563.264,294.154,562.205,292.072z"/>
				<path style="fill:#FFCD39;" d="M534.041,309.806c-1.403-2.519-2.821-5.146-4.87-7.209c-1.607-1.618-3.972-2.96-6.205-1.684
					c-2.228,1.272-2.63,4.321-2.695,6.631c-0.25,8.908,4.217,17.435,9.068,24.61c3.076,4.55,6.413,9.004,9.97,13.19
					c3.282,3.863,13.028,12.169,12.071,9.194c-1.673-5.202-3.687-10.274-5.681-15.357c-1.994-5.086-3.649-10.287-5.507-15.422
					C538.46,318.971,536.521,314.26,534.041,309.806z"/>
				<path style="fill:#FFCD39;" d="M516.933,337.05c-5.622-6.225-11.204-12.487-16.886-18.656
					c-2.287-2.483-13.507-15.759-16.887-9.136c-1.637,3.208,0.594,8.243,1.938,11.21c2.866,6.326,7.577,11.85,12.628,16.551
					c5.712,5.316,12.26,9.635,19.124,13.31c2.725,1.459,5.433,2.971,8.26,4.228c2.491,1.108,10.722,3.273,8.672,0.638
					C528.723,348.694,522.451,343.16,516.933,337.05z"/>
			</g>
		</g>
		<path style="clip-path:url(#SVGID_00000067954370000679406340000017973700166037977533_);fill:#20477C;" d="M289.85,519.324
			c-17.252-39.226-11.706-87.555,13.982-121.854c25.688-34.299,70.505-53.215,113-47.694c28.38,3.687,54.447,17.188,81.988,24.965
			c27.542,7.777,59.958,8.793,81.869-9.616c24.569-20.642,27.358-57.87,47.513-82.84c15.473-19.169,40.169-29.299,64.725-31.272
			c24.555-1.974,49.138,3.437,72.63,10.853V517.47"/>
		<g style="clip-path:url(#SVGID_00000067954370000679406340000017973700166037977533_);">
			<path style="fill:#F15E4F;" d="M122.785,299.321c-28.047,31.63-63.783,56.028-103.63,70.237
				c-16.126,5.762-34.76,9.193-42.265,26.586c-6.223,14.435-3.565,31.479,2.669,45.419c7.501,16.79,20.763,30.288,37.167,38.441
				c-10.949,14.79-21.459,29.89-31.547,45.272c-0.414,0.645-0.303,1.691,0.531,1.977c5.647,1.893,10.723,4.364,15.683,7.72
				c0.666,0.456,1.658,0.278,1.977-0.531c7.262-18.214,14.677-36.39,21.398-54.797c0.139-0.387,0.035-0.727-0.188-0.962l0.039-0.035
				c14.921,14.114,35.723,24.078,56.575,19.17c18.495-4.356,32.682-19.066,33.665-38.396c0.627-12.549-2.61-25.124-4.545-37.447
				c-2.265-14.444-4.048-29.027-3.909-43.676c0.222-26.963,6.782-53.481,18.633-77.676
				C125.718,299.222,123.719,298.268,122.785,299.321z"/>
			<path style="fill:#20477C;" d="M114.862,310.103c-9.262,13.773-18.297,27.785-27.126,41.966
				c-0.253-0.696-0.539-1.391-0.773-2.085c-0.923-2.74-1.795-5.555-3.048-8.163c-0.605-1.26-2.58-0.785-2.404,0.66
				c0.349,2.866,1.13,5.7,1.828,8.499c0.451,1.81,0.607,3.884,1.783,5.28c-4.002,6.479-7.97,12.985-11.87,19.54
				c-0.84-6.643-4.658-13.999-8.627-17.832c-1.05-1.014-2.639,0.463-2.136,1.66c1.668,3.97,3.814,7.575,4.932,11.781
				c0.957,3.602,0.776,7.498,1.946,10.984c-6.139,10.449-12.159,20.978-18.013,31.6c-0.537-12.348-5.542-27.444-13.842-35.417
				c-1.012-0.972-2.788,0.464-2.156,1.676c3.557,6.81,6.731,13.209,8.524,20.764c1.472,6.203,1.605,12.852,3.734,18.847
				c0.065,0.183,0.167,0.329,0.276,0.467c-8.282,15.23-16.262,30.619-23.877,46.152c-0.764-6.014-3.021-12.204-4.027-18.059
				c-1.347-7.84-2.486-15.725-4.148-23.506c-1.492-6.984-3.356-14-6.263-20.542c-1.989-4.476-4.734-11.206-9.564-13.208
				c-1.367-0.566-2.393,1.287-1.273,2.205c4.876,3.996,7.505,13.803,9.194,19.633c2.123,7.33,3.253,14.94,4.306,22.483
				c0.927,6.65,1.744,13.311,2.951,19.919c1.016,5.558,1.662,12.113,5.119,16.711c0.186,0.248,0.435,0.415,0.703,0.549
				c-8.237,17.053-16.061,34.26-23.377,51.601c-1.356,3.215,3.512,5.208,4.975,2.077c8.392-17.96,16.778-35.906,25.337-53.769
				c0.454,0.205,0.997,0.246,1.591,0.006c22.523-9.068,45.806-12.712,70.015-11.949c1.034,0.033,1.293-1.501,0.222-1.628
				c-23.49-2.783-47.427,0.59-69.541,8.826c6.472-13.444,13.057-26.833,19.822-40.142c0.061-0.013,0.117-0.017,0.18-0.034
				c14.212-4.013,28.469-5.728,43.12-7.133c1.231-0.118,1.275-2.15,0.002-2.213c-13.735-0.68-27.5,1.327-40.839,4.567
				c0.872-1.7,1.733-3.406,2.611-5.103c5.314-10.268,10.781-20.459,16.345-30.598c2.837,0.118,5.65-1.261,8.452-1.789
				c3.428-0.645,6.916-0.952,10.399-1.072c1.538-0.053,1.513-2.551,0.003-2.696c-3.882-0.375-7.714-0.324-11.573,0.306
				c-1.594,0.261-3.334,0.518-4.948,1.022c4.094-7.408,8.258-14.778,12.451-22.131c1.706-0.497,3.33-1.203,5.1-1.553
				c2.277-0.45,4.546-0.514,6.855-0.301c1.459,0.135,1.774-2.088,0.309-2.264c-3.166-0.381-6.959-0.38-10.253,0.612
				c8.958-15.64,18.088-31.182,27.326-46.643C115.894,310.164,115.2,309.6,114.862,310.103z"/>
		</g>
		<g style="clip-path:url(#SVGID_00000067954370000679406340000017973700166037977533_);">
			<path style="fill:#F15E4F;" d="M752.779,230.084c-0.505-28.955-1.657-57.887-1.739-86.858
				c-0.078-29.17,0.665-58.321,1.718-87.467c0.037-1.156-1.387-1.385-1.962-0.664c-0.17-0.19-0.416-0.307-0.752-0.302
				c-7.587,0.147-16.287,1.127-20.191,8.627c-1.375,2.631-1.876,5.703-1.716,8.654c0.29,5.004,3.877,8.725,3.575,13.48
				c-0.247,3.924-0.407,3.883-3.686,6.025c-0.782,0.505-1.575,0.973-2.393,1.415c-2.655,1.435-5.488,2.53-8.345,3.537
				c-4.786,1.687-9.7,2.986-14.404,4.91c-5.833,2.398-12.747,5.307-10.806,12.697c2.081,7.853,9.275,14.374,15.286,19.291
				c3.189,2.605,6.53,5.027,9.783,7.572c0.953,0.754,3.346,2.248,3.739,3.003c1.11,2.125-1.082,8.058-2.359,9.634
				c-2.044,2.517-5.691,4.44-8.413,6.134c-7.032,4.361-17.792,6.329-22.902,13.218c-4.662,6.29-1.685,14.088,3.101,19.313
				c7.871,8.588,18.6,15.521,28.363,21.725c10.535,6.693,21.612,12.478,33.185,17.179c0.037,0.013,0.074,0.039,0.111,0.052
				c0.037,0.013,0.074,0.026,0.111,0.04C752.784,231.589,753.317,230.506,752.779,230.084z"/>
			<path style="fill:#20477C;" d="M747.855,59.841c-5.088,2.154-10.989,5.435-12.015,11.422c-1.234,7.201,5.823,12.415,5.338,19.31
				c-0.686,9.75-13.001,12.235-20.169,15.804c-4.52,2.251-10.863,6.37-10.637,12.161c0.243,6.2,7.548,12.606,11.892,16.225
				c3.794,3.161,9.252,5.692,9.218,11.262c-0.035,5.721-5.295,9.431-9.862,11.865c-10.012,5.336-26.281,13.119-17.962,27.221
				c4.312,7.31,11.839,13.461,18.425,18.648c7.323,5.767,15.588,11.154,24.432,14.246c0.531,0.186,0.87-0.604,0.398-0.89
				c-9.254-5.619-18.23-10.824-26.317-18.157c-7.651-6.938-21.731-18.861-10.959-28.964c6.498-6.094,16.364-6.84,22.51-13.507
				c4.338-4.706,6.488-11.678,2.823-17.413c-1.949-3.049-5.098-4.937-7.877-7.117c-3.17-2.487-9.876-7.807-10.948-11.926
				c-2.182-8.384,17.144-12.625,22.201-16.235c5.28-3.769,9.161-9.556,7.585-16.266c-0.817-3.476-3.102-6.256-4.603-9.415
				c-3.846-8.093,1.779-11.782,8.3-15.085C751.761,61.95,749.974,58.944,747.855,59.841z"/>
		</g>
		<g style="clip-path:url(#SVGID_00000067954370000679406340000017973700166037977533_);">
			<path style="fill:#3EB54A;" d="M658.482,410.072c0.883,9.983,12.949,17.737,22.828,22.024
				c-7.353-0.394-16.799-1.072-14.651,8.047c1.46,6.202,8.417,12.76,12.637,17.185c5.142,5.38,10.843,10.051,17.005,14.187
				c-10.324,2.175-25.004,8.687-18.143,21.316c3.605,6.63,12.378,10.352,18.714,13.616c9.51,4.901,19.471,8.73,29.745,11.726
				c0.271,0.087,0.533,0.077,0.761,0.009c-0.04,0.393,0.342,0.81,0.751,0.55c0.497-0.311,0.99-0.643,1.483-0.975
				c0.068-0.047,0.135-0.094,0.223-0.145c0.253,0.003,0.528-0.053,0.789-0.228c13.812-9.458,25.555-25.775,26.143-43.057
				c0.181-5.01-1.242-10.548-6.434-12.529c-5.345-2.027-11.137,0.999-16.726,1.696c6.539-6.623,13.051-15.144,9.608-24.789
				c-3.118-8.755-11.968-9.534-19.973-8.44c5.003-6.869,9.425-14.103,13.047-21.81c2.154-4.568,5.035-10.682,1.975-15.51
				c-5.131-8.111-15.611-4.287-22.053,1.415c4.447-14.939,7.69-31.128,0.038-45.519c-6.359-11.951-19.222-18.606-32.368-13.893
				c-12.645,4.532-21.305,17.004-20.983,30.414c0.34,13.604,8.402,25.601,19.103,33.459
				C672.857,399.178,657.391,397.689,658.482,410.072z"/>
			<path style="fill:#FFCD39;" d="M729.115,504.611c-1.167-3.353-2.292-6.719-3.398-10.09c1.908-3.084,3.272-6.492,5.369-9.506
				c2.683-3.856,5.867-7.288,9.321-10.462c1.141-1.049-0.174-3.29-1.579-2.364c-5.667,3.738-11.785,9.275-15.22,15.716
				c-3.027-9.601-5.842-19.265-8.396-28.996c2.292-2.54,4.116-5.618,6.316-8.214c3.572-4.214,7.518-8.082,11.677-11.713
				c1.264-1.103-0.365-2.83-1.676-1.916c-5.652,3.939-13.285,9.635-17.772,16.132c-1.925-7.626-3.727-15.283-5.372-22.973
				c2.837-4.518,4.993-9.548,7.826-14.078c3.269-5.228,6.878-10.213,10.604-15.122c0.748-0.986-0.747-2.282-1.641-1.432
				c-6.679,6.354-13.965,14.608-18.282,23.464c-2.171-10.745-4.099-21.541-5.727-32.384c0.583-0.254,1.069-0.804,1.229-1.71
				c1.872-10.627,5.524-20.734,10.677-30.21c0.548-1.008-0.802-1.925-1.498-0.988c-5.466,7.362-9.294,15.265-11.689,23.904
				c-1.976-14.51-3.483-29.087-4.513-43.702c-0.065-0.919-1.485-1.049-1.472-0.08c0.185,13.489,0.922,26.934,2.153,40.317
				c-4.793-7.833-14.131-14.529-21.079-17.367c-1.067-0.436-1.842,1.219-0.875,1.818c5.302,3.285,10.239,6.96,14.183,11.851
				c3.566,4.421,5.046,10.105,8.655,14.31c0.065,0.076,0.144,0.13,0.221,0.184c1.341,11.886,3.134,23.708,5.269,35.469
				c-8.762-7.478-19.069-13.006-30.458-15.231c-1.528-0.299-2.334,1.838-0.77,2.37c11.504,3.914,21.419,9.237,30.305,17.61
				c0.584,0.55,1.274,0.682,1.906,0.558c1.49,7.767,3.168,15.499,4.99,23.199c-6.069-3.26-12.229-6.464-18.566-9.07
				c-1.172-0.482-1.939,1.281-0.944,1.962c6.57,4.495,13.689,8.334,20.708,12.12c2.53,10.263,5.387,20.451,8.502,30.572
				c-6.91-4.981-16.965-8.315-24.094-10.662c-1.089-0.359-1.949,1.275-0.898,1.866c5.26,2.957,10.689,5.615,16.011,8.46
				c3.547,1.896,6.699,3.917,10.423,5.015c1.469,4.628,2.983,9.245,4.576,13.839C725.292,510.465,730.28,507.958,729.115,504.611z"
				/>
		</g>
		<g style="clip-path:url(#SVGID_00000067954370000679406340000017973700166037977533_);">
			<path style="fill:#20477C;" d="M311.087,1.22c0,18.324,0,36.648,0,54.972c0,18.254,0,36.508,0,54.762c0,10.281,0,20.562,0,30.843
				c0,1.625,2.525,1.627,2.525,0c0-18.324,0-36.648,0-54.972c0-18.254,0-36.508,0-54.762c0-10.281,0-20.562,0-30.843
				C313.612-0.405,311.087-0.408,311.087,1.22L311.087,1.22z"/>
			<path style="fill:#20477C;" d="M343.132,1.22c0,18.324,0,36.648,0,54.972c0,18.254,0,36.508,0,54.762c0,10.281,0,20.562,0,30.843
				c0,1.625,2.525,1.627,2.525,0c0-18.324,0-36.648,0-54.972c0-18.254,0-36.508,0-54.762c0-10.281,0-20.562,0-30.843
				C345.657-0.405,343.132-0.408,343.132,1.22L343.132,1.22z"/>
			<path style="fill:#20477C;" d="M377.448,1.22c0,18.324,0,36.648,0,54.972c0,18.254,0,36.508,0,54.762c0,10.281,0,20.562,0,30.843
				c0,1.625,2.525,1.627,2.525,0c0-18.324,0-36.648,0-54.972c0-18.254,0-36.508,0-54.762c0-10.281,0-20.562,0-30.843
				C379.973-0.405,377.448-0.408,377.448,1.22L377.448,1.22z"/>
			<path style="fill:#20477C;" d="M409.493,1.22c0,18.324,0,36.648,0,54.972c0,18.254,0,36.508,0,54.762c0,10.281,0,20.562,0,30.843
				c0,1.625,2.525,1.627,2.525,0c0-18.324,0-36.648,0-54.972c0-18.254,0-36.508,0-54.762c0-10.281,0-20.562,0-30.843
				C412.018-0.405,409.493-0.408,409.493,1.22L409.493,1.22z"/>
			<path style="fill:#20477C;" d="M431.841,21.043c-18.324,0-36.648,0-54.972,0c-18.254,0-36.508,0-54.762,0
				c-10.281,0-20.562,0-30.843,0c-1.625,0-1.628,2.525,0,2.525c18.324,0,36.648,0,54.972,0c18.254,0,36.508,0,54.762,0
				c10.281,0,20.562,0,30.843,0C433.466,23.568,433.469,21.043,431.841,21.043L431.841,21.043z"/>
			<path style="fill:#20477C;" d="M431.841,53.088c-18.324,0-36.648,0-54.972,0c-18.254,0-36.508,0-54.762,0
				c-10.281,0-20.562,0-30.843,0c-1.625,0-1.628,2.525,0,2.525c18.324,0,36.648,0,54.972,0c18.254,0,36.508,0,54.762,0
				c10.281,0,20.562,0,30.843,0C433.466,55.613,433.469,53.088,431.841,53.088L431.841,53.088z"/>
			<path style="fill:#20477C;" d="M431.841,87.404c-18.324,0-36.648,0-54.972,0c-18.254,0-36.508,0-54.762,0
				c-10.281,0-20.562,0-30.843,0c-1.625,0-1.628,2.525,0,2.525c18.324,0,36.648,0,54.972,0c18.254,0,36.508,0,54.762,0
				c10.281,0,20.562,0,30.843,0C433.466,89.929,433.469,87.404,431.841,87.404L431.841,87.404z"/>
			<path style="fill:#20477C;" d="M431.841,119.449c-18.324,0-36.648,0-54.972,0c-18.254,0-36.508,0-54.762,0
				c-10.281,0-20.562,0-30.843,0c-1.625,0-1.628,2.525,0,2.525c18.324,0,36.648,0,54.972,0c18.254,0,36.508,0,54.762,0
				c10.281,0,20.562,0,30.843,0C433.466,121.974,433.469,119.449,431.841,119.449L431.841,119.449z"/>
		</g>
		<g style="clip-path:url(#SVGID_00000067954370000679406340000017973700166037977533_);">
			<path style="fill:#F7A7A5;" d="M458.095,4.171c-0.262-3.822-0.205-11.588-3.142-14.553c-2.723-2.738-9.33-0.775-12.487-0.504
				c-36.733,3.115-73.353,2.262-110.109,0.064c-0.377-0.013-0.571,0.264-0.573,0.538c-0.616-0.227-1.412-0.056-1.707,0.741
				c-7.773,21.389-3.416,45.88,10.764,63.634c14.33,17.918,37.867,25.799,60.319,22.629c22.892-3.221,41.88-18.187,51.094-39.278
				C456.807,27.021,458.884,15.52,458.095,4.171z"/>
			<g>
				<path style="fill:#20477C;" d="M435.257,7.887c0.094,27.023-21.24,50.307-49.052,48.639c-13.369-0.802-26.189-6.763-34.64-17.28
					c-10.149-12.632-13.074-28.377-14.598-44.078c-0.099-1.024-1.71-0.841-1.762,0.14c-1.686,32.072,17.061,65.188,51.727,67.074
					c29.987,1.631,55.844-24.161,54.643-54.176C441.414,4.192,435.242,3.774,435.257,7.887z"/>
				<path style="fill:#20477C;" d="M412.651,3.378c-2.572,6.549-2.794,13.272-6.746,19.416
					c-4.589,7.134-11.875,11.523-20.425,11.582c-18.079,0.123-29.823-15.377-34.914-31.095c-0.17-0.527-0.998-0.376-0.859,0.183
					c4.342,17.569,16.887,34.553,36.615,34.606c16.795,0.045,31.965-17.01,31.156-33.82C417.344,1.466,413.714,0.672,412.651,3.378z
					"/>
				<path style="fill:#20477C;" d="M390.43,5.363c-1.259,4.656-4.711,8.459-10.067,7.47c-6.086-1.124-8.445-7.364-9.512-12.697
					c-0.171-0.854-1.566-1.004-1.77-0.086c-1.641,7.397,3.714,15.886,11.364,17.018c6.66,0.986,14.921-4.135,14.251-11.497
					C394.493,3.335,390.977,3.341,390.43,5.363z"/>
			</g>
		</g>
		<g style="clip-path:url(#SVGID_00000067954370000679406340000017973700166037977533_);">
			<path style="fill:#3EB54A;" d="M26.34-0.782C-0.178,9.798-20.001,35.561-23.434,63.905c-2.362,19.504,9.934,42.509,23.161,57.036
				c13.227,14.526,34.544,21.876,53.47,16.604c5.139-1.431,10.576-4.327,12.003-9.467c2.061-7.422-5.161-13.882-11.531-18.214
				c-7.89-5.366-15.78-10.733-23.67-16.099c-1.314-0.894-2.695-1.867-3.312-3.332c-1.286-3.053,1.689-6.555,4.967-7.027
				c3.278-0.472,6.476,1.126,9.311,2.839c7.676,4.638,14.926,10.617,23.738,12.287c8.811,1.67,19.792-3.361,20.311-12.314
				c0.406-7.001-5.647-12.777-12.013-15.719c-6.366-2.942-13.51-4.173-19.47-7.868c-3.315-2.055-6.423-5.508-5.837-9.364
				c0.609-4.003,5.129-6.444,9.168-6.167c4.039,0.276,7.642,2.532,11.006,4.786c9.753,6.534,21.302,14.894,33.763,12.47
				c13.317-2.59,19.645-15.826,20.536-28.299c1.693-23.714-23.361-34.272-42.94-38.326C63.971-5.428,40.845-6.569,26.34-0.782z"/>
			<path style="fill:#20477C;" d="M106.306,71.068c3.201-3.145,5.932-6.776,7.028-11.199c1.153-4.653,0.291-9.756-1.868-13.994
				c-4.381-8.597-13.022-14.381-21.522-18.415c-16.803-7.975-36.725-9.098-54.368-3.286C16.955,30.308,1.781,44.619-6.5,62.272
				c-8.305,17.705-8.827,38.044-1.622,56.202c3.56,8.972,8.875,17.246,15.582,24.185c6.604,6.832,14.874,13.087,24.089,15.823
				c8.937,2.653,19.488,1.187,25.281-6.836c5.71-7.908,2.505-17.152-3.812-23.508c-6.44-6.479-15.522-9.6-21.694-16.348
				c-1.455-1.591-2.699-3.374-3.471-5.396c-0.651-1.703-1.634-5.362,0.238-6.731c1.371-1.003,3.433,0.321,4.615,1.087
				c2.492,1.616,4.816,3.521,7.23,5.249c8.54,6.115,18.028,11.512,28.866,11.083c8.678-0.343,16.909-5.365,19.692-13.859
				c1.27-3.875,1.385-8.208-0.376-11.959c-2.348-5.002-7.117-8.134-12.112-10.104c-5.118-2.018-10.666-2.844-15.607-5.33
				c-3.933-1.979-7.541-5.769-7.272-10.491c0.257-4.5,4.668-5.903,8.51-5.259c4.927,0.826,8.52,4.486,11.97,7.807
				c3.366,3.241,6.771,6.48,11.34,7.843c3.84,1.145,8.05,1.57,12.015,0.853C100.641,75.916,104.194,74.275,106.306,71.068
				c1.836-2.788-2.255-6.044-4.107-3.231c-3.578,5.433-13.583,4.711-18.569,1.73c-4.631-2.769-7.914-7.395-12.204-10.618
				c-3.302-2.481-7.2-4.152-11.371-4.25c-4.076-0.096-8.167,1.46-10.427,5.009c-2.156,3.385-2.126,7.606-0.705,11.272
				c4.011,10.345,15.663,11.405,24.7,14.863c4.35,1.665,9.122,4.366,10.338,9.238c0.871,3.489-0.266,7.319-2.298,10.192
				c-5.08,7.182-14.878,7.758-22.653,5.29c-5.134-1.629-9.771-4.426-14.167-7.486c-3.934-2.738-7.787-6.562-12.317-8.284
				c-4.153-1.578-8.572-0.059-10.106,4.312c-1.471,4.192,0.048,8.922,2.259,12.553c4.679,7.684,13.298,11.276,20.251,16.422
				c5.88,4.352,12.909,11.91,8.27,19.624c-5.052,8.4-16.05,7.823-23.899,4.391c-8.384-3.667-15.796-9.911-21.576-16.94
				C-3.72,121.235-9.737,102.83-7.61,84.835c2.19-18.53,12.482-35.868,27.554-46.834C34.371,27.505,52.82,23.76,70.319,26.731
				c8.555,1.453,16.953,4.526,24.27,9.221c7.325,4.701,15.567,12.386,13.823,22.041c-0.715,3.958-3.431,7.109-6.213,9.843
				C99.807,70.187,103.937,73.396,106.306,71.068L106.306,71.068z"/>
		</g>
		<path style="clip-path:url(#SVGID_00000067954370000679406340000017973700166037977533_);fill:#FFCD39;" d="M615.13,48.336
			c12.522,5.925,26.556,9.503,40.292,9.073c-4.817,1.453-9.669,2.775-14.55,3.953c-11.922,2.878-24.538,4.822-37.151,7.055
			c-13.682-5.618-32.555-7.424-46.316-2.557c-21.226,7.507-33.024,30.434-52.504,41.723c28.04,6.007,58.735-2.065,80.192-21.089
			c3.553-3.15,6.86-6.616,10.611-9.537c1.494-1.163,3.962-2.322,6.074-3.642c15.866-2.526,32.01-4.309,47.759-7.733
			c2.751-0.598,5.48-1.257,8.189-1.967l-0.172,0.139c-16.228,3.162-27.009,18.672-33.237,33.987
			c-6.228,15.315-9.937,32.093-20.195,45.059c16.506-9.748,29.744-24.926,37.159-42.604c5.274-12.573,8.155-27.012,17.271-36.805
			c15.155-4.043,29.63-9.82,43.278-17.115c-16.515,18.951-25.355,43.882-33.518,67.939c13.614-8.038,24.179-20.61,31.593-34.574
			c6.714-12.646,10.979-26.438,14.125-40.424c15.789-9.85,30.323-21.785,43.342-35.426c1.701-1.782-0.623-4.807-2.495-3.037
			c-23.937,22.64-52.743,39.868-83.602,51.328c-4.214-1.09-8.268-3.2-11.903-5.64c-6.971-4.678-13.041-10.591-19.97-15.333
			c-21.342-14.606-48.529-16.802-74.332-18.537C580.649,26.01,596.533,39.536,615.13,48.336z"/>
		<g style="clip-path:url(#SVGID_00000067954370000679406340000017973700166037977533_);">
			<path style="fill:#FFCD39;" d="M4.329,337.018c-0.41,2.87-2.238,9.773-0.421,12.365c3.867,5.496,8.964-6.703,9.806-8.388
				c4.166-8.321,7.9-16.83,11.313-25.472c-0.432,9.529-0.199,19.068,0.853,28.564c0.421,3.734,1.241,10.592,6.415,10.426
				c5.872-0.177,5.307-8.432,4.942-12.277c-0.931-9.784-1.994-19.545-3.025-29.317c2.992,6.127,6.36,12.121,11.002,17.129
				c3.501,3.779,11.213,10.969,16.919,8.166c6.227-3.047,2.969-11.003,0.055-15.047c-4.919-6.847-10.548-13.24-16.487-19.279
				c5.961,2.858,12.387,4.775,18.98,5.174c4.764,0.288,11.623-0.709,12.554-6.46c0.853-5.263-4.498-8.753-8.709-10.448
				c-7.656-3.08-16.365-4.188-24.742-4.255c5.584-2.659,10.471-6.548,14.271-11.567c2.67-3.534,9.34-13.351,5.872-17.894
				c-3.468-4.521-10.626,1.008-13.44,3.291c-5.363,4.332-9.905,9.484-13.651,15.202c1.485-5.684,2.526-11.457,3.047-17.34
				c0.366-4.066,1.972-12.631-4.288-13.174c-5.917-0.51-7.656,6.881-8.587,11.146c-1.529,6.98-1.906,14.027-1.363,21.085
				c-3.147-9.717-7.446-19.312-13.429-27.523c-4.72-6.493-11.468-12.188-19.933-10.47c-0.532,0.1-0.809,0.72-0.687,1.208
				c3.712,15.046,10.526,28.885,20.088,40.94c-11.191-7.468-23.545-13.717-37.362-11.313c-0.809,0.144-0.853,1.152-0.432,1.662
				c7.656,9.352,17.772,15.989,29.196,19.279c-5.883,0.565-11.656,2.027-17.13,4.476c-3.501,1.573-15.689,6.858-14.515,12.11
				c1.097,4.919,10.349,3.845,13.584,3.668c4.521-0.244,8.953-0.997,13.263-2.194c-8.532,6.404-14.958,15.279-18.359,25.727
				c-0.122,0.377,0.077,0.953,0.454,1.119c7.856,3.546,14.138-4.842,18.758-10.005c4.399-4.919,8.709-9.917,12.93-14.969
				c-1.551,3.08-2.914,6.271-4.066,9.562C6.29,326.814,5.071,331.877,4.329,337.018z"/>
			<g>
				<path style="fill:#20477C;" d="M28.982,293.137c-0.515-2.769-3.1-4.215-5.592-4.102c-4.855-0.146-6.984,6.247-3.35,9.333
					C24.019,301.747,29.934,298.262,28.982,293.137z"/>
				<path style="fill:#20477C;" d="M13.943,299.597c-1.991-0.942-4.473-0.573-5.749,1.344c-0.424,0.636-0.643,1.374-0.692,2.127
					c-0.334,2.608,1.626,5.473,4.648,5.21c2.081-0.181,3.931-1.653,4.383-3.727C16.979,302.503,15.795,300.473,13.943,299.597z"/>
				<path style="fill:#20477C;" d="M24.361,304.539c-1.755,0.94-2.768,3.316-1.274,4.95c0.09,0.098,0.187,0.186,0.289,0.268
					c0.138,0.624,0.385,1.226,0.744,1.75c1.067,1.555,2.887,2.365,4.649,1.442c1.465-0.768,2.413-2.354,2.525-3.986
					C31.536,305.446,27.461,302.879,24.361,304.539z"/>
				<path style="fill:#20477C;" d="M36.771,297.852c-0.599-0.346-1.293-0.561-2-0.644c-0.348-0.39-0.9-0.56-1.454-0.19
					c-0.195,0.13-0.388,0.265-0.579,0.401c-0.809,0.316-1.481,0.93-1.788,1.705c-0.277,0.394-0.505,0.828-0.645,1.329
					c-0.387,1.381-0.029,3,1.044,3.985c1.754,1.609,4.79,1.512,6.48-0.144C39.821,302.342,39.053,299.173,36.771,297.852z"/>
				<path style="fill:#20477C;" d="M36.195,289.762c-0.114-0.407-0.321-0.761-0.619-1.061c-0.3-0.298-0.654-0.504-1.062-0.619
					c-0.421-0.144-0.861-0.253-1.31-0.24c-0.471,0.014-1.008,0.196-1.336,0.553c-0.345,0.376-0.538,0.819-0.553,1.336
					c-0.013,0.449,0.096,0.889,0.24,1.31c0.114,0.407,0.321,0.761,0.619,1.061c0.3,0.298,0.654,0.504,1.061,0.619
					c0.828,0.228,1.734-0.012,2.34-0.619C36.183,291.496,36.423,290.589,36.195,289.762z"/>
				<path style="fill:#20477C;" d="M14.925,290.278c-0.101-0.037-0.382-0.174-0.488-0.123c0.097,0.043,0.193,0.086,0.29,0.128
					l-0.525-0.222c-0.253-0.082-0.537-0.111-0.8-0.101c-0.766,0.028-1.407,0.318-2.099,0.613c-0.473,0.201-0.951,0.896-1.061,1.379
					c-0.117,0.516-0.09,1.013,0.116,1.503c0.45,1.066,1.594,1.616,2.723,1.336c0.991-0.246,1.988-0.686,2.47-1.595
					c0.126-0.151,0.264-0.291,0.373-0.458C16.557,291.767,15.888,290.627,14.925,290.278z"/>
			</g>
		</g>
		<path style="clip-path:url(#SVGID_00000067954370000679406340000017973700166037977533_);fill:#F7A7A5;" d="M315.628,477.966
			c-25.862-16.179-47.467-39.098-62.093-65.868c22.543,3.922,45.066,11.749,62.17,26.95c16.768,14.902,27.022,35.603,36.87,55.759
			c0.14-31.413-26.342-55.313-45.056-80.543C274.151,369.278,262.796,308.718,277.6,254.7c20.76,20.485,40.849,42.026,55.885,67.016
			c15.036,24.991,24.842,53.842,23.473,82.975c-1.092,23.259-8.958,47.902,1.081,68.91c10.31-1.541,15.826-12.727,19.299-22.555
			c7.958-22.515,14.302-45.667,24.302-67.352c10.001-21.684,24.135-42.215,44.231-55.115
			c11.272,50.779-9.787,107.275-51.546,138.287c-7.433,5.52-15.585,10.424-21.159,17.816c-7.375,9.78,0.198,28.737-15.558,23.222
			c-5.877-2.057-12.542-11.247-17.877-15.027C332.027,487.419,323.626,482.969,315.628,477.966z"/>
		<g style="clip-path:url(#SVGID_00000067954370000679406340000017973700166037977533_);">
			<path style="fill:#FFCD39;" d="M497.496,391.646c-3.117-0.478-6.237,0.02-9.208,0.988c2.126-2.197,3.78-4.797,4.764-7.78
				c0.679-2.081,1.704-5.405-0.941-6.574c-2.799-1.246-6.331,2.371-7.836,4.165c-2.26,2.703-3.509,5.906-3.911,9.333
				c-2.007-6.402-6.551-12.463-12.841-14.654c-1.916-0.972-4.032-1.547-5.519-0.614c-3.084,1.934-0.496,6.949,0.827,9.126
				c1.908,3.155,4.632,5.69,7.499,8.014c-3.134-0.712-6.387-0.665-9.55,0.27c-2.901,0.858-7.028,2.756-7.729,6.12
				c-1.508,7.203,11.062,3.962,17.193,1.863c-2.246,2.48-4.341,5.18-5.487,8.313c-0.947,2.6-1.701,6.849,0.482,9.074
				c4.915,5.026,10.996-6.544,13.511-12.64c1.395,6.898,7.07,14.812,14.719,12.514c3.059-0.923,4.516-3.889,3.813-6.945
				c-1.038-4.525-5.374-6.805-8.812-9.576c3.241,0.604,6.57,0.345,9.713-0.913c2.092-0.834,6.747-2.971,6.399-5.852
				C504.267,393.211,499.583,391.961,497.496,391.646z"/>
			<g>
				<path style="fill:#FBC6BB;" d="M480.178,399.879c-0.493-2.396-3.293-3.655-5.291-2.094c-0.412,0.322-0.717,0.752-0.901,1.224
					c-0.188,0.281-0.333,0.573-0.415,0.859c-0.589,2.062,1.044,3.901,3.062,4.092C478.933,404.178,480.635,402.101,480.178,399.879z
					"/>
				<path style="fill:#FBC6BB;" d="M483.209,394.23c-1.703-1.07-3.37,1.574-1.664,2.647
					C483.248,397.947,484.915,395.302,483.209,394.23z"/>
				<path style="fill:#FBC6BB;" d="M477.38,394.064c-0.061-0.307-0.206-0.585-0.41-0.823c-0.044-0.051-0.089-0.101-0.134-0.152
					c-0.38-0.432-1.05-0.657-1.612-0.504c-0.43,0.117-0.806,0.358-1.048,0.743c-0.229,0.364-0.311,0.847-0.215,1.267
					c0.131,0.575,0.579,1.074,1.153,1.234c0.065,0.018,0.13,0.038,0.195,0.055c0.304,0.078,0.613,0.091,0.92,0.012
					c0.37-0.095,0.762-0.337,0.955-0.678C477.387,394.86,477.462,394.474,477.38,394.064z"/>
			</g>
		</g>
		<g style="clip-path:url(#SVGID_00000067954370000679406340000017973700166037977533_);">
			<path style="fill:#20477C;" d="M460.114,63.345c16.711-0.869,33.858-1.02,47.947,7.858c0.829,0.884,1.701,1.732,2.593,2.557
				c1.177,1.085,2.397,2.361,3.929,2.906c0.2,0.074,0.349,0.005,0.444-0.114c0.024,0.019,0.042,0.026,0.053,0.051
				c0.66,0.615,1.702-0.196,1.101-0.914c-0.182-0.232-0.365-0.434-0.554-0.648c0.01-0.11,0.056-0.206,0.041-0.335
				c-0.837-17.72,4.496-34.801,15.14-48.979c0.583-0.795-0.175-2.179-1.206-1.9c-18.949,5.138-39.204-1.399-51.518-16.728
				c-0.725-0.887-2.461-0.208-2.15,0.99c5.097,19.449-1.424,40.165-16.81,53.107C458.124,62.032,458.968,63.406,460.114,63.345z"/>
			<path style="fill:#F15E4F;" d="M516.625,31.34c-13.006,5.88-25.38-1.596-34.924-10.211c-1.067-0.963-3.076,0.316-2.692,1.693
				c3.216,11.536-0.342,23.208-9.037,31.363c-0.239,0.224-0.336,0.485-0.335,0.735c-1.247,1.545,0.294,4.324,2.334,3.184
				c13.37-7.468,27.23-0.728,37.692,8.404c1.3,1.135,3.519-0.365,3.149-1.98c-2.47-10.794-0.316-21.353,6.219-30.308
				C520.182,32.643,518.354,30.559,516.625,31.34z M508.025,59.969c-9.619-7.253-21.401-11.699-32.883-7.773
				c6.331-6.753,9.22-15.92,8.173-25.138c8.577,6.955,18.787,11.936,29.567,9.591C508.938,43.807,507.266,51.824,508.025,59.969z"/>
		</g>
		<g style="clip-path:url(#SVGID_00000067954370000679406340000017973700166037977533_);">
			<path style="fill:#20477C;" d="M254.955,502.279c1.668,2.634,3.431,5.194,5.276,7.684c0.823,1.114,2.607-0.12,1.772-1.23
				c-1.505-1.983-2.902-4.003-4.253-6.04c0.11-0.293,0.04-0.643-0.327-0.848c-0.117-0.066-0.222-0.135-0.339-0.201
				c0.169-0.127,0.309-0.297,0.381-0.55c9.189-29.517-0.953-62.84-24.937-82.323c-0.631-0.499-1.719-0.207-1.831,0.648
				c-2.043,15.427-12.8,30.542-9.001,46.483C225.44,481.651,240.486,495.576,254.955,502.279z"/>
			<path style="fill:#3EB54A;" d="M250.123,449.84c-3.624,0.856-6.23,4.396-7.486,8.003c-0.757-3.525-1.412-7.143-2.07-10.787
				c0.056-0.013,0.111-0.021,0.17-0.041c0.378-0.125,0.737-0.505,0.783-0.912c0.346-3.046,1.559-5.464,3.94-7.45
				c0.559-0.467,0.139-1.372-0.593-1.153c-2.375,0.711-4.238,2.658-5.144,4.968c-1.342-7.129-2.906-14.218-5.576-20.697
				c-0.251-0.61-1.263-0.467-1.183,0.247c0.837,7.426,2.378,14.924,4.081,22.371c-2.454-2.287-5.28-4.163-8.286-5.661
				c-0.617-0.307-0.999,0.592-0.449,0.94c3.746,2.372,6.764,5.328,9.587,8.722c0.028,0.033,0.062,0.045,0.092,0.074
				c0.893,3.794,1.798,7.566,2.657,11.303c-3.108-3.212-7.724-5.427-11.751-6.712c-0.792-0.253-1.211,1.059-0.452,1.379
				c2.402,1.013,4.733,2.247,6.866,3.749c2.013,1.417,3.628,3.236,5.548,4.744c0.178,0.14,0.371,0.191,0.559,0.195
				c0.961,4.201,1.991,8.563,3.229,12.886c-1.083-0.678-2.189-1.322-3.202-2.014c-2.28-1.556-4.535-3.153-6.769-4.774
				c-0.674-0.489-1.484,0.435-0.844,0.999c2.197,1.935,4.44,3.796,6.767,5.573c1.4,1.07,2.858,2.303,4.412,3.277
				c0.194,0.314,0.455,0.559,0.777,0.696c1.1,3.431,2.368,6.794,3.866,9.995c-1.301-0.939-2.705-1.769-4.026-2.623
				c-2.08-1.345-4.161-2.689-6.241-4.034c-0.674-0.436-1.514,0.484-0.83,0.982l6.346,4.623c1.9,1.384,3.805,2.982,5.968,3.931
				c0.091,0.04,0.177,0.058,0.261,0.065c0.933,1.741,1.939,3.427,3.052,5.022c0.584,0.837,2.006,0.15,1.622-0.834
				c-0.872-2.234-1.741-4.44-2.604-6.64c0.489-1.342,0.83-2.78,1.465-4.047c0.99-1.975,2.259-3.777,3.731-5.42
				c0.785-0.876-0.556-1.946-1.372-1.159c-1.728,1.667-3.183,3.528-4.342,5.633c-0.266,0.482-0.551,1.009-0.825,1.559
				c-1.316-3.394-2.595-6.778-3.795-10.196c0.626-0.66,1.378-1.406,1.533-1.547c0.681-0.62,1.361-1.239,2.041-1.859
				c1.423-1.296,2.866-2.572,4.141-4.018c0.646-0.732-0.345-1.792-1.141-1.251c-2.018,1.372-3.831,3.029-5.684,4.611
				c-0.539,0.46-1.175,0.921-1.797,1.408c-1.259-3.743-2.422-7.537-3.413-11.454c0.321-0.141,0.577-0.417,0.626-0.89
				c0.236-2.264,0.982-4.409,2.282-6.291c1.195-1.729,2.848-2.818,4.348-4.225C251.644,450.502,250.791,449.682,250.123,449.84z"/>
		</g>
		<g style="clip-path:url(#SVGID_00000067954370000679406340000017973700166037977533_);">
			<path style="fill:#F15E4F;" d="M379.256,331.152c0.272-5.506,0.544-11.012,0.816-16.518c0.131-2.658-4-2.866-4.131-0.204
				c-0.272,5.506-0.544,11.012-0.816,16.518C374.994,333.606,379.125,333.815,379.256,331.152L379.256,331.152z"/>
			<path style="fill:#F15E4F;" d="M388.805,332.263c3.093-6.545,6.185-13.091,9.278-19.636c0.477-1.01-0.349-2.294-1.317-2.612
				c-1.171-0.385-2.133,0.303-2.612,1.317c-3.093,6.545-6.185,13.091-9.278,19.636c-0.477,1.01,0.349,2.294,1.317,2.612
				C387.364,333.965,388.326,333.277,388.805,332.263L388.805,332.263z"/>
			<path style="fill:#F15E4F;" d="M403.907,333.557c3.372-4.569,6.745-9.138,10.117-13.708c0.664-0.899,0.296-2.277-0.601-2.863
				c-0.982-0.642-2.198-0.3-2.863,0.601c-3.372,4.569-6.745,9.138-10.117,13.708c-0.663,0.899-0.295,2.277,0.602,2.863
				C402.026,334.8,403.242,334.458,403.907,333.557L403.907,333.557z"/>
		</g>
		<g style="clip-path:url(#SVGID_00000067954370000679406340000017973700166037977533_);">
			<path style="fill:#F15E4F;" d="M572.676,53.164c-0.223-4.515-0.446-9.03-0.669-13.545c-0.108-2.18,3.28-2.351,3.387-0.167
				c0.223,4.515,0.446,9.03,0.669,13.545C576.171,55.176,572.783,55.347,572.676,53.164L572.676,53.164z"/>
			<path style="fill:#F15E4F;" d="M564.846,54.075c-2.536-5.367-5.072-10.734-7.608-16.102c-0.391-0.828,0.286-1.881,1.08-2.142
				c0.96-0.315,1.749,0.249,2.142,1.08c2.536,5.367,5.072,10.734,7.608,16.102c0.391,0.828-0.286,1.881-1.08,2.142
				C566.027,55.47,565.239,54.906,564.846,54.075L564.846,54.075z"/>
			<path style="fill:#F15E4F;" d="M552.463,55.136c-2.765-3.747-5.531-7.493-8.296-11.24c-0.544-0.737-0.242-1.867,0.493-2.347
				c0.806-0.526,1.802-0.246,2.347,0.493c2.765,3.747,5.531,7.493,8.296,11.24c0.544,0.737,0.242,1.867-0.493,2.347
				C554.004,56.155,553.008,55.875,552.463,55.136L552.463,55.136z"/>
		</g>
		<g style="clip-path:url(#SVGID_00000067954370000679406340000017973700166037977533_);">
			<path style="fill:#3EB54A;" d="M450.442,516.095c0.187-4.358-0.557-11.296,3.549-14.201c4.457-3.166,12.343,1.856,15.888,4.421
				c2.509,1.81,4.831,3.702,7.967,4.226c9.43,1.556,16.516-5.864,19.142-14.321c0.15-0.066,0.277-0.184,0.353-0.378
				c3.475-8.846-1.817-19.494-11.277-21.448c-5.647-1.171-11.8,0.509-17.276-1.559c-9.656-3.649-7.16-15.368-5.263-23.059
				c1.286-5.241,4.547-15.21,0.074-19.793c-3.546-3.629-10.448-3.723-15.129-3.339c-12.273,1.002-20.333,9.51-20.708,21.724
				c-0.189,6.318,1.324,12.66,0.901,18.955c-0.202,2.995-1.203,5.983-4.369,7.171c-1.691,0.633-4.725,0.099-6.527,0.091
				c-3.6-0.009-7.245-0.204-10.835,0.078c-4.654,0.363-9.872,2.198-10.58,7.472c-0.743,5.522,3.587,9.694,7.992,12.177
				c2.482,1.401,5.147,2.463,7.899,3.192c3.4,0.901,7.497,0.514,10.727,1.865c4.574,1.909,2.731,8.923,2.77,13.021
				c0.044,3.353,0.379,6.758,1.612,9.904c3.348,8.555,15.403,13.435,20.803,3.917C449.909,523.119,450.293,519.578,450.442,516.095z
				"/>
			<path style="fill:#FFCD39;" d="M431.845,461.231c0.132,8.421-1.232,19.725-12.279,18.953c-5.044-0.353-11.847-2.291-15.353,2.761
				c-2.539,3.659-1.118,8.039,3.096,9.355c6.496,2.028,16.572-1.762,20.531,5.644c0.268,0.502,0.728,0.7,1.177,0.686
				c0.935,3.884-0.123,8.674-0.618,12.388c-0.599,4.493-0.3,9.148,3.067,12.539c2.552,2.571,6.241,3.328,9.35,1.247
				c4.133-2.768,4.753-8.266,5.01-12.796c0.17-2.991,0.222-5.995,1.283-8.839c1.913-5.131,6.65-6.059,11.548-5.066
				c5.728,1.161,10.912,4.463,16.773,5.077c7.055,0.74,17.136-3.854,14.715-12.452c-3.495-12.409-19.676-7.143-28.478-9.935
				c-16.079-5.101-1.141-24.271-1.099-34.675c0.04-9.951-9.407-15.085-18.14-10.978
				C432.634,439.745,431.698,451.792,431.845,461.231z M449.221,436.631c8.696,0.194,9.311,9.342,7.416,15.842
				c-2.313,7.933-8.616,17.507-3.329,25.657c5.757,8.874,17.404,4.969,25.98,6.839c6.003,1.308,12.227,8.358,5.66,13.315
				c-4.775,3.605-10.819,2.306-15.973,0.491c-7.314-2.576-18.236-7.321-23.331,1.509c-2.681,4.646-1.865,10.024-2.619,15.104
				c-0.494,3.326-2.253,8.569-6.588,8.185c-3.398-0.301-5.434-4.243-5.845-7.218c-0.979-7.094,5.379-22.038-5.603-24.405
				c-0.892-0.414-1.846-0.747-2.868-0.989c-2.418-0.573-4.883-0.515-7.349-0.568c-1.261-0.027-2.533-0.025-3.788-0.172
				c-1.088-0.096-2.155-0.306-3.202-0.629c-2.438-3.143-2.155-5.36,0.85-6.652c4.517-2.061,10.006,0.867,14.755,0.131
				c4.156-0.644,7.339-3.54,9.231-7.187c4.869-9.388,0.185-20.616,4.279-30.313C439.033,440.512,443.466,436.503,449.221,436.631z"
				/>
		</g>
		<g style="clip-path:url(#SVGID_00000067954370000679406340000017973700166037977533_);">
			<path style="fill:#FFCD39;" d="M512.162,462.425c-3.884-9.24-7.453-18.872-5.312-28.615c0.33-0.647,0.631-1.311,0.914-1.981
				c0.372-0.884,0.843-1.83,0.84-2.804c0.001-0.128-0.068-0.198-0.155-0.227c0.006-0.017,0.006-0.029,0.018-0.04
				c0.213-0.497-0.456-0.919-0.738-0.435c-0.094,0.15-0.17,0.294-0.253,0.444c-0.064,0.017-0.128,0.011-0.197,0.045
				c-9.816,4.071-20.524,4.536-30.676,1.418c-0.567-0.167-1.192,0.541-0.826,1.066c6.744,9.634,7.176,22.376,1.039,32.429
				c-0.352,0.588,0.383,1.429,0.995,1.011c9.924-6.823,22.922-7.357,33.341-1.316C511.826,463.813,512.429,463.059,512.162,462.425z
				"/>
			<path style="fill:#3EB54A;" d="M482.647,437.082c5.956,6.135,4.256,14.626,1.341,21.754c-0.326,0.797,0.803,1.669,1.501,1.173
				c5.847-4.156,13.147-4.522,19.509-1.279c0.175,0.089,0.341,0.091,0.482,0.04c1.124,0.389,2.377-1.044,1.32-1.962
				c-6.924-6.017-5.942-15.197-2.921-22.947c0.375-0.963-0.921-1.909-1.756-1.372c-5.581,3.585-11.969,4.516-18.342,2.652
				C482.659,434.813,481.856,436.267,482.647,437.082z M500.527,436.113c-2.133,6.894-2.245,14.436,2.3,20.109
				c-5.092-2.196-10.844-1.962-15.826,0.501c2.177-6.246,2.91-13.011-0.602-18.61C491.234,438.881,496.091,438.195,500.527,436.113z
				"/>
		</g>
		<path style="clip-path:url(#SVGID_00000067954370000679406340000017973700166037977533_);fill:#F15E4F;" d="M646.675,320.871
			c-6.847,3.021-9.81,11.46-6.071,18.018c1.723,3.023,5.174,6.238,8.953,5.582c3.324-0.577,5.424-4.645,2.721-7.197
			c-2.337-2.206-6.015-1.808-8.741-0.677c-3.243,1.345-5.925,3.911-7.49,7.043c-3.211,6.429-0.657,15.51,6.029,18.647
			c3.22,1.51,7.431,0.724,8.864-2.845c1.337-3.328-1.339-6.052-4.476-6.593c-6.634-1.143-12.594,5.322-13.271,11.489
			c-0.745,6.782,4.736,12.994,11.37,13.852c2.872,0.371,7.356-0.422,7.79-3.966c0.395-3.221-3.178-4.726-5.856-4.545
			c-2.896,0.196-5.551,2.278-7.092,4.633c-1.659,2.535-2.389,5.58-2.196,8.594c0.445,6.967,6.569,11.949,12.939,13.597
			c1.684,0.436,3.393,0.68,5.132,0.721c1.417,0.033,1.67-2.172,0.24-2.206c-5.32-0.123-10.867-2.226-14.052-6.668
			c-2.729-3.806-2.778-9.183-0.069-13.031c1.205-1.71,3.157-3.298,5.326-3.439c0.964-0.062,2.107,0.143,2.863,0.786
			c0.844,0.718,0.666,1.77-0.159,2.441c-1.935,1.572-5.125,1.038-7.236,0.173c-2.337-0.957-4.402-2.73-5.622-4.951
			c-2.519-4.585-0.855-10.268,3.19-13.387c1.891-1.458,4.452-2.424,6.844-1.806c1.022,0.264,2.063,0.862,2.378,1.933
			c0.364,1.236-0.452,2.491-1.447,3.166c-2.608,1.766-5.966-0.412-7.696-2.426c-1.817-2.116-2.864-4.846-2.98-7.631
			c-0.232-5.541,3.795-10.804,9.194-12.089c1.56-0.371,5.185-0.331,5.273,1.976c0.055,1.442-1.56,2.305-2.824,2.26
			c-1.542-0.054-2.991-1.006-4.073-2.044c-4.243-4.073-4.322-10.961-0.18-15.119c0.961-0.965,2.086-1.716,3.33-2.264
			C648.886,322.32,647.984,320.293,646.675,320.871L646.675,320.871z"/>
		<g style="clip-path:url(#SVGID_00000067954370000679406340000017973700166037977533_);">
			<g>
				<g>
					<path style="fill:#FFCD39;" d="M110.327,500.572c29.934-27.687,49.909-68.447,48.201-109.717c-0.024-0.586-0.869-0.581-0.906,0
						c-2.629,41.002-18.036,80.204-48.439,108.573C108.419,500.14,109.563,501.278,110.327,500.572L110.327,500.572z"/>
				</g>
			</g>
			<g>
				<path style="fill:#FFCD39;" d="M135.376,468.567c0.202-8.945-2.036-17.934-6.408-25.74c-4.058-7.245-9.913-13.502-12.931-21.239
					c-2.871-7.36-2.912-15.784-0.111-23.171c1.828,3.545,5.68,5.457,8.756,7.997c4.66,3.848,7.747,9.546,8.426,15.55
					c0.402,3.554-0.007,7.142-0.128,10.717c-0.369,10.978,1.99,21.844,4.336,32.575"/>
				<path style="fill:#FFCD39;" d="M152.382,456.738c7.055-2.106,14.681-2.427,21.292-5.666
					c10.851-5.316,16.608-17.156,21.587-28.166c-1.67,4.265-6.266,6.683-10.751,7.613c-4.485,0.93-9.146,0.747-13.623,1.715
					c-5.612,1.214-10.81,4.274-14.593,8.594c-1.867,2.131-3.384,4.539-5.034,6.842c-1.582,2.209-3.293,4.325-5.118,6.337
					c-1.042,1.149-5.538,4.411-5.595,5.89C140.421,463.126,150.221,457.383,152.382,456.738z"/>
				<path style="fill:#FFCD39;" d="M153.654,430.132c-0.423-7.991-7.536-13.695-12.037-20.311
					c-5.536-8.138-7.272-18.752-4.616-28.23c2.876,6.362,8.315,11.352,10.864,17.852c1.127,2.875,1.647,5.946,2.159,8.991
					c0.844,5.016,1.688,10.032,2.532,15.047"/>
				<path style="fill:#FFCD39;" d="M155.243,420.235c17.119-7.96,29.156-25.866,30.063-44.724
					c-5.731,10.5-16.402,17.493-22.744,27.637c-2.753,4.403-4.619,9.292-6.468,14.144"/>
				<path style="fill:#FFCD39;" d="M130.933,476.351c14.496,4.775,29.893-0.137,38.458-12.268
					c-8.167,3.665-18.061,2.053-26.473,5.118c-3.652,1.33-6.932,3.51-10.187,5.677"/>
			</g>
		</g>
		<g style="clip-path:url(#SVGID_00000067954370000679406340000017973700166037977533_);">
			<path style="fill:#F7A7A5;" d="M653.683,148.624c-3.476,5.66-4.056,13.849,0.817,18.362c3.636,3.367,9.332,3.71,13.983,2
				c8.898-3.27,24.583-17.636,16.198-27.817C676.582,131.334,658.814,140.271,653.683,148.624z"/>
			<path style="fill:#20477C;" d="M683.535,130.19c-10.073-0.495-21.086,1.077-28.416,8.661c-6.629,6.858-8.656,17.686-2.07,25.311
				c3.047,3.528,7.482,5.976,12.191,6.162c4.599,0.182,9.233-1.556,12.612-4.682c3.51-3.248,5.807-7.969,5.286-12.826
				c-0.495-4.618-4.295-8.769-9.157-8.549c-5.287,0.239-7.867,5.949-6.917,10.635c1.269,6.254,7.67,9.28,13.253,10.797
				c1.841,0.5,2.967-2.284,1.101-2.791c-4.152-1.128-9.38-2.997-11.074-7.387c-1.096-2.842-0.373-7.393,3.087-8.175
				c3.846-0.869,6.635,3.047,6.781,6.443c0.167,3.88-1.931,7.628-4.855,10.057c-2.895,2.405-6.692,3.787-10.473,3.455
				c-3.774-0.331-7.291-2.34-9.691-5.243c-5.322-6.436-3.498-15.076,1.824-20.875c6.539-7.125,17.017-8.46,26.17-8.011
				C685.106,133.265,685.47,130.285,683.535,130.19L683.535,130.19z"/>
		</g>
		<g style="clip-path:url(#SVGID_00000067954370000679406340000017973700166037977533_);">
			<g>
				<path style="fill:#F7A7A5;" d="M555.797,508.472c13.746-25.668,19.121-57.234,2.606-83.031c-0.242-0.372-0.603-0.499-0.957-0.48
					c0.036-0.055,0.057-0.09,0.093-0.145c0.356-0.509-0.394-0.976-0.79-0.523c-20.342,23.514-12.278,57.842-2.708,84.044
					C554.288,509.034,555.443,509.118,555.797,508.472z"/>
				<path style="fill:#F7A7A5;" d="M536.01,474.641c9.183-16.812-6.001-36.058-13.935-50.095c-0.403-0.708-1.343-0.632-1.683,0.095
					c-7.871,17.509-2.853,39.736,14.202,49.842C534.853,475.022,535.646,475.292,536.01,474.641z"/>
				<path style="fill:#F7A7A5;" d="M548.983,513.036c0.986,0.278,1.709-0.796,1.096-1.604c-7.263-9.537-9.505-21.399-18.506-29.837
					c-6.439-6.025-14.351-9.952-22.96-11.577c-0.252-0.655-1.251-1.015-1.793-0.265c-0.036,0.055-0.068,0.12-0.104,0.175
					c-0.011,0.03-0.036,0.055-0.047,0.085c-1.988,3.135-0.262,7.954,0.824,11.127c1.897,5.564,5.211,10.611,9.28,14.831
					C525.403,504.938,537.224,509.73,548.983,513.036z"/>
			</g>
			<g>
				<path style="fill:#20477C;" d="M548.122,509.62c-2.798-2.922-5.838-5.633-8.926-8.304c-0.861-2.965-1.573-6.414-3.122-9.081
					c-0.515-0.887-1.849-0.491-1.721,0.558c0.234,1.921,0.911,3.876,1.655,5.778c-1.969-1.693-3.932-3.393-5.836-5.146
					c-0.279-1.399-0.622-2.788-0.936-4.176c-0.449-1.984-0.747-4.05-1.668-5.877c-0.352-0.698-1.573-0.568-1.582,0.293
					c-0.025,2.2,0.668,4.327,1.174,6.455c0.044,0.184,0.086,0.369,0.129,0.553c-2.8-2.771-5.452-5.665-8.064-8.592
					c-0.603-3.652-1.196-7.305-1.899-10.941c-0.235-1.217-2.114-0.878-1.895,0.342c0.488,2.719,1.039,5.425,1.599,8.129
					c-2.734-3.092-5.458-6.192-8.3-9.198c-0.42-0.445-1.323,0.057-0.953,0.628c2.765,4.261,6.002,8.28,9.42,12.138
					c-2.172-0.536-4.42-1.114-6.59-1.142c-0.478-0.006-0.583,0.592-0.168,0.789c2.494,1.185,5.437,1.607,8.113,2.269
					c0.126,0.031,0.25,0.027,0.369,0.008c2.278,2.495,4.613,4.925,6.932,7.304c0.764,0.784,1.542,1.583,2.33,2.388
					c-2.795-0.724-5.59-1.442-8.393-2.137c-0.694-0.172-1.078,0.833-0.375,1.067c3.317,1.103,6.639,2.184,9.971,3.244
					c0.311,0.099,0.599,0.032,0.816-0.129c1.286,1.294,2.602,2.592,3.946,3.868c-2.034,0.028-4.069,0.039-6.101,0.117
					c-0.733,0.028-0.867,1.112-0.095,1.167c2.672,0.191,5.353,0.265,8.028,0.418c3.503,3.196,7.188,6.165,11.047,8.448
					C547.8,511.316,548.809,510.337,548.122,509.62z"/>
				<path style="fill:#20477C;" d="M525.147,439.618c-0.006-1.136,0.102-2.237,0.427-3.332c0.27-0.908,0.74-1.752,0.781-2.71
					c0.026-0.62-0.643-0.906-1.116-0.563c-0.498,0.361-0.865,0.879-1.148,1.471c-0.34-2.096-0.663-4.198-0.988-6.311
					c-0.097-0.633-1.138-0.606-1.14,0.056c-0.009,2.787,0.164,5.776,0.513,8.847c-1.469-1.08-2.957-2.135-4.481-3.137
					c-0.47-0.308-1.115,0.349-0.678,0.767c1.766,1.686,3.6,3.299,5.479,4.859c0.373,2.596,0.867,5.228,1.498,7.837
					c-1.707-1.238-3.527-2.492-5.349-2.909c-0.356-0.082-0.599,0.27-0.388,0.572c1.422,2.034,4.206,3.514,6.409,4.935
					c0.918,3.301,2.052,6.524,3.412,9.531c-2.236-0.868-4.377-1.901-6.509-3.098c-0.64-0.359-1.249,0.509-0.644,0.954
					c2.48,1.827,5.257,3.208,8.153,4.247c1.166,2.302,2.475,4.449,3.932,6.369c0.6,0.79,1.623-0.088,1.347-0.887
					c-0.858-2.479-1.875-4.882-2.918-7.273c-0.091-1.704-0.092-3.403,0.028-5.112c0.135-1.914,0.612-3.834,0.612-5.745
					c0-0.783-1.038-1.037-1.348-0.286c-0.851,2.064-1.125,4.465-1.147,6.873c-0.924-2.164-1.801-4.354-2.543-6.612
					c0.694-2.896,1.594-5.956,1.702-8.864c0.033-0.885-1.198-1.171-1.521-0.323c-0.627,1.645-1.007,3.45-1.32,5.269
					c-0.435-1.694-0.799-3.396-1.137-5.101C525.113,439.84,525.147,439.734,525.147,439.618z"/>
				<path style="fill:#20477C;" d="M556.882,426.518c-1.836,7.112-2.714,14.639-3.163,22.172c-1.224-2.384-2.462-4.759-3.857-7.061
					c-0.344-0.568-1.163-0.179-0.93,0.447c1.348,3.629,3.007,7.1,4.583,10.625c-0.177,4.346-0.246,8.673-0.279,12.897
					c-0.009,1.185-0.003,2.37,0.005,3.555c-2.199-3.174-4.414-6.338-6.799-9.375c-0.45-0.573-1.454,0.068-1.084,0.714
					c2.466,4.304,5.232,8.425,7.943,12.577c0.084,3.649,0.241,7.296,0.494,10.94c0.028,0.409,0.054,0.824,0.078,1.243
					c-2.224-2.694-4.256-5.532-6.169-8.469c-0.365-0.561-1.257-0.185-0.966,0.464c1.91,4.271,4.38,8.049,7.322,11.655
					c0.249,4.844,0.631,9.958,2.461,14.139c0.324,0.74,1.371,0.449,1.469-0.273c0.636-4.652-0.35-9.739-0.935-14.557
					c3.226-5.07,7.345-9.57,10.377-14.685c0.529-0.892-0.538-1.887-1.372-1.212c-3.727,3.017-6.756,7.574-9.367,11.938
					c-0.283-3.94-0.495-7.887-0.623-11.837c3.616-4.693,7.477-9.633,10.09-14.912c0.546-1.104-1.135-1.75-1.812-0.911
					c-3.031,3.762-5.649,7.948-8.38,11.998c-0.024-1.259-0.049-2.519-0.056-3.778c-0.019-3.47,0.102-6.923,0.29-10.368
					c2.221-3.552,4.936-6.485,8.068-9.25c1.067-0.942-0.335-2.533-1.448-1.661c-2.426,1.9-4.535,4.189-6.361,6.676
					c0.537-7.811,1.312-15.595,1.593-23.441C558.079,426.115,557.061,425.821,556.882,426.518z"/>
			</g>
		</g>
		<path style="clip-path:url(#SVGID_00000067954370000679406340000017973700166037977533_);fill:#F15E4F;" d="M190.752,491.684
			c6.201,4.812,16.742,1.725,19.175-5.837c2.277-7.077-3.495-14.742-10.611-15.688c-3.758-0.5-7.718,1.22-9.672,4.529
			c-2.091,3.54-0.751,7.997,3.26,9.373c4.322,1.483,8.41-0.978,10.341-4.864c1.938-3.902,1.655-8.69,0.041-12.646
			c-3.805-9.326-15.255-13.301-24.043-8.359c-1.771,0.996-0.49,3.908,1.296,2.904c5.782-3.252,13.351-2.208,17.626,3.015
			c1.987,2.427,3.206,5.536,3.254,8.686c0.047,3.054-1.092,7.145-4.312,8.271c-2.398,0.839-5.974-0.547-5.246-3.572
			c0.641-2.666,3.645-4.301,6.224-4.247c4.931,0.104,9.593,4.985,9.159,9.964c-0.577,6.62-9.602,9.794-14.606,5.91
			C191.018,487.865,189.137,490.43,190.752,491.684L190.752,491.684z"/>
		<g style="clip-path:url(#SVGID_00000067954370000679406340000017973700166037977533_);">
			<path style="fill:#FBC6BB;" d="M699.445,319.583c-4.126-5.722-5.474-13.939-1.596-19.832c3.455-5.25,10.438-7.526,16.611-6.346
				c6.173,1.181,11.482,5.361,15.103,10.498c2.769,3.929,4.701,8.575,4.757,13.381C734.587,340.358,707.954,331.384,699.445,319.583
				z"/>
			<path style="fill:#FBC6BB;" d="M678.341,265.397c2.228-4.364,6.378-7.702,11.118-8.941c4.396-1.15,9.515-0.347,12.664,2.928
				c3.22,3.35,3.738,8.795,1.733,12.987c-2.005,4.192-6.202,7.103-10.727,8.162C681.845,283.173,672.106,277.611,678.341,265.397z"
				/>
			<path style="fill:#FBC6BB;" d="M667.288,294.9c2.783-1.85,6.345-2.914,9.498-1.807c3.388,1.189,5.571,4.677,6.12,8.225
				c0.942,6.091-2.634,12.598-8.281,15.068c-4.843,2.118-13.998,1.385-15.875-4.49C656.955,306.279,663.044,297.721,667.288,294.9z"
				/>
			<path style="fill:#FBC6BB;" d="M721.28,271.034c3.904-2.731,9.126-5.158,13.208-2.7c4.063,2.447,4.245,8.821,1.217,12.471
				c-3.028,3.65-8.146,4.917-12.886,4.746C711.625,285.146,714.704,275.634,721.28,271.034z"/>
		</g>
		<g style="clip-path:url(#SVGID_00000067954370000679406340000017973700166037977533_);">
			<path style="fill:#F7A7A5;" d="M644.028,424.417c2.882,0.734,5.415,2.744,6.784,5.384c1.27,2.448,1.481,5.587-0.036,7.89
				c-1.552,2.356-4.706,3.392-7.457,2.767c-2.75-0.625-5.037-2.72-6.27-5.257C633.973,428.874,635.961,422.362,644.028,424.417z"/>
			<path style="fill:#F7A7A5;" d="M641.884,410.667c1.783,0.454,3.35,1.697,4.197,3.331c0.786,1.515,0.916,3.456-0.022,4.882
				c-0.96,1.457-2.911,2.099-4.613,1.712c-1.702-0.387-3.116-1.683-3.879-3.252C635.664,413.425,636.894,409.396,641.884,410.667z"
				/>
		</g>
		<g style="clip-path:url(#SVGID_00000067954370000679406340000017973700166037977533_);">
			<path style="fill:#FFCD39;" d="M665.684,478.093c2.848-9.078-0.456-20.446-8.966-25.354c-5.311-3.064-11.564-2.818-17.354-4.312
				c-7.86-2.025-13.947-8.257-16.078-16.074c-3.723-13.654,11.737-26.343,4.975-39.542c-5.324-10.367-18.774-6.701-27.048-0.985
				c-13.933,7.489-23.965,22.426-26.251,38.073c-3.474,23.847,11.024,47.254,31.021,59.296
				C624.139,500.14,657.625,503.807,665.684,478.093z"/>
			<path style="fill:#20477C;" d="M635.582,489.126c7.669-1.104,22.378-3.153,25.521-11.733c4.009-10.944-8.316-16.466-16.295-19.43
				c-10.012-3.72-19.084-9.556-24.239-18.613c-1.67-3.854-2.764-7.968-3.037-12.145c-0.449-6.882,2.126-12.185,4.196-18.515
				c2.332-7.134-0.046-14.679-8.51-15.095c-9.333-0.459-17.251,9.818-21.728,16.82c-5.219,8.161-8.504,17.629-9.072,27.325
				c-1.127,19.257,9.052,37.263,26.039,46.384C616.713,488.557,626.282,490.464,635.582,489.126z M618.395,482.373
				c-16.579-5.028-29.005-20.065-30.665-37.304c-0.817-8.478,0.623-17.175,3.936-25.009c3.257-7.7,9.426-18.134,17.601-21.408
				c5.096-2.041,10.193,1.49,8.872,7.175c-0.616,2.653-1.999,5.137-2.899,7.7c-1.273,3.627-1.938,7.405-1.95,11.253
				c-0.008,2.463,0.252,4.837,0.76,7.118c-0.319,0.376-0.505,0.867-0.45,1.444c1.425,14.909,15.096,24.38,28.059,29.308
				c3.459,1.315,7.416,2.224,10.399,4.507c3.474,2.659,5.669,7.948,1.443,11.045c-1.781,1.305-4.43,1.858-6.515,2.494
				C637.475,483.6,628.102,485.317,618.395,482.373z"/>
		</g>
		<g style="clip-path:url(#SVGID_00000067954370000679406340000017973700166037977533_);">
			<path style="fill:#F15E4F;" d="M689.307,39.33c-8.308,3.253-17.913,4.158-26.06,0.521c-8.147-3.637-14.219-12.523-12.828-21.336
				c0.967-6.127,5.405-11.462,11.05-14.034c6.065-2.764,13.142-2.485,19.587-0.785c9.045,2.385,17.159,7.352,25.126,12.254
				C721.316,25.262,697.55,36.102,689.307,39.33z"/>
			<g>
				<g>
					<g>
						<path style="fill:#FFCD39;" d="M664.33,34.885c0.802-0.043,1.573-0.135,2.362-0.283c0.7-0.132,1.116-0.922,1.028-1.575
							c-0.099-0.739-0.688-1.186-1.409-1.244c-0.671-0.054-1.309-0.057-1.981-0.022c-0.815,0.043-1.601,0.687-1.562,1.562
							C662.804,34.133,663.456,34.932,664.33,34.885L664.33,34.885z"/>
					</g>
				</g>
				<g>
					<g>
						<path style="fill:#FFCD39;" d="M668.982,39.926c1.18,0.099,2.317-0.204,3.327-0.817c0.713-0.433,0.981-1.386,0.555-2.115
							c-0.44-0.751-1.372-0.941-2.115-0.555c-0.189,0.098-0.522,0.216-0.87,0.294c-0.414,0.093-0.437,0.103-0.895,0.1
							c-0.809-0.005-1.583,0.715-1.546,1.546C667.476,39.276,668.116,39.854,668.982,39.926L668.982,39.926z"/>
					</g>
				</g>
				<g>
					<g>
						<path style="fill:#FFCD39;" d="M676.928,34.643c1.163-0.128,2.322-0.204,3.462-0.481c1.605-0.389,1.292-2.996-0.394-2.912
							c-1.172,0.058-2.306,0.305-3.458,0.512C674.93,32.05,675.279,34.824,676.928,34.643L676.928,34.643z"/>
					</g>
				</g>
				<g>
					<g>
						<path style="fill:#FFCD39;" d="M674.496,28.905c1.269-0.383,2.711-0.549,3.876-1.199c0.711-0.396,0.996-1.329,0.675-2.059
							c-0.358-0.815-1.105-1.073-1.946-0.955c-1.168,0.164-2.308,0.869-3.414,1.277c-0.771,0.284-1.294,1.032-1.063,1.873
							C672.838,28.622,673.706,29.144,674.496,28.905L674.496,28.905z"/>
					</g>
				</g>
				<g>
					<g>
						<path style="fill:#FFCD39;" d="M663.067,27.822c1.068-0.253,2.12-0.458,3.118-0.93c0.635-0.3,0.916-1.176,0.74-1.818
							c-0.173-0.631-0.86-1.255-1.552-1.182c-1.107,0.118-2.109,0.482-3.162,0.825c-0.826,0.269-1.362,1.114-1.124,1.98
							C661.325,27.563,662.218,28.024,663.067,27.822L663.067,27.822z"/>
					</g>
				</g>
				<g>
					<g>
						<path style="fill:#FFCD39;" d="M653.359,28.169c0.906-0.333,1.745-0.653,2.54-1.209c0.617-0.432,0.919-1.148,0.613-1.871
							c-0.298-0.707-1.028-1.028-1.768-0.868c-0.946,0.206-1.755,0.596-2.613,1.035c-0.706,0.361-0.943,1.3-0.652,1.99
							C651.765,27.925,652.61,28.444,653.359,28.169L653.359,28.169z"/>
					</g>
				</g>
				<g>
					<g>
						<path style="fill:#FFCD39;" d="M656.566,17.934c1.967,0.211,3.993,0.224,5.847-0.541c0.755-0.312,1.307-0.928,1.176-1.801
							c-0.114-0.759-0.784-1.477-1.612-1.423c-1.813,0.117-3.59,0.482-5.411,0.514C654.431,14.72,654.527,17.715,656.566,17.934
							L656.566,17.934z"/>
					</g>
				</g>
				<g>
					<g>
						<path style="fill:#FFCD39;" d="M672.006,12.813c1.745,0.314,3.338,0.489,5.087,0.129c1.65-0.34,1.2-2.799-0.386-2.85
							c-1.291-0.041-2.631,0.038-3.909-0.154c-0.795-0.119-1.602,0.199-1.834,1.041C670.766,11.701,671.209,12.67,672.006,12.813
							L672.006,12.813z"/>
					</g>
				</g>
				<g>
					<g>
						<path style="fill:#FFCD39;" d="M685.553,12.243c1.147,0.1,2.252,0.143,3.402,0.072c1.486-0.092,1.933-2.297,0.365-2.694
							c-1.249-0.317-2.484-0.485-3.767-0.613c-0.87-0.087-1.617,0.805-1.617,1.617C683.936,11.564,684.679,12.167,685.553,12.243
							L685.553,12.243z"/>
					</g>
				</g>
				<g>
					<g>
						<path style="fill:#FFCD39;" d="M693.889,14.247c1.073,0.609,2.629,1.107,3.782,0.471c0.493-0.272,0.761-0.875,0.679-1.418
							c-0.09-0.595-0.469-0.972-1.019-1.183c-0.378-0.145-0.909-0.09-1.213-0.137c-0.199-0.03-0.582-0.149-0.764-0.239
							c-0.702-0.347-1.57-0.189-1.985,0.521C692.975,12.935,693.205,13.859,693.889,14.247L693.889,14.247z"/>
					</g>
				</g>
				<g>
					<g>
						<path style="fill:#FFCD39;" d="M691.135,20.962c0.479,0.032,0.957,0.065,1.436,0.097c0.879,0.06,1.72-0.816,1.681-1.681
							c-0.041-0.92-0.738-1.669-1.681-1.681c-0.479-0.006-0.957-0.012-1.436-0.018c-0.859-0.011-1.681,0.763-1.641,1.641
							C689.535,20.259,690.215,20.9,691.135,20.962L691.135,20.962z"/>
					</g>
				</g>
				<g>
					<g>
						<path style="fill:#FFCD39;" d="M701.976,21.918c1.326,0.345,2.997,0.68,4.097-0.348c0.498-0.466,0.567-1.487,0-1.94
							c-0.616-0.492-1.164-0.62-1.938-0.704c-0.417-0.046-0.752-0.088-1.274-0.219c-0.844-0.211-1.845,0.272-2.048,1.163
							C700.615,20.739,701.074,21.683,701.976,21.918L701.976,21.918z"/>
					</g>
				</g>
				<g>
					<g>
						<path style="fill:#FFCD39;" d="M695.483,28.997c1.129,0.1,2.211-0.019,3.297-0.347c0.803-0.242,1.312-1.088,1.085-1.912
							c-0.237-0.862-1.085-1.245-1.912-1.085c-0.784,0.151-1.645,0.202-2.471,0.172c-0.857-0.031-1.586,0.751-1.586,1.586
							C693.897,28.332,694.627,28.921,695.483,28.997L695.483,28.997z"/>
					</g>
				</g>
				<g>
					<g>
						<path style="fill:#FFCD39;" d="M690.002,35.884c0.915-0.034,1.877,0.002,2.757-0.27c0.644-0.198,1.196-0.823,1.164-1.529
							c-0.029-0.65-0.465-1.409-1.164-1.529c-0.941-0.161-1.815-0.056-2.757,0.03c-0.857,0.078-1.692,0.703-1.649,1.649
							C688.391,35.101,689.078,35.919,690.002,35.884L690.002,35.884z"/>
					</g>
				</g>
				<g>
					<g>
						<path style="fill:#FFCD39;" d="M684.93,27.099c1.154,0.3,2.231,0.146,3.314-0.313c0.728-0.309,0.943-1.438,0.54-2.061
							c-0.463-0.718-1.309-0.924-2.061-0.54c-0.372,0.19,0.213-0.035-0.19,0.081c-0.142,0.041-0.286,0.083-0.433,0.104
							c0.251-0.037-0.161-0.011-0.203-0.008c-0.049-0.002-0.099-0.004-0.148-0.006c0.135,0.028,0.115,0.025-0.06-0.009
							c-0.732-0.136-1.574,0.201-1.756,0.997C683.763,26.088,684.157,26.898,684.93,27.099L684.93,27.099z"/>
					</g>
				</g>
				<g>
					<g>
						<path style="fill:#FFCD39;" d="M682.19,19.708c0.755,0.078,1.577,0.263,2.333,0.167c0.721-0.091,1.314-0.48,1.417-1.251
							c0.095-0.706-0.337-1.385-1.034-1.583c-0.859-0.245-1.829-0.194-2.717-0.234c-0.759-0.035-1.485,0.692-1.451,1.451
							C680.777,19.11,681.379,19.623,682.19,19.708L682.19,19.708z"/>
					</g>
				</g>
				<g>
					<g>
						<path style="fill:#FFCD39;" d="M669.743,20.896c0.789-0.036,1.615-0.01,2.381-0.211c0.615-0.161,1.135-0.802,1.106-1.453
							c-0.027-0.605-0.442-1.356-1.106-1.453c-0.453-0.066-0.862-0.09-1.315-0.061c-0.355,0.023-0.711,0.046-1.066,0.069
							c-0.81,0.053-1.593,0.677-1.554,1.554C668.226,20.152,668.874,20.936,669.743,20.896L669.743,20.896z"/>
					</g>
				</g>
				<g>
					<g>
						<path style="fill:#FFCD39;" d="M681.889,40.902c0.66-0.041,1.323-0.071,1.981-0.137c0.823-0.082,1.627-0.67,1.586-1.586
							c-0.038-0.855-0.697-1.591-1.586-1.586c-0.661,0.004-1.321,0.045-1.981,0.073c-0.844,0.037-1.658,0.718-1.617,1.618
							C680.309,40.116,680.984,40.959,681.889,40.902L681.889,40.902z"/>
					</g>
				</g>
				<g>
					<g>
						<path style="fill:#FFCD39;" d="M665.123,10.871c0.632,0.009,1.231-0.081,1.851-0.196c0.642-0.119,1.175-0.867,1.147-1.506
							c-0.031-0.687-0.463-1.321-1.147-1.506c-0.241-0.065-0.483-0.145-0.727-0.197c-0.367-0.079-0.75-0.09-1.124-0.114
							c-0.921-0.061-1.801,0.853-1.76,1.76C663.406,10.076,664.136,10.857,665.123,10.871L665.123,10.871z"/>
					</g>
				</g>
				<g>
					<g>
						<path style="fill:#FFCD39;" d="M673.563,6.139c1.234,0.06,2.797,0.618,3.903-0.078c0.897-0.564,0.815-1.72,0-2.3
							c-1.031-0.734-2.71-0.257-3.903-0.27C671.851,3.472,671.868,6.057,673.563,6.139L673.563,6.139z"/>
					</g>
				</g>
				<g>
					<g>
						<path style="fill:#FFCD39;" d="M655.834,34.536c0.483,0.26,1.005,0.473,1.548,0.562c0.748,0.123,1.366,0.058,2.056-0.262
							c0.489-0.227,0.721-0.875,0.655-1.367c-0.07-0.523-0.454-1.009-0.983-1.14c-0.268-0.067-0.534-0.101-0.808-0.145
							c0.264,0.043-0.126-0.023-0.184-0.035c-0.147-0.03-0.286-0.07-0.43-0.11c-0.17-0.063-0.186-0.066-0.048-0.009
							c-0.089-0.042-0.177-0.088-0.262-0.137c-0.701-0.387-1.701-0.194-2.094,0.549C654.909,33.154,655.081,34.132,655.834,34.536
							L655.834,34.536z"/>
					</g>
				</g>
			</g>
		</g>
		<path style="clip-path:url(#SVGID_00000067954370000679406340000017973700166037977533_);fill:#F15E4F;" d="M225.627,356.664
			c-3.078,12.105,0.937,25.746,10.083,34.252c6.293,5.853,15.021,9.285,23.563,8.343c8.543-0.943,16.627-6.595,19.631-14.647
			c0.816-2.186,1.19-4.855-0.262-6.683c-2.096-2.639-6.24-1.745-9.411-0.606c-3.929,1.411-7.857,2.822-11.786,4.234
			c-0.654,0.235-1.354,0.473-2.031,0.315c-1.411-0.33-1.885-2.284-1.208-3.565c0.676-1.281,2.065-2.002,3.4-2.564
			c3.616-1.523,7.597-2.55,10.454-5.238c2.858-2.688,3.903-7.867,0.868-10.354c-2.373-1.945-5.974-1.289-8.652,0.207
			c-2.679,1.496-4.952,3.707-7.793,4.865c-1.58,0.644-3.601,0.856-4.815-0.344c-1.26-1.245-0.96-3.472,0.176-4.831
			c1.137-1.358,2.862-2.053,4.525-2.663c4.821-1.77,10.75-3.706,13.098-8.738c2.51-5.378-0.546-11.022-4.73-14.546
			c-7.955-6.7-18.136-0.551-24.607,5.334C231.089,344.019,227.311,350.043,225.627,356.664z"/>
		<path style="clip-path:url(#SVGID_00000067954370000679406340000017973700166037977533_);fill:#F7A7A5;" d="M226.96-14.974
			c-5.885-1.625-12.155-0.118-17.622,2.235c-7.385,3.175-14.14,9.288-22.71,7.763c-12.908-2.298-20.111-15.127-30.757-21.463
			c-9.387-5.576-20.499-4.17-28.498,3.209c-8.212,7.567-9.986,19.35-6.207,29.6c3.863,10.497,12.703,17.933,23.215,21.308
			c5.98,1.923,12.357,2.528,18.603,2.005c7.127-0.59,14.098-2.506,21.255-2.826c7.248-0.328,14.968,1.11,20.126,6.615
			c4.746,5.064,6.771,12.056,11.562,17.083c7.743,8.123,20.549,6.443,27.85-1.374c8.911-9.538,8.827-23.662,5.473-35.497
			c-0.042-0.147-0.131-0.247-0.234-0.289C246.067,1.687,238.704-11.736,226.96-14.974z M157.213-4.894
			c7.283,3.605,14.193,8.013,21.907,10.703c6.832,2.392,14.147,3.434,21.376,3.089c8.035-0.376,15.941-3.293,23.877-0.633
			c8.814,2.95,14.857,12.474,10.312,21.396c-0.092,0.181-0.096,0.346-0.05,0.501c-0.343,0.43-0.725,0.826-1.17,1.183
			c-4.966,3.947-11.711-0.35-15.575-3.792c-6.186-5.521-11.035-11.588-19.283-14.068c-14.201-4.246-28.942,0.763-43.363-0.047
			c-8.201-0.464-21.527-3.717-22.424-13.804c-0.653-7.357,6.748-10.063,12.775-8.946C149.671-8.562,153.529-6.719,157.213-4.894z"/>
		<g style="clip-path:url(#SVGID_00000067954370000679406340000017973700166037977533_);">
			<path style="fill:#F15E4F;" d="M229.586,98.559c7.893-0.061,20.922-4.704,22.069-13.65c2.457-7.461-5.375-14.368-13.375-11.087
				c-3.179,1.3-5.959,3.791-9.392,4.442c-3.528,0.668-6.712-0.958-10.143-1.313c-3.79-0.402-7.138,1.129-8.569,4.845
				C205.82,93.065,221.08,98.625,229.586,98.559z"/>
			<path style="fill:#20477C;" d="M208.625,80.369c0.418,13.538,17.651,15.808,27.629,12.731c5.995-1.848,12.242-5.588,14.684-11.65
				c1.483-3.682,1.348-7.499-0.292-10.808c0.077-3.076-1.871-6.133-4.752-7.428c-5.767-2.591-8.913,1.648-12.585,5.202
				c-4.641,4.491-10.976,0.119-16.506,1.201C211.829,70.589,208.471,75.387,208.625,80.369z M230.465,72.983
				c3.03-0.66,4.692-2.76,6.636-5.001c1.797-2.072,4.317-3.623,7.143-2.776c1.538,0.461,2.544,1.326,3.208,2.422
				c-0.191,0.18-0.292,0.437-0.179,0.717c1.561,3.873,2.136,8.632,0.171,12.482c-2.32,4.545-7.366,7.438-12.072,8.929
				c-4.421,1.401-9.509,1.916-14.025,0.621c-5.066-1.452-10.489-6.03-9.36-11.925C213.886,68.523,224.091,74.37,230.465,72.983z"/>
		</g>
		<g style="clip-path:url(#SVGID_00000067954370000679406340000017973700166037977533_);">
			<path style="fill:#F15E4F;" d="M264.08-0.113c5.014,9.348,8.556,19.484,10.979,29.869c0.586,2.602,1.135,5.216,1.58,7.849
				c0.43,2.635,0.801,5.282,1.094,7.937c0.637,5.307,0.837,10.665,0.679,16.004c-0.323,10.707-2.336,21.113-3.095,31.578
				c-0.782,10.438-0.593,21.045,1.852,31.104c1.187,5.017,2.967,9.848,5.084,14.481c2.137,4.626,4.655,9.058,7.613,13.163
				c5.91,8.216,13.551,15.059,22.265,19.893c4.34,2.418,9.008,4.269,13.846,5.578c1.213,0.309,2.441,0.57,3.664,0.861
				c1.233,0.232,2.478,0.413,3.719,0.626l3.757,0.425c1.258,0.086,2.52,0.122,3.785,0.189c10.117,0.217,20.397-2.08,29.611-7.146
				l0.339,0.495c-8.18,6.87-18.949,10.659-29.832,11.374c-1.364,0.043-2.733,0.113-4.104,0.129
				c-1.367-0.048-2.741-0.057-4.112-0.142c-1.363-0.148-2.733-0.269-4.097-0.444c-1.354-0.235-2.716-0.444-4.068-0.707
				c-5.398-1.11-10.662-3.001-15.567-5.606c-9.806-5.211-17.901-13.198-23.881-22.313c-3-4.566-5.507-9.441-7.389-14.535
				c-1.903-5.087-3.133-10.395-3.864-15.722c-1.397-10.673-0.944-21.28-0.555-31.811c0.408-10.535,0.473-21.102,0.034-31.447
				c-0.207-5.179-0.56-10.338-0.972-15.497c-0.213-2.579-0.502-5.153-0.849-7.72c-0.314-2.571-0.672-5.14-1.1-7.699
				c-1.638-10.257-4.104-20.383-6.973-30.542L264.08-0.113z"/>
		</g>
		<g style="clip-path:url(#SVGID_00000067954370000679406340000017973700166037977533_);">
			<path style="fill:#F15E4F;" d="M0.083,220.761c2.254,0.28,4.457,0.733,6.628,1.261c2.177,0.506,4.317,1.101,6.438,1.722
				c2.12,0.615,4.222,1.252,6.308,1.904c2.094,0.622,4.16,1.288,6.21,2.012c4.086,1.43,8.22,3.059,12.585,3.471
				c4.341,0.439,8.777-0.199,12.766-1.785c0.993-0.412,1.962-0.874,2.93-1.3c0.946-0.503,1.88-1.023,2.822-1.501
				c0.914-0.557,1.841-1.082,2.76-1.615l2.71-1.728c3.582-2.385,6.996-5.117,10.673-7.629c1.843-1.254,3.729-2.478,5.687-3.619
				l2.983-1.661c1.019-0.52,2.074-0.989,3.103-1.482c4.196-1.834,8.786-3.125,13.355-2.975l0.078,0.494
				c-8.434,3.005-15.03,8.324-22.117,13.598c-3.551,2.614-7.312,5.104-11.314,7.316c-1.021,0.528-2.026,1.076-3.055,1.581
				c-1.063,0.459-2.103,0.954-3.183,1.363c-1.104,0.371-2.199,0.747-3.314,1.055c-1.141,0.251-2.265,0.525-3.395,0.742
				c-4.565,0.774-9.085,0.85-13.584,0.756c-4.489-0.113-9.1-0.192-13.571-1.052c-2.229-0.434-4.403-1.06-6.521-1.815
				c-2.121-0.744-4.201-1.575-6.248-2.469c-2.042-0.902-4.058-1.846-6.034-2.886c-1.983-1.018-3.945-2.08-5.867-3.284L0.083,220.761
				z"/>
		</g>
		<g style="clip-path:url(#SVGID_00000067954370000679406340000017973700166037977533_);">
			<path style="fill:#20477C;" d="M155.926,207.024c1.011,4.74,2.022,9.48,3.033,14.221c0.403,1.891,3.337,1.266,2.934-0.626
				c-1.011-4.74-2.022-9.481-3.033-14.221C158.457,204.508,155.522,205.133,155.926,207.024L155.926,207.024z"/>
			<path style="fill:#20477C;" d="M148.278,205.788c-0.174,4.993-0.348,9.986-0.522,14.979c-0.067,1.927,2.93,2.075,2.997,0.139
				c0.174-4.993,0.348-9.986,0.522-14.979C151.343,204,148.346,203.852,148.278,205.788L148.278,205.788z"/>
			<path style="fill:#20477C;" d="M139.001,199.345c-1.501,6.515-3.003,13.03-4.504,19.545c-0.43,1.867,2.426,2.792,2.861,0.905
				c1.501-6.515,3.003-13.03,4.504-19.545C142.292,198.384,139.435,197.458,139.001,199.345L139.001,199.345z"/>
		</g>
		<path style="clip-path:url(#SVGID_00000067954370000679406340000017973700166037977533_);fill:#20477C;" d="M128.399,361.018
			c2.189,2.276,5.018,4.058,8.596,5.129c11.032,3.302,24.361,2.206,35.259-1.072c5.95-1.79,13.128-5.028,15.569-11.228
			c0.8-2.033,0.944-4.433-0.162-6.384c-1.302-2.297-3.852-3.376-6.349-3.789c-3.974-0.657-8.058-0.41-12.025,0.184
			c-2.073,0.31-4.127,0.728-6.171,1.187c-0.297,0.067-0.598,0.128-0.898,0.191c0.344-0.234,0.694-0.454,1.032-0.702
			c2.203-1.613,4.433-3.323,6.417-5.203c3.434-3.254,10.393-8.807,9.455-15.609c-0.509-3.69-3.221-6.78-6.818-6.965
			c-11.095-0.568-19.942,8.863-21.698,10.362c0.343-0.832,0.663-1.667,0.932-2.499c1.301-4.025,1.804-8.816,0.37-12.878
			c-0.658-1.863-1.787-3.557-3.562-4.514c-1.869-1.007-4.008-1.095-6.068-0.764c-4.653,0.749-8.64,3.724-11.454,7.383
			c-5.357,6.967-7.989,16.226-8.659,24.897C121.527,347.011,123.07,355.478,128.399,361.018z"/>
		<g style="clip-path:url(#SVGID_00000067954370000679406340000017973700166037977533_);">
			<path style="fill:#20477C;" d="M656.648,195.473c-0.904,0.374-1.733,1.05-2.329,1.821c-0.695,0.9-1.249,1.92-1.72,2.971
				c-0.266-0.041-0.531-0.097-0.798-0.129c-1.712-0.203-4.017-0.423-5.411,0.854c-1.607,1.472,0.283,3.017,1.639,3.689
				c0.912,0.452,1.896,0.792,2.862,1.142c-0.096,0.546-0.186,1.094-0.338,1.629c-0.307,1.08-0.777,2.476-0.112,3.516
				c0.791,1.238,2.241,1.134,3.291,0.307c1.106-0.872,1.979-2.212,2.683-3.448c0.894,0.3,1.795,0.589,2.696,0.826
				c1.118,0.294,2.64,0.745,3.793,0.559c1.254-0.202,2.103-1.159,2.308-2.392c0.138-0.836-0.13-1.494-0.603-2.017
				c-0.452-0.642-1.174-1.014-1.891-1.396c-0.937-0.498-1.917-0.934-2.925-1.268c-0.194-0.064-0.392-0.125-0.587-0.188
				c0.203,0.066,0.497-1.894,0.527-2.096c0.175-1.184,0.141-2.632-0.489-3.691c-0.113-0.19-0.253-0.346-0.414-0.472
				C658.232,195.218,657.358,195.18,656.648,195.473z"/>
			<path style="fill:#20477C;" d="M687.602,205.658c-0.904,0.374-1.733,1.05-2.329,1.821c-0.695,0.9-1.249,1.92-1.72,2.971
				c-0.266-0.041-0.531-0.097-0.798-0.129c-1.712-0.203-4.017-0.423-5.411,0.854c-1.607,1.472,0.283,3.017,1.639,3.689
				c0.912,0.452,1.896,0.792,2.862,1.142c-0.096,0.547-0.186,1.094-0.338,1.629c-0.307,1.08-0.777,2.476-0.112,3.516
				c0.791,1.238,2.241,1.134,3.291,0.307c1.106-0.872,1.979-2.212,2.683-3.448c0.894,0.3,1.795,0.589,2.696,0.826
				c1.118,0.294,2.64,0.745,3.793,0.559c1.254-0.202,2.104-1.159,2.308-2.392c0.138-0.836-0.13-1.494-0.603-2.017
				c-0.452-0.642-1.174-1.014-1.891-1.396c-0.937-0.498-1.917-0.934-2.925-1.268c-0.194-0.064-0.392-0.125-0.587-0.188
				c0.203,0.066,0.497-1.894,0.527-2.096c0.175-1.184,0.141-2.632-0.489-3.691c-0.113-0.19-0.253-0.347-0.414-0.472
				C689.186,205.403,688.312,205.365,687.602,205.658z"/>
			<path style="fill:#20477C;" d="M620.589,180.575c-0.904,0.374-1.733,1.05-2.329,1.821c-0.695,0.9-1.249,1.92-1.72,2.971
				c-0.266-0.041-0.531-0.097-0.798-0.129c-1.712-0.203-4.017-0.423-5.411,0.854c-1.607,1.472,0.283,3.017,1.639,3.689
				c0.912,0.452,1.896,0.792,2.862,1.142c-0.096,0.547-0.186,1.093-0.338,1.629c-0.307,1.08-0.777,2.476-0.112,3.516
				c0.791,1.238,2.241,1.134,3.291,0.307c1.106-0.872,1.979-2.212,2.683-3.448c0.894,0.3,1.795,0.589,2.696,0.826
				c1.118,0.294,2.64,0.745,3.793,0.559c1.254-0.202,2.104-1.159,2.308-2.392c0.138-0.836-0.13-1.494-0.603-2.017
				c-0.452-0.642-1.173-1.014-1.891-1.396c-0.937-0.498-1.917-0.934-2.925-1.268c-0.194-0.064-0.392-0.125-0.587-0.189
				c0.203,0.066,0.497-1.894,0.527-2.096c0.175-1.184,0.141-2.632-0.489-3.691c-0.113-0.19-0.253-0.347-0.414-0.472
				C622.172,180.319,621.298,180.281,620.589,180.575z"/>
			<path style="fill:#20477C;" d="M629.805,220.659c-0.904,0.374-1.733,1.05-2.329,1.821c-0.695,0.9-1.249,1.92-1.72,2.971
				c-0.266-0.041-0.531-0.097-0.798-0.129c-1.712-0.203-4.017-0.423-5.411,0.854c-1.607,1.472,0.282,3.017,1.639,3.689
				c0.912,0.452,1.896,0.792,2.862,1.142c-0.096,0.547-0.185,1.093-0.338,1.629c-0.307,1.08-0.777,2.476-0.112,3.516
				c0.791,1.238,2.241,1.134,3.292,0.307c1.106-0.872,1.979-2.212,2.683-3.448c0.894,0.3,1.795,0.589,2.696,0.826
				c1.118,0.294,2.64,0.745,3.793,0.559c1.254-0.202,2.104-1.159,2.308-2.392c0.138-0.836-0.13-1.494-0.603-2.017
				c-0.452-0.642-1.174-1.014-1.891-1.396c-0.937-0.498-1.917-0.934-2.925-1.268c-0.194-0.064-0.392-0.125-0.587-0.189
				c0.203,0.066,0.497-1.894,0.527-2.096c0.175-1.184,0.141-2.632-0.489-3.691c-0.113-0.19-0.253-0.347-0.414-0.472
				C631.389,220.403,630.515,220.365,629.805,220.659z"/>
		</g>
		<g style="clip-path:url(#SVGID_00000067954370000679406340000017973700166037977533_);">
			<path style="fill:#F15E4F;" d="M120.457,241.439c-0.904,0.374-1.733,1.05-2.329,1.821c-0.695,0.9-1.249,1.92-1.72,2.971
				c-0.266-0.041-0.531-0.097-0.798-0.129c-1.712-0.203-4.017-0.423-5.411,0.854c-1.607,1.472,0.283,3.017,1.639,3.689
				c0.912,0.452,1.896,0.792,2.862,1.142c-0.096,0.546-0.186,1.094-0.338,1.629c-0.307,1.08-0.777,2.476-0.112,3.516
				c0.791,1.238,2.241,1.134,3.291,0.307c1.106-0.872,1.979-2.212,2.683-3.447c0.894,0.3,1.795,0.589,2.696,0.826
				c1.118,0.294,2.64,0.745,3.793,0.559c1.254-0.202,2.104-1.159,2.308-2.392c0.138-0.836-0.13-1.494-0.603-2.017
				c-0.452-0.642-1.174-1.014-1.891-1.396c-0.937-0.498-1.917-0.934-2.925-1.268c-0.194-0.064-0.392-0.125-0.587-0.188
				c0.203,0.066,0.497-1.894,0.527-2.096c0.175-1.184,0.141-2.632-0.489-3.691c-0.113-0.19-0.253-0.346-0.414-0.472
				C122.041,241.183,121.166,241.145,120.457,241.439z"/>
			<path style="fill:#F15E4F;" d="M151.411,251.624c-0.904,0.374-1.733,1.05-2.329,1.821c-0.695,0.9-1.249,1.92-1.72,2.971
				c-0.266-0.041-0.531-0.097-0.798-0.129c-1.712-0.203-4.017-0.423-5.411,0.854c-1.607,1.472,0.283,3.017,1.639,3.689
				c0.912,0.452,1.896,0.792,2.862,1.142c-0.096,0.547-0.186,1.094-0.338,1.629c-0.307,1.08-0.777,2.476-0.112,3.516
				c0.791,1.238,2.241,1.134,3.291,0.307c1.106-0.872,1.979-2.212,2.683-3.448c0.894,0.3,1.795,0.589,2.696,0.826
				c1.118,0.294,2.64,0.745,3.793,0.559c1.254-0.202,2.104-1.159,2.308-2.392c0.138-0.836-0.13-1.494-0.603-2.017
				c-0.452-0.642-1.174-1.014-1.891-1.396c-0.937-0.498-1.917-0.934-2.925-1.268c-0.194-0.064-0.392-0.125-0.587-0.188
				c0.203,0.066,0.497-1.894,0.527-2.096c0.175-1.184,0.141-2.632-0.489-3.691c-0.113-0.19-0.253-0.347-0.414-0.472
				C152.994,251.368,152.12,251.33,151.411,251.624z"/>
			<path style="fill:#F15E4F;" d="M84.397,226.54c-0.904,0.374-1.733,1.05-2.329,1.821c-0.695,0.9-1.249,1.92-1.72,2.971
				c-0.266-0.041-0.531-0.097-0.798-0.129c-1.712-0.203-4.017-0.423-5.411,0.854c-1.607,1.472,0.283,3.017,1.639,3.689
				c0.912,0.452,1.896,0.792,2.862,1.142c-0.096,0.547-0.186,1.093-0.338,1.629c-0.307,1.08-0.777,2.476-0.112,3.516
				c0.791,1.238,2.241,1.134,3.291,0.307c1.106-0.872,1.979-2.212,2.683-3.448c0.894,0.3,1.795,0.589,2.696,0.826
				c1.118,0.294,2.64,0.745,3.793,0.559c1.254-0.202,2.104-1.159,2.308-2.392c0.138-0.836-0.13-1.494-0.603-2.017
				c-0.452-0.642-1.173-1.014-1.891-1.396c-0.937-0.498-1.917-0.934-2.925-1.268c-0.194-0.064-0.392-0.125-0.587-0.189
				c0.203,0.066,0.497-1.894,0.527-2.096c0.175-1.184,0.141-2.632-0.489-3.691c-0.113-0.19-0.253-0.347-0.414-0.472
				C85.981,226.285,85.107,226.246,84.397,226.54z"/>
			<path style="fill:#F15E4F;" d="M93.614,266.624c-0.904,0.374-1.733,1.05-2.329,1.821c-0.695,0.9-1.249,1.92-1.72,2.971
				c-0.266-0.041-0.531-0.097-0.798-0.129c-1.712-0.203-4.017-0.423-5.411,0.854c-1.607,1.472,0.282,3.017,1.639,3.689
				c0.912,0.452,1.896,0.792,2.862,1.142c-0.096,0.547-0.186,1.093-0.338,1.629c-0.307,1.08-0.777,2.476-0.112,3.516
				c0.791,1.238,2.241,1.134,3.291,0.307c1.106-0.872,1.979-2.212,2.683-3.448c0.894,0.3,1.795,0.589,2.696,0.826
				c1.118,0.294,2.64,0.745,3.793,0.559c1.254-0.202,2.104-1.159,2.308-2.392c0.138-0.836-0.13-1.494-0.603-2.017
				c-0.452-0.642-1.174-1.014-1.891-1.396c-0.937-0.498-1.917-0.934-2.925-1.268c-0.194-0.064-0.392-0.125-0.587-0.189
				c0.203,0.066,0.497-1.894,0.527-2.096c0.175-1.184,0.141-2.632-0.489-3.691c-0.113-0.19-0.253-0.347-0.414-0.472
				C95.197,266.368,94.323,266.33,93.614,266.624z"/>
		</g>
		<g style="clip-path:url(#SVGID_00000067954370000679406340000017973700166037977533_);">
			<path style="fill:#F15E4F;" d="M442.417,101.933c-1.289,6.335,1.824,12.263,7.793,14.788c6.14,2.601,12.69,0.741,18.099-2.628
				c-2.981,10.584,6.773,20.716,17.489,19.512c13.985-1.568,19.026-17.433,16.7-29.605c-2.592-13.582-15.323-24.505-29.235-23.83
				c-6.578,0.317-12.827,2.824-18.311,6.373C449.359,90.155,443.805,95.114,442.417,101.933z"/>
			<path style="fill:#FBC6BB;" d="M444.496,106.311c-1.414,14.311,18.858,8.035,27.183,3.709c-1.611,4.346-2.323,9.178-0.697,13.609
				c1.591,4.335,5.503,8.032,10.307,8.057c11.917,0.062,14.321-15.652,13.415-24.59c-0.521-5.147-2.338-10.387-6.23-13.959
				c-4.271-3.92-10.177-4.936-15.79-4.488c-5.925,0.473-11.884,2.487-17.073,5.342C450.86,96.604,445.082,100.383,444.496,106.311z
				 M451.505,99.639c8.097-6.656,23.44-12.351,33.265-6.308c4.746,2.919,6.928,8.332,7.592,13.65
				c0.713,5.708,0.235,12.973-3.168,17.812c-3.627,5.157-10.575,6.346-14.646,0.936c-3.709-4.929-2.375-11.266-0.978-16.787
				c0.018-0.012,0.038-0.024,0.056-0.035c1.111-0.715-0.056-2.646-1.214-1.99c-4.978,2.817-10.247,4.928-15.962,5.629
				c-3.756,0.461-8.888,0.31-9.437-4.506C446.618,104.556,448.989,101.708,451.505,99.639z"/>
		</g>
		<g style="clip-path:url(#SVGID_00000067954370000679406340000017973700166037977533_);">
			<path style="fill:#FBC6BB;" d="M577.966,138.641c2.33,0,2.334-3.621,0-3.621C575.636,135.02,575.632,138.641,577.966,138.641
				L577.966,138.641z"/>
			<path style="fill:#FBC6BB;" d="M582.033,135.982c2.33,0,2.334-3.621,0-3.621C579.703,132.361,579.699,135.982,582.033,135.982
				L582.033,135.982z"/>
			<path style="fill:#FBC6BB;" d="M580.469,130.664c2.33,0,2.334-3.621,0-3.621C578.139,127.043,578.135,130.664,580.469,130.664
				L580.469,130.664z"/>
			<path style="fill:#FBC6BB;" d="M576.558,125.815c2.33,0,2.334-3.621,0-3.621C574.228,122.194,574.225,125.815,576.558,125.815
				L576.558,125.815z"/>
			<path style="fill:#FBC6BB;" d="M571.397,126.91c2.33,0,2.334-3.621,0-3.621C569.067,123.289,569.063,126.91,571.397,126.91
				L571.397,126.91z"/>
			<path style="fill:#FBC6BB;" d="M566.704,129.569c2.33,0,2.334-3.621,0-3.621C564.374,125.948,564.37,129.569,566.704,129.569
				L566.704,129.569z"/>
			<path style="fill:#FBC6BB;" d="M562.637,135.2c2.33,0,2.334-3.621,0-3.621C560.307,131.579,560.304,135.2,562.637,135.2
				L562.637,135.2z"/>
			<path style="fill:#FBC6BB;" d="M563.419,141.613c2.33,0,2.334-3.621,0-3.621C561.09,137.992,561.086,141.613,563.419,141.613
				L563.419,141.613z"/>
			<path style="fill:#FBC6BB;" d="M565.453,147.713c2.33,0,2.334-3.621,0-3.621C563.123,144.092,563.119,147.713,565.453,147.713
				L565.453,147.713z"/>
			<path style="fill:#FBC6BB;" d="M569.497,151.747c0.156,0.053,0.313,0.105,0.469,0.158c0.241,0.075,0.481,0.086,0.722,0.032
				c0.241-0.011,0.465-0.083,0.673-0.215c0.211-0.114,0.38-0.269,0.508-0.466c0.16-0.175,0.268-0.38,0.324-0.616
				c0.021-0.16,0.043-0.321,0.065-0.481c-0.001-0.327-0.083-0.631-0.247-0.914c-0.094-0.122-0.189-0.244-0.283-0.366
				c-0.226-0.224-0.492-0.38-0.799-0.466c-0.156-0.053-0.312-0.105-0.469-0.158c-0.241-0.075-0.481-0.086-0.722-0.032
				c-0.241,0.011-0.465,0.083-0.673,0.215c-0.211,0.114-0.38,0.269-0.508,0.466c-0.16,0.175-0.268,0.38-0.324,0.616
				c-0.022,0.161-0.043,0.321-0.065,0.481c0.001,0.327,0.083,0.631,0.247,0.914c0.094,0.122,0.189,0.244,0.283,0.366
				C568.924,151.506,569.19,151.661,569.497,151.747L569.497,151.747z"/>
			<path style="fill:#FBC6BB;" d="M576.871,152.562c2.33,0,2.334-3.621,0-3.621C574.541,148.941,574.537,152.562,576.871,152.562
				L576.871,152.562z"/>
			<path style="fill:#FBC6BB;" d="M583.753,150.372c2.33,0,2.334-3.621,0-3.621C581.423,146.752,581.42,150.372,583.753,150.372
				L583.753,150.372z"/>
			<path style="fill:#FBC6BB;" d="M590.882,144.182c0-0.052,0-0.104,0-0.156c0.009-0.249-0.043-0.482-0.156-0.698
				c-0.073-0.224-0.198-0.419-0.374-0.583c-0.164-0.177-0.358-0.301-0.583-0.374c-0.216-0.113-0.448-0.165-0.698-0.156
				c-0.161,0.021-0.321,0.043-0.481,0.065c-0.307,0.086-0.573,0.241-0.799,0.466c-0.094,0.122-0.189,0.244-0.283,0.366
				c-0.164,0.282-0.246,0.587-0.247,0.914c0,0.052,0,0.104,0,0.156c-0.009,0.249,0.042,0.482,0.156,0.698
				c0.073,0.224,0.198,0.419,0.374,0.583c0.164,0.177,0.358,0.301,0.583,0.374c0.216,0.113,0.448,0.165,0.698,0.156
				c0.16-0.022,0.321-0.043,0.481-0.065c0.307-0.086,0.573-0.241,0.799-0.466c0.094-0.122,0.189-0.244,0.283-0.366
				C590.798,144.814,590.881,144.509,590.882,144.182L590.882,144.182z"/>
			<path style="fill:#FBC6BB;" d="M591.261,139.111c2.33,0,2.334-3.621,0-3.621C588.931,135.49,588.927,139.111,591.261,139.111
				L591.261,139.111z"/>
			<path style="fill:#FBC6BB;" d="M591.574,132.854c2.33,0,2.334-3.621,0-3.621C589.244,129.233,589.24,132.854,591.574,132.854
				L591.574,132.854z"/>
			<path style="fill:#FBC6BB;" d="M588.602,125.19c2.33,0,2.334-3.621,0-3.621C586.272,121.569,586.268,125.19,588.602,125.19
				L588.602,125.19z"/>
			<path style="fill:#FBC6BB;" d="M584.066,122.374c2.33,0,2.334-3.621,0-3.621C581.736,118.753,581.732,122.374,584.066,122.374
				L584.066,122.374z"/>
			<path style="fill:#FBC6BB;" d="M577.81,119.246c2.33,0,2.334-3.621,0-3.621C575.48,115.625,575.476,119.246,577.81,119.246
				L577.81,119.246z"/>
			<path style="fill:#FBC6BB;" d="M570.615,120.497c2.33,0,2.334-3.621,0-3.621C568.285,116.876,568.281,120.497,570.615,120.497
				L570.615,120.497z"/>
			<path style="fill:#FBC6BB;" d="M563.576,123.313c2.33,0,2.334-3.621,0-3.621C561.246,119.692,561.242,123.313,563.576,123.313
				L563.576,123.313z"/>
			<path style="fill:#FBC6BB;" d="M557.476,130.195c2.33,0,2.334-3.621,0-3.621C555.146,126.574,555.142,130.195,557.476,130.195
				L557.476,130.195z"/>
			<path style="fill:#FBC6BB;" d="M555.599,137.859c2.33,0,2.334-3.621,0-3.621C553.269,134.238,553.265,137.859,555.599,137.859
				L555.599,137.859z"/>
			<path style="fill:#FBC6BB;" d="M557.006,147.713c2.33,0,2.334-3.621,0-3.621C554.677,144.092,554.673,147.713,557.006,147.713
				L557.006,147.713z"/>
			<path style="fill:#FBC6BB;" d="M561.23,152.875c2.33,0,2.334-3.621,0-3.621C558.9,149.254,558.896,152.875,561.23,152.875
				L561.23,152.875z"/>
			<path style="fill:#FBC6BB;" d="M565.14,156.003c2.33,0,2.334-3.621,0-3.621C562.81,152.382,562.806,156.003,565.14,156.003
				L565.14,156.003z"/>
			<path style="fill:#FBC6BB;" d="M571.397,157.567c2.33,0,2.334-3.621,0-3.621C569.067,153.947,569.063,157.567,571.397,157.567
				L571.397,157.567z"/>
			<path style="fill:#FBC6BB;" d="M581.876,156.473c2.33,0,2.334-3.621,0-3.621C579.546,152.852,579.543,156.473,581.876,156.473
				L581.876,156.473z"/>
			<path style="fill:#FBC6BB;" d="M588.915,153.031c2.33,0,2.334-3.621,0-3.621C586.585,149.411,586.581,153.031,588.915,153.031
				L588.915,153.031z"/>
			<path style="fill:#FBC6BB;" d="M595.015,147.557c2.33,0,2.334-3.621,0-3.621C592.685,143.936,592.681,147.557,595.015,147.557
				L595.015,147.557z"/>
			<path style="fill:#FBC6BB;" d="M597.518,140.831c2.33,0,2.334-3.621,0-3.621C595.188,137.21,595.184,140.831,597.518,140.831
				L597.518,140.831z"/>
			<path style="fill:#FBC6BB;" d="M597.049,132.854c2.33,0,2.334-3.621,0-3.621C594.719,129.233,594.715,132.854,597.049,132.854
				L597.049,132.854z"/>
			<path style="fill:#FBC6BB;" d="M585.943,141.3c2.33,0,2.334-3.621,0-3.621C583.613,137.68,583.609,141.3,585.943,141.3
				L585.943,141.3z"/>
			<path style="fill:#FBC6BB;" d="M581.564,143.959c2.33,0,2.334-3.621,0-3.621C579.234,140.339,579.23,143.959,581.564,143.959
				L581.564,143.959z"/>
			<path style="fill:#FBC6BB;" d="M574.212,147.557c2.33,0,2.334-3.621,0-3.621C571.882,143.936,571.878,147.557,574.212,147.557
				L574.212,147.557z"/>
			<path style="fill:#FBC6BB;" d="M568.581,142.395c2.33,0,2.334-3.621,0-3.621C566.251,138.774,566.247,142.395,568.581,142.395
				L568.581,142.395z"/>
			<path style="fill:#FBC6BB;" d="M584.848,128.944c2.33,0,2.334-3.621,0-3.621C582.518,125.323,582.515,128.944,584.848,128.944
				L584.848,128.944z"/>
			<path style="fill:#FBC6BB;" d="M593.92,126.754c2.33,0,2.334-3.621,0-3.621C591.59,123.133,591.587,126.754,593.92,126.754
				L593.92,126.754z"/>
			<path style="fill:#FBC6BB;" d="M590.636,119.872c2.33,0,2.334-3.621,0-3.621C588.306,116.251,588.302,119.872,590.636,119.872
				L590.636,119.872z"/>
			<path style="fill:#FBC6BB;" d="M585.943,115.648c2.33,0,2.334-3.621,0-3.621C583.613,112.028,583.609,115.648,585.943,115.648
				L585.943,115.648z"/>
			<path style="fill:#FBC6BB;" d="M579.217,113.459c2.33,0,2.334-3.621,0-3.621C576.888,109.838,576.884,113.459,579.217,113.459
				L579.217,113.459z"/>
			<path style="fill:#FBC6BB;" d="M572.335,114.084c2.33,0,2.334-3.621,0-3.621C570.005,110.463,570.001,114.084,572.335,114.084
				L572.335,114.084z"/>
			<path style="fill:#FBC6BB;" d="M564.358,116.274c2.33,0,2.334-3.621,0-3.621C562.028,112.653,562.024,116.274,564.358,116.274
				L564.358,116.274z"/>
			<path style="fill:#FBC6BB;" d="M556.694,122.531c2.33,0,2.334-3.621,0-3.621C554.364,118.91,554.36,122.531,556.694,122.531
				L556.694,122.531z"/>
			<path style="fill:#FBC6BB;" d="M551.688,130.821c2.33,0,2.334-3.621,0-3.621C549.358,127.2,549.355,130.821,551.688,130.821
				L551.688,130.821z"/>
			<path style="fill:#FBC6BB;" d="M551.375,141.457c2.33,0,2.334-3.621,0-3.621C549.046,137.836,549.042,141.457,551.375,141.457
				L551.375,141.457z"/>
		</g>
		<g style="clip-path:url(#SVGID_00000067954370000679406340000017973700166037977533_);">
			<path style="fill:#FFCD39;" d="M212.294,329.431c1.704,0,1.707-2.649,0-2.649C210.589,326.782,210.586,329.431,212.294,329.431
				L212.294,329.431z"/>
			<path style="fill:#FFCD39;" d="M215.269,327.485c1.704,0,1.707-2.649,0-2.649C213.565,324.836,213.562,327.485,215.269,327.485
				L215.269,327.485z"/>
			<path style="fill:#FFCD39;" d="M214.125,323.595c1.704,0,1.707-2.649,0-2.649C212.42,320.946,212.417,323.595,214.125,323.595
				L214.125,323.595z"/>
			<path style="fill:#FFCD39;" d="M211.264,320.047c1.705,0,1.707-2.649,0-2.649C209.559,317.398,209.557,320.047,211.264,320.047
				L211.264,320.047z"/>
			<path style="fill:#FFCD39;" d="M207.488,320.848c1.704,0,1.707-2.649,0-2.649C205.783,318.199,205.78,320.848,207.488,320.848
				L207.488,320.848z"/>
			<path style="fill:#FFCD39;" d="M204.055,322.794c1.704,0,1.707-2.649,0-2.649C202.35,320.144,202.347,322.794,204.055,322.794
				L204.055,322.794z"/>
			<path style="fill:#FFCD39;" d="M201.079,326.913c1.704,0,1.707-2.649,0-2.649C199.375,324.264,199.372,326.913,201.079,326.913
				L201.079,326.913z"/>
			<path style="fill:#FFCD39;" d="M201.652,331.605c1.705,0,1.707-2.649,0-2.649C199.947,328.956,199.944,331.605,201.652,331.605
				L201.652,331.605z"/>
			<path style="fill:#FFCD39;" d="M203.139,336.068c1.705,0,1.707-2.649,0-2.649C201.435,333.419,201.432,336.068,203.139,336.068
				L203.139,336.068z"/>
			<path style="fill:#FFCD39;" d="M206.098,339.018c0.114,0.039,0.229,0.077,0.343,0.115c0.176,0.055,0.352,0.063,0.528,0.024
				c0.176-0.008,0.34-0.06,0.492-0.157c0.154-0.083,0.278-0.197,0.372-0.341c0.117-0.128,0.196-0.278,0.237-0.45
				c0.016-0.117,0.032-0.235,0.047-0.352c-0.001-0.239-0.061-0.462-0.181-0.669c-0.069-0.089-0.138-0.179-0.207-0.268
				c-0.165-0.164-0.36-0.278-0.584-0.341c-0.114-0.039-0.229-0.077-0.343-0.115c-0.176-0.055-0.352-0.063-0.528-0.024
				c-0.176,0.008-0.34,0.06-0.492,0.157c-0.154,0.083-0.278,0.197-0.372,0.341c-0.117,0.128-0.196,0.278-0.237,0.45
				c-0.016,0.117-0.032,0.235-0.047,0.352c0.001,0.239,0.061,0.462,0.181,0.669c0.069,0.089,0.138,0.179,0.207,0.268
				C205.679,338.842,205.874,338.956,206.098,339.018L206.098,339.018z"/>
			<path style="fill:#FFCD39;" d="M211.493,339.615c1.705,0,1.707-2.649,0-2.649C209.788,336.966,209.785,339.615,211.493,339.615
				L211.493,339.615z"/>
			<path style="fill:#FFCD39;" d="M216.528,338.013c1.705,0,1.707-2.649,0-2.649C214.823,335.364,214.82,338.013,216.528,338.013
				L216.528,338.013z"/>
			<path style="fill:#FFCD39;" d="M221.743,333.484c0-0.038,0-0.076,0-0.114c0.007-0.182-0.031-0.353-0.114-0.51
				c-0.053-0.164-0.145-0.306-0.274-0.426c-0.12-0.129-0.262-0.22-0.426-0.274c-0.158-0.083-0.328-0.121-0.51-0.114
				c-0.117,0.016-0.235,0.032-0.352,0.047c-0.224,0.063-0.419,0.176-0.584,0.341c-0.069,0.089-0.138,0.179-0.207,0.268
				c-0.12,0.207-0.18,0.429-0.181,0.669c0,0.038,0,0.076,0,0.114c-0.007,0.182,0.031,0.352,0.114,0.51
				c0.053,0.164,0.145,0.306,0.274,0.426c0.12,0.129,0.262,0.22,0.426,0.274c0.158,0.083,0.328,0.121,0.51,0.114
				c0.117-0.016,0.235-0.032,0.352-0.047c0.224-0.063,0.419-0.177,0.584-0.341c0.069-0.089,0.138-0.179,0.207-0.268
				C221.682,333.946,221.742,333.724,221.743,333.484L221.743,333.484z"/>
			<path style="fill:#FFCD39;" d="M222.021,329.774c1.704,0,1.707-2.649,0-2.649C220.316,327.125,220.313,329.774,222.021,329.774
				L222.021,329.774z"/>
			<path style="fill:#FFCD39;" d="M222.249,325.197c1.705,0,1.707-2.649,0-2.649C220.545,322.548,220.542,325.197,222.249,325.197
				L222.249,325.197z"/>
			<path style="fill:#FFCD39;" d="M220.075,319.589c1.704,0,1.707-2.649,0-2.649C218.371,316.94,218.368,319.589,220.075,319.589
				L220.075,319.589z"/>
			<path style="fill:#FFCD39;" d="M216.757,317.53c1.704,0,1.707-2.649,0-2.649C215.052,314.881,215.049,317.53,216.757,317.53
				L216.757,317.53z"/>
			<path style="fill:#FFCD39;" d="M212.179,315.241c1.704,0,1.707-2.649,0-2.649C210.475,312.592,210.472,315.241,212.179,315.241
				L212.179,315.241z"/>
			<path style="fill:#FFCD39;" d="M206.915,316.156c1.705,0,1.707-2.649,0-2.649C205.211,313.507,205.208,316.156,206.915,316.156
				L206.915,316.156z"/>
			<path style="fill:#FFCD39;" d="M201.766,318.216c1.705,0,1.707-2.649,0-2.649C200.062,315.567,200.059,318.216,201.766,318.216
				L201.766,318.216z"/>
			<path style="fill:#FFCD39;" d="M197.303,323.251c1.705,0,1.707-2.649,0-2.649C195.599,320.602,195.596,323.251,197.303,323.251
				L197.303,323.251z"/>
			<path style="fill:#FFCD39;" d="M195.93,328.858c1.705,0,1.707-2.649,0-2.649C194.225,326.209,194.223,328.858,195.93,328.858
				L195.93,328.858z"/>
			<path style="fill:#FFCD39;" d="M196.96,336.068c1.705,0,1.707-2.649,0-2.649C195.255,333.419,195.253,336.068,196.96,336.068
				L196.96,336.068z"/>
			<path style="fill:#FFCD39;" d="M200.05,339.844c1.705,0,1.707-2.649,0-2.649C198.345,337.195,198.342,339.844,200.05,339.844
				L200.05,339.844z"/>
			<path style="fill:#FFCD39;" d="M202.91,342.133c1.704,0,1.707-2.649,0-2.649C201.206,339.484,201.203,342.133,202.91,342.133
				L202.91,342.133z"/>
			<path style="fill:#FFCD39;" d="M207.488,343.277c1.704,0,1.707-2.649,0-2.649C205.783,340.628,205.78,343.277,207.488,343.277
				L207.488,343.277z"/>
			<path style="fill:#FFCD39;" d="M215.155,342.476c1.704,0,1.707-2.649,0-2.649C213.45,339.827,213.447,342.476,215.155,342.476
				L215.155,342.476z"/>
			<path style="fill:#FFCD39;" d="M220.304,339.958c1.704,0,1.707-2.649,0-2.649C218.6,337.309,218.597,339.958,220.304,339.958
				L220.304,339.958z"/>
			<path style="fill:#FFCD39;" d="M224.767,335.953c1.704,0,1.707-2.649,0-2.649C223.062,333.304,223.06,335.953,224.767,335.953
				L224.767,335.953z"/>
			<path style="fill:#FFCD39;" d="M226.598,331.033c1.704,0,1.707-2.649,0-2.649C224.893,328.384,224.891,331.033,226.598,331.033
				L226.598,331.033z"/>
			<path style="fill:#FFCD39;" d="M226.255,325.197c1.704,0,1.707-2.649,0-2.649C224.55,322.548,224.547,325.197,226.255,325.197
				L226.255,325.197z"/>
			<path style="fill:#FFCD39;" d="M218.13,331.376c1.705,0,1.707-2.649,0-2.649C216.425,328.727,216.422,331.376,218.13,331.376
				L218.13,331.376z"/>
			<path style="fill:#FFCD39;" d="M214.926,333.321c1.705,0,1.707-2.649,0-2.649C213.221,330.672,213.218,333.321,214.926,333.321
				L214.926,333.321z"/>
			<path style="fill:#FFCD39;" d="M209.547,335.953c1.705,0,1.707-2.649,0-2.649C207.843,333.304,207.84,335.953,209.547,335.953
				L209.547,335.953z"/>
			<path style="fill:#FFCD39;" d="M205.428,332.177c1.705,0,1.707-2.649,0-2.649C203.723,329.528,203.72,332.177,205.428,332.177
				L205.428,332.177z"/>
			<path style="fill:#FFCD39;" d="M217.329,322.336c1.704,0,1.707-2.649,0-2.649C215.624,319.687,215.621,322.336,217.329,322.336
				L217.329,322.336z"/>
			<path style="fill:#FFCD39;" d="M223.966,320.734c1.705,0,1.707-2.649,0-2.649C222.261,318.085,222.259,320.734,223.966,320.734
				L223.966,320.734z"/>
			<path style="fill:#FFCD39;" d="M221.563,315.699c1.704,0,1.707-2.649,0-2.649C219.858,313.05,219.855,315.699,221.563,315.699
				L221.563,315.699z"/>
			<path style="fill:#FFCD39;" d="M218.13,312.609c1.705,0,1.707-2.649,0-2.649C216.425,309.96,216.422,312.609,218.13,312.609
				L218.13,312.609z"/>
			<path style="fill:#FFCD39;" d="M213.209,311.007c1.705,0,1.707-2.649,0-2.649C211.505,308.358,211.502,311.007,213.209,311.007
				L213.209,311.007z"/>
			<path style="fill:#FFCD39;" d="M208.174,311.465c1.705,0,1.707-2.649,0-2.649C206.47,308.816,206.467,311.465,208.174,311.465
				L208.174,311.465z"/>
			<path style="fill:#FFCD39;" d="M202.338,313.067c1.705,0,1.707-2.649,0-2.649C200.634,310.418,200.631,313.067,202.338,313.067
				L202.338,313.067z"/>
			<path style="fill:#FFCD39;" d="M196.731,317.644c1.704,0,1.707-2.649,0-2.649C195.026,314.995,195.024,317.644,196.731,317.644
				L196.731,317.644z"/>
			<path style="fill:#FFCD39;" d="M193.069,323.709c1.704,0,1.707-2.649,0-2.649C191.365,321.06,191.362,323.709,193.069,323.709
				L193.069,323.709z"/>
			<path style="fill:#FFCD39;" d="M192.84,331.49c1.705,0,1.707-2.649,0-2.649C191.136,328.841,191.133,331.49,192.84,331.49
				L192.84,331.49z"/>
		</g>
	</g>
</g>
</svg>
